<?xml version="1.0" encoding="UTF-8" standalone="no"?>
<!-- Created with Inkscape (http://www.inkscape.org/) -->

<svg
   width="2.680603in"
   height="2.1809895in"
   viewBox="0 0 257.33789 209.37499"
   version="1.1"
   id="svg1"
   inkscape:version="1.3.2 (091e20e, 2023-11-25, custom)"
   sodipodi:docname="Drawing.svg"
   xmlns:inkscape="http://www.inkscape.org/namespaces/inkscape"
   xmlns:sodipodi="http://sodipodi.sourceforge.net/DTD/sodipodi-0.dtd"
   xmlns="http://www.w3.org/2000/svg"
   xmlns:svg="http://www.w3.org/2000/svg">
  <sodipodi:namedview
     id="namedview1"
     pagecolor="#ffffff"
     bordercolor="#000000"
     borderopacity="0.25"
     inkscape:showpageshadow="2"
     inkscape:pageopacity="0.0"
     inkscape:pagecheckerboard="0"
     inkscape:deskcolor="#d1d1d1"
     inkscape:document-units="in"
     inkscape:zoom="0.5"
     inkscape:cx="479"
     inkscape:cy="415"
     inkscape:window-width="1366"
     inkscape:window-height="697"
     inkscape:window-x="-8"
     inkscape:window-y="-8"
     inkscape:window-maximized="1"
     inkscape:current-layer="layer2" />
  <defs
     id="defs1" />
  <g
     inkscape:label="Letters_stroke"
     inkscape:groupmode="layer"
     id="layer1"
     style="display:inline;opacity:0.5"
     transform="translate(-47.041016,-14.144531)">
    <g
       inkscape:groupmode="layer"
       id="layer4"
       inkscape:label="BERT"
       style="display:inline">
      <path
         id="text8"
         style="color:#000000;-inkscape-font-specification:'LoRes 9 Plus OT';display:inline;fill:#000000;stroke-linecap:square;-inkscape-stroke:none"
         inkscape:label="B"
         d="m 82.431263,14.143256 c -3.071803,0 -5.945684,1.208316 -8.1355,3.398131 l -0.02344,0.02539 -0.02344,0.02343 c -2.047515,2.167957 -3.201461,4.900919 -3.201461,7.78836 V 188.26817 H 47.045259 v 23.99784 h 24.002164 c 0,2.96264 1.138713,5.75271 3.201461,7.93678 l 0.04688,0.0488 0.04883,0.0469 c 2.200215,2.07799 5.046862,3.20088 8.086667,3.20088 H 235.17551 c 2.81448,0 5.48558,-1.16859 7.6374,-3.20088 h 0.002 l 0.002,-0.002 c 2.28342,-2.16323 3.59408,-5.00122 3.59408,-8.03053 v -16.3247 c 0,-1.95182 0.56269,-3.31016 1.84391,-4.59138 1.28121,-1.28121 2.63844,-1.84163 4.59026,-1.84163 h 16.32374 c 2.83935,0 5.51849,-1.2517 7.65694,-3.3786 2.26908,-2.16047 3.57845,-4.98809 3.57845,-8.00709 v -26.31794 h 24.00216 V 127.80683 H 280.4042 c 0,-2.98548 -1.23761,-5.77669 -3.43,-7.85866 -2.15422,-2.14126 -4.89573,-3.37665 -7.80539,-3.37665 h -16.32374 c -1.78457,0 -3.1526,-0.5743 -4.56291,-1.97443 -1.32677,-1.41544 -1.87126,-2.76729 -1.87126,-4.46054 V 93.513049 c 0,-1.578144 0.51278,-2.811078 1.84391,-4.142204 1.41986,-1.419867 2.79427,-1.992008 4.59026,-1.992008 h 16.32374 c 2.85084,0 5.54356,-1.255455 7.68624,-3.398131 2.2392,-2.239201 3.54915,-5.028603 3.54915,-7.985608 V 59.521975 c 0,-2.91057 -1.23674,-5.65532 -3.37922,-7.809843 -2.1449,-2.253101 -4.90932,-3.575849 -7.85617,-3.575849 h -16.32374 c -1.81694,0 -3.20953,-0.55877 -4.60979,-1.870925 -1.29477,-1.304937 -1.82438,-2.572081 -1.82438,-4.26524 V 25.37857 c 0,-2.839361 -1.2523,-5.519057 -3.37922,-7.657512 -2.1449,-2.2531 -4.90931,-3.577802 -7.85617,-3.577802 z m 0,4.800348 H 235.17551 c 1.63529,0 2.95089,0.569192 4.39688,2.095514 l 0.0234,0.02344 0.0234,0.02344 c 1.4513,1.451294 1.99236,2.750803 1.99236,4.292581 v 16.621548 c 0,2.887441 1.16854,5.606991 3.24834,7.686806 l 0.0234,0.02344 0.0254,0.02343 c 2.18408,2.062749 4.97362,3.200883 7.93626,3.200883 h 16.32374 c 1.63529,0 2.95089,0.571145 4.39688,2.097467 l 0.0215,0.02344 0.0234,0.02344 c 1.43558,1.43558 1.99237,2.772888 1.99237,4.442959 v 16.473123 c 0,1.635289 -0.58834,3.036949 -2.14277,4.591383 -1.4513,1.451294 -2.74962,1.992008 -4.2914,1.992008 h -16.32374 c -2.99597,0 -5.81099,1.224028 -7.9851,3.398131 -2.06316,2.063179 -3.24834,4.721943 -3.24834,7.536429 v 16.623504 c 0,2.88744 1.15395,5.61845 3.20147,7.78641 l 0.0234,0.0254 0.0234,0.0234 c 2.17411,2.1741 4.98913,3.40008 7.9851,3.40008 h 16.32374 c 1.67007,0 3.00623,0.55643 4.4418,1.99201 l 0.0234,0.0254 0.0254,0.0234 c 1.38711,1.31005 1.94353,2.59814 1.94353,4.39413 v 50.31578 c 0,1.76264 -0.58567,3.11573 -2.09589,4.54646 l -0.0234,0.0215 -0.0234,0.0234 c -1.4513,1.4513 -2.74962,1.99201 -4.2914,1.99201 H 252.8449 c -3.0398,0 -5.872,1.13661 -7.9851,3.2497 -2.11307,2.11309 -3.24834,4.9458 -3.24834,7.98561 v 16.3247 c 0,1.76125 -0.5864,3.1131 -2.09393,4.54256 -1.44214,1.36203 -2.76404,1.89045 -4.34219,1.89045 H 82.431263 c -1.927577,0 -3.358967,-0.5735 -4.736756,-1.8553 -1.290583,-1.3895 -1.849776,-2.77467 -1.849776,-4.57771 V 25.37857 c 0,-1.692348 0.544078,-3.045908 1.869309,-4.460535 1.396175,-1.386581 2.808555,-1.974431 4.717223,-1.974431 z m 67.986597,29.192679 c -2.94686,0 -5.71322,1.32275 -7.85813,3.575849 -2.14249,2.154523 -3.37726,4.899273 -3.37726,7.809843 v 16.473123 c 0,2.922222 1.22236,5.690925 3.35187,7.938737 l 0.0449,0.04687 0.0469,0.04492 c 2.23256,2.115047 4.94088,3.353213 7.79172,3.353213 h 50.6159 c 2.92222,0 5.6763,-1.239745 7.83469,-3.398131 2.23919,-2.239201 3.54915,-5.028603 3.54915,-7.985608 V 59.521975 c 0,-2.935446 -1.31982,-5.689924 -3.55697,-7.831325 -2.14139,-2.237134 -4.89144,-3.554367 -7.82687,-3.554367 z m 0,4.798395 h 50.6159 c 1.63528,0 2.95088,0.571142 4.39688,2.097467 l 0.0449,0.04687 0.0469,0.04492 c 1.52633,1.44599 2.09394,2.762753 2.09394,4.398041 v 16.473123 c 0,1.635289 -0.58639,3.036949 -2.14082,4.591383 -1.43559,1.435584 -2.77174,1.992008 -4.4418,1.992008 h -50.6159 c -1.52292,0 -2.89813,-0.559221 -4.43594,-1.997867 -1.42685,-1.524993 -2.00018,-2.934948 -2.00018,-4.585524 V 59.521975 c 0,-1.670071 0.55678,-3.007379 1.99236,-4.442959 l 0.0234,-0.02344 0.0215,-0.02344 c 1.446,-1.526324 2.76354,-2.097467 4.39883,-2.097467 z m 0,63.636842 c -2.90824,0 -5.64968,1.23539 -7.80344,3.37469 -2.19365,2.08219 -3.43195,4.87421 -3.43195,7.86062 v 50.31578 c 0,2.99596 1.2227,5.81346 3.3968,7.98756 l 0.0234,0.0215 0.0234,0.0234 c 2.23256,2.11504 4.94088,3.35322 7.79172,3.35322 h 50.6159 c 2.99596,0 5.81099,-1.22403 7.98509,-3.39813 2.17411,-2.1741 3.39875,-4.9916 3.39875,-7.98756 v -50.31578 c 0,-2.9851 -1.23618,-5.77678 -3.42805,-7.85866 -2.17045,-2.15756 -4.97202,-3.37665 -7.95579,-3.37665 z m 0,4.80034 h 50.6159 c 1.79598,0 3.17234,0.57214 4.59221,1.99201 l 0.0215,0.0254 0.0254,0.0234 c 1.38712,1.31005 1.94353,2.59815 1.94353,4.39413 v 50.31578 c 0,1.79597 -0.57249,3.17151 -1.99237,4.59138 -1.41986,1.41987 -2.79427,1.99396 -4.59025,1.99396 h -50.6159 c -1.53159,0 -2.91285,-0.56033 -4.46134,-2.0174 -1.40268,-1.41155 -1.97478,-2.78192 -1.97478,-4.56794 V 127.8068 c 0,-1.79599 0.55642,-3.08408 1.94353,-4.39413 l 0.0254,-0.0234 0.0234,-0.0254 c 1.43559,-1.43558 2.77368,-1.99201 4.44376,-1.99201 z m 141.98742,13.63354 a 4.8004332,4.7995673 0 0 1 4.79926,4.80035 4.8004332,4.7995673 0 0 1 -4.79926,4.79839 4.8004332,4.7995673 0 0 1 -4.80122,-4.79839 4.8004332,4.7995673 0 0 1 4.80122,-4.80035 z M 59.046341,195.46674 a 4.8004332,4.7995673 0 0 1 4.799261,4.80035 4.8004332,4.7995673 0 0 1 -4.799261,4.7984 4.8004332,4.7995673 0 0 1 -4.801214,-4.7984 4.8004332,4.7995673 0 0 1 4.801214,-4.80035 z"
         transform="scale(0.99990981,1.0000902)" />
    </g>
  </g>
</svg>
