<?xml version="1.0" encoding="UTF-8" standalone="no"?>
<!-- Created with Inkscape (http://www.inkscape.org/) -->

<svg
   width="2.0806277in"
   height="2.0809734in"
   viewBox="0 0 199.74026 199.77345"
   version="1.1"
   id="svg1"
   inkscape:version="1.3.2 (091e20e, 2023-11-25, custom)"
   sodipodi:docname="Drawing.svg"
   xmlns:inkscape="http://www.inkscape.org/namespaces/inkscape"
   xmlns:sodipodi="http://sodipodi.sourceforge.net/DTD/sodipodi-0.dtd"
   xmlns="http://www.w3.org/2000/svg"
   xmlns:svg="http://www.w3.org/2000/svg">
  <sodipodi:namedview
     id="namedview1"
     pagecolor="#ffffff"
     bordercolor="#000000"
     borderopacity="0.25"
     inkscape:showpageshadow="2"
     inkscape:pageopacity="0.0"
     inkscape:pagecheckerboard="0"
     inkscape:deskcolor="#d1d1d1"
     inkscape:document-units="in"
     inkscape:zoom="0.70710678"
     inkscape:cx="477.29708"
     inkscape:cy="333.04729"
     inkscape:window-width="1366"
     inkscape:window-height="697"
     inkscape:window-x="-8"
     inkscape:window-y="-8"
     inkscape:window-maximized="1"
     inkscape:current-layer="layer4" />
  <defs
     id="defs1" />
  <g
     inkscape:label="Letters_fill"
     inkscape:groupmode="layer"
     id="g4"
     style="display:inline"
     transform="translate(-75.837891,-18.945305)">
    <g
       inkscape:groupmode="layer"
       id="layer7"
       inkscape:label="BERT ">
      <path
         id="text18"
         style="font-size:306.691px;font-family:'LoRes 9 Plus OT';-inkscape-font-specification:'LoRes 9 Plus OT';letter-spacing:-15px;display:inline;fill:#4d4d4d;stroke-width:4.8;stroke-linecap:square"
         inkscape:label="B"
         d="m 82.430125,18.943865 c -1.908641,0 -3.321002,0.587859 -4.717157,1.974459 -1.325214,1.414645 -1.869284,2.768225 -1.869284,4.460596 v 186.89002 c 0,1.80306 0.559185,3.18825 1.849751,4.57777 1.377769,1.28181 2.80914,1.85533 4.73669,1.85533 H 235.17226 c 1.57813,0 2.90001,-0.52843 4.34213,-1.89048 1.50751,-1.42948 2.09391,-2.78135 2.09391,-4.54262 v -16.32493 c 0,-3.03984 1.13525,-5.8726 3.2483,-7.98571 2.11306,-2.11312 4.94522,-3.24976 7.98498,-3.24976 h 16.32351 c 1.54176,0 2.84007,-0.54071 4.29135,-1.99203 l 0.0234,-0.0234 0.0234,-0.0215 c 1.51021,-1.43075 2.09587,-2.78385 2.09587,-4.54653 v -50.31647 c 0,-1.79601 -0.55643,-3.08411 -1.94351,-4.39419 l -0.0254,-0.0234 -0.0234,-0.0254 c -1.43556,-1.43559 -2.7717,-1.99203 -4.44175,-1.99203 h -16.32351 c -2.99593,0 -5.81091,-1.226 -7.98498,-3.40013 l -0.0234,-0.0234 -0.0234,-0.0254 c -2.04749,-2.16799 -3.20142,-4.89903 -3.20142,-7.78651 V 93.51434 c 0,-2.814525 1.18515,-5.473326 3.2483,-7.536534 2.17407,-2.174132 4.98905,-3.398178 7.98498,-3.398178 h 16.32351 c 1.54176,0 2.84007,-0.540721 4.29135,-1.992035 1.5544,-1.554456 2.14274,-2.956136 2.14274,-4.591446 V 59.522796 c 0,-1.670095 -0.55678,-3.00742 -1.99234,-4.44302 l -0.0234,-0.02343 -0.0215,-0.02344 c -1.44597,-1.526344 -2.76154,-2.097496 -4.39682,-2.097496 h -16.32351 c -2.9626,0 -5.7521,-1.13815 -7.93615,-3.200927 l -0.0254,-0.02344 -0.0234,-0.02344 c -2.07979,-2.079845 -3.2483,-4.799431 -3.2483,-7.686913 V 25.37892 c 0,-1.541799 -0.54106,-2.841326 -1.99234,-4.29264 l -0.0234,-0.02344 -0.0234,-0.02344 c -1.44597,-1.526343 -2.76156,-2.095543 -4.39682,-2.095543 z m 67.985665,29.193082 h 50.61519 c 2.93539,0 5.68541,1.317251 7.82677,3.554416 2.23712,2.141431 3.55691,4.895946 3.55691,7.831433 v 16.473351 c 0,2.957045 -1.30993,5.746486 -3.5491,7.985718 -2.15835,2.158416 -4.91239,3.398178 -7.83458,3.398178 h -50.61519 c -2.85081,0 -5.55909,-1.238183 -7.79161,-3.35326 l -0.0469,-0.04492 -0.0449,-0.04687 c -2.12947,-2.247844 -3.35182,-5.016585 -3.35182,-7.938847 v -16.47335 c 0,-2.910611 1.23476,-5.655398 3.37721,-7.80995 2.14489,-2.253132 4.9112,-3.575899 7.85803,-3.575899 z m 0,68.436183 h 50.61519 c 2.98374,0 5.78527,1.2191 7.95569,3.37669 2.19183,2.08192 3.42799,4.87364 3.42799,7.85877 v 50.31647 c 0,2.99601 -1.22462,5.81354 -3.39869,7.98767 -2.17408,2.17414 -4.98906,3.39818 -7.98499,3.39818 h -50.61519 c -2.85081,0 -5.55909,-1.23819 -7.79161,-3.35326 l -0.0234,-0.0234 -0.0234,-0.0215 c -2.17407,-2.17413 -3.39675,-4.99166 -3.39675,-7.98767 v -50.31647 c 0,-2.98644 1.23828,-5.7785 3.43191,-7.86072 2.15372,-2.13933 4.89513,-3.37474 7.80333,-3.37474 z"
         transform="scale(0.99992361,1.0000764)"
         inkscape:export-filename="Letters\BFill.svg"
         inkscape:export-xdpi="96"
         inkscape:export-ydpi="96" />
    </g>
  </g>
</svg>
