<?xml version="1.0" encoding="UTF-8" standalone="no"?>
<!-- Created with Inkscape (http://www.inkscape.org/) -->

<svg
   width="2.1806107in"
   height="2.1810031in"
   viewBox="0 0 209.33862 209.3763"
   version="1.1"
   id="svg1"
   inkscape:version="1.3.2 (091e20e, 2023-11-25, custom)"
   sodipodi:docname="Drawing.svg"
   xmlns:inkscape="http://www.inkscape.org/namespaces/inkscape"
   xmlns:sodipodi="http://sodipodi.sourceforge.net/DTD/sodipodi-0.dtd"
   xmlns="http://www.w3.org/2000/svg"
   xmlns:svg="http://www.w3.org/2000/svg">
  <sodipodi:namedview
     id="namedview1"
     pagecolor="#ffffff"
     bordercolor="#000000"
     borderopacity="0.25"
     inkscape:showpageshadow="2"
     inkscape:pageopacity="0.0"
     inkscape:pagecheckerboard="0"
     inkscape:deskcolor="#d1d1d1"
     inkscape:document-units="in"
     inkscape:zoom="0.70710678"
     inkscape:cx="477.29708"
     inkscape:cy="333.04729"
     inkscape:window-width="1366"
     inkscape:window-height="697"
     inkscape:window-x="-8"
     inkscape:window-y="-8"
     inkscape:window-maximized="1"
     inkscape:current-layer="layer4" />
  <defs
     id="defs1" />
  <g
     inkscape:label="Letters_stroke"
     inkscape:groupmode="layer"
     id="layer1"
     style="display:inline;opacity:0.5"
     transform="translate(-71.040459,-14.143853)">
    <g
       inkscape:groupmode="layer"
       id="layer4"
       inkscape:label="BERT"
       style="display:inline">
      <path
         style="color:#000000;-inkscape-font-specification:'LoRes 9 Plus OT';display:inline;fill:#000000;stroke-linecap:square;-inkscape-stroke:none"
         d="m 82.431641,14.142578 c -3.071806,0 -5.946901,1.208621 -8.136719,3.398438 l -0.02344,0.02539 -0.02344,0.02344 c -2.047517,2.167959 -3.201172,4.901618 -3.201172,7.789062 V 212.26562 c 0,2.96264 1.138422,5.75342 3.201172,7.9375 l 0.04687,0.0488 0.04883,0.0469 c 2.200217,2.07799 5.048083,3.20117 8.087891,3.20117 H 235.17578 c 2.81449,0 5.48489,-1.16888 7.63672,-3.20117 h 0.002 l 0.002,-0.002 c 2.28342,-2.16323 3.59375,-5.00194 3.59375,-8.03125 v -16.32421 c 0,-1.95182 0.56253,-3.31058 1.84375,-4.5918 1.28121,-1.28121 2.63997,-1.8418 4.59179,-1.8418 h 16.32227 c 2.83936,0 5.51975,-1.25199 7.6582,-3.3789 2.26908,-2.16047 3.57813,-4.98685 3.57813,-8.00586 v -50.31641 c 0,-2.98548 -1.2373,-5.77739 -3.42969,-7.85937 -2.15422,-2.14126 -4.89697,-3.375 -7.80664,-3.375 H 252.8457 c -1.78457,0 -3.15414,-0.57447 -4.56445,-1.97461 -1.32677,-1.41544 -1.87109,-2.76769 -1.87109,-4.46094 V 93.513672 c 0,-1.578146 0.51262,-2.811451 1.84375,-4.142578 1.41986,-1.419868 2.7958,-1.992188 4.59179,-1.992188 h 16.32227 c 2.85085,0 5.54482,-1.255759 7.6875,-3.398437 2.2392,-2.239203 3.54883,-5.02932 3.54883,-7.986328 V 59.521484 c 0,-2.910573 -1.23643,-5.654068 -3.37891,-7.808593 -2.14491,-2.253104 -4.91056,-3.576172 -7.85742,-3.576172 H 252.8457 c -1.81694,0 -3.21107,-0.558938 -4.61133,-1.871094 C 246.9396,44.960687 246.41016,43.693161 246.41016,42 V 25.378906 c 0,-2.839364 -1.25199,-5.519746 -3.37891,-7.658203 -2.14491,-2.253102 -4.9086,-3.578125 -7.85547,-3.578125 z m 0,4.800781 H 235.17578 c 1.63529,0 2.9505,0.56938 4.39649,2.095703 l 0.0234,0.02344 0.0234,0.02344 c 1.4513,1.451296 1.99219,2.751189 1.99219,4.292969 V 42 c 0,2.887444 1.16823,5.607682 3.24804,7.6875 l 0.0234,0.02344 0.0254,0.02344 c 2.18409,2.062751 4.97486,3.201172 7.9375,3.201172 h 16.32227 c 1.63529,0 2.95245,0.569379 4.39844,2.095703 l 0.0215,0.02344 0.0234,0.02344 c 1.43558,1.435581 1.99219,2.773286 1.99219,4.443359 v 16.472657 c 0,1.63529 -0.58815,3.03736 -2.14258,4.591796 -1.4513,1.451295 -2.75119,1.992188 -4.29297,1.992188 H 252.8457 c -2.99597,0 -5.81222,1.224332 -7.98633,3.398437 -2.06317,2.063181 -3.24804,4.722621 -3.24804,7.53711 v 16.623048 c 0,2.88744 1.15365,5.61915 3.20117,7.78711 l 0.0234,0.0254 0.0234,0.0234 c 2.17411,2.1741 4.99036,3.39843 7.98633,3.39843 h 16.32227 c 1.67007,0 3.00778,0.55661 4.44336,1.99219 l 0.0234,0.0254 0.0254,0.0234 c 1.38711,1.31006 1.94336,2.59854 1.94336,4.39453 V 178.123 c 0,1.76265 -0.58549,3.11614 -2.09571,4.54687 l -0.0234,0.0215 -0.0234,0.0234 c -1.4513,1.4513 -2.75119,1.99219 -4.29297,1.99219 H 252.8457 c -3.0398,0 -5.87323,1.13496 -7.98633,3.24805 -2.11308,2.11309 -3.24804,4.94652 -3.24804,7.98633 v 16.32421 c 0,1.76125 -0.58621,3.11351 -2.09375,4.54297 -1.44214,1.36203 -2.76365,1.89063 -4.3418,1.89063 H 82.431641 c -1.927579,0 -3.358539,-0.57367 -4.736329,-1.85547 -1.290585,-1.3895 -1.849609,-2.77509 -1.849609,-4.57813 V 25.378906 c 0,-1.69235 0.543908,-3.046309 1.869141,-4.460937 1.396176,-1.386582 2.808127,-1.97461 4.716797,-1.97461 z m 67.986329,29.19336 c -2.94687,0 -5.71251,1.32307 -7.85742,3.576172 -2.14249,2.154525 -3.37891,4.89802 -3.37891,7.808593 v 16.472657 c 0,2.922225 1.22401,5.691638 3.35352,7.939453 l 0.0449,0.04687 0.0469,0.04492 c 2.23256,2.115049 4.94017,3.353515 7.79102,3.353515 h 50.61523 c 2.92223,0 5.67755,-1.240049 7.83594,-3.398437 2.2392,-2.239203 3.54883,-5.02932 3.54883,-7.986328 v -16.47265 c 0,-2.935449 -1.31949,-5.688675 -3.55664,-7.830078 -2.1414,-2.237136 -4.89269,-3.554687 -7.82813,-3.554687 z m 0,4.798828 h 50.61523 c 1.63529,0 2.95049,0.569376 4.39649,2.095703 l 0.0449,0.04687 0.0469,0.04492 c 1.52633,1.445991 2.09571,2.763147 2.09571,4.398437 v 16.472657 c 0,1.63529 -0.58815,3.03736 -2.14258,4.591796 -1.43559,1.435585 -2.77134,1.992188 -4.44141,1.992188 h -50.61523 c -1.52292,0 -2.89773,-0.5594 -4.43555,-1.998047 -1.42685,-1.524995 -2,-2.93536 -2,-4.585937 v -16.47265 c 0,-1.670073 0.55661,-3.007778 1.99219,-4.443359 l 0.0234,-0.02344 0.0215,-0.02344 c 1.446,-1.526326 2.76315,-2.095703 4.39844,-2.095703 z m 0,63.636723 c -2.90825,0 -5.64898,1.23374 -7.80274,3.37304 -2.19366,2.08219 -3.43359,4.87492 -3.43359,7.86133 v 50.31641 c 0,2.99597 1.22434,5.81222 3.39844,7.98632 l 0.0234,0.0215 0.0234,0.0234 c 2.23256,2.11504 4.94017,3.35351 7.79102,3.35351 h 50.61523 c 2.99597,0 5.81223,-1.22433 7.98633,-3.39844 2.17411,-2.1741 3.39844,-4.99035 3.39844,-7.98632 v -50.31641 c 0,-2.9851 -1.23587,-5.77748 -3.42774,-7.85937 -2.17045,-2.15756 -4.97325,-3.375 -7.95703,-3.375 z m 0,4.79882 h 50.61523 c 1.79599,0 3.17193,0.57232 4.5918,1.99219 l 0.0234,0.0254 0.0254,0.0234 c 1.38712,1.31006 1.94336,2.59855 1.94336,4.39453 v 50.31641 c 0,1.79598 -0.57231,3.17192 -1.99219,4.59179 -1.41987,1.41987 -2.79581,1.99219 -4.5918,1.99219 h -50.61523 c -1.53159,0 -2.91245,-0.55855 -4.46094,-2.01562 -1.40268,-1.41155 -1.97461,-2.78233 -1.97461,-4.56836 v -50.31641 c 0,-1.79599 0.55625,-3.08447 1.94336,-4.39453 l 0.0254,-0.0234 0.0234,-0.0254 c 1.43559,-1.43558 2.77328,-1.99219 4.44336,-1.99219 z"
         id="text8"
         inkscape:label="B"
         transform="scale(0.99990981,1.0000902)"
         inkscape:export-filename="Letters\BStroke.svg"
         inkscape:export-xdpi="96"
         inkscape:export-ydpi="96" />
    </g>
  </g>
</svg>
