<?xml version="1.0" encoding="UTF-8" standalone="no"?>
<!-- Created with Inkscape (http://www.inkscape.org/) -->

<svg
   width="2.0765374in"
   height="2.4309895in"
   viewBox="0 0 199.34759 233.37499"
   version="1.1"
   id="svg1"
   inkscape:version="1.3.2 (091e20e, 2023-11-25, custom)"
   sodipodi:docname="Drawing.svg"
   xmlns:inkscape="http://www.inkscape.org/namespaces/inkscape"
   xmlns:sodipodi="http://sodipodi.sourceforge.net/DTD/sodipodi-0.dtd"
   xmlns="http://www.w3.org/2000/svg"
   xmlns:svg="http://www.w3.org/2000/svg">
  <sodipodi:namedview
     id="namedview1"
     pagecolor="#ffffff"
     bordercolor="#000000"
     borderopacity="0.25"
     inkscape:showpageshadow="2"
     inkscape:pageopacity="0.0"
     inkscape:pagecheckerboard="0"
     inkscape:deskcolor="#d1d1d1"
     inkscape:document-units="in"
     inkscape:zoom="0.5"
     inkscape:cx="469"
     inkscape:cy="371"
     inkscape:window-width="1366"
     inkscape:window-height="697"
     inkscape:window-x="-8"
     inkscape:window-y="-8"
     inkscape:window-maximized="1"
     inkscape:current-layer="layer4" />
  <defs
     id="defs1" />
  <g
     inkscape:label="Letters_stroke"
     inkscape:groupmode="layer"
     id="layer1"
     style="display:inline;opacity:0.75"
     transform="translate(-304.56064,-14.144531)">
    <g
       inkscape:groupmode="layer"
       id="layer4"
       inkscape:label="BERT"
       style="display:inline">
      <path
         id="text7"
         style="color:#000000;-inkscape-font-specification:'LoRes 9 Plus OT';fill:#000000;stroke-linecap:square;-inkscape-stroke:none"
         inkscape:label="E"
         d="m 339.97402,14.143256 c -3.07181,0 -5.94568,1.208314 -8.1355,3.398131 l -0.0234,0.02539 -0.0234,0.02343 c -2.04751,2.167957 -3.20146,4.900919 -3.20146,7.78836 H 304.5881 v 23.997836 h 24.00216 V 212.26601 c 0,2.96264 1.13872,5.75271 3.20146,7.93678 l 0.0469,0.0488 0.0508,0.0469 c 2.20022,2.07799 5.0449,3.20088 8.08471,3.20088 H 468.7161 v 23.99784 h 24.00217 v -23.99784 c 2.81448,0 5.48753,-1.16859 7.63936,-3.20088 l 0.002,-0.002 c 2.28343,-2.16324 3.59408,-5.00122 3.59407,-8.03053 v -16.3247 c 0,-2.97409 -1.23375,-5.74993 -3.41046,-7.82937 -2.0787,-2.17215 -4.85417,-3.40399 -7.82492,-3.40399 h -84.75765 c -1.53312,0 -2.91293,-0.56097 -4.46329,-2.0213 -1.40016,-1.41032 -1.97088,-2.77949 -1.97088,-4.56404 v -50.31578 c 0,-1.79598 0.55446,-3.08408 1.94158,-4.39413 l 0.0254,-0.0234 0.0234,-0.0254 c 1.43558,-1.43558 2.77368,-1.99201 4.44376,-1.99201 h 50.6159 c 2.91199,0 5.65624,-1.23807 7.81125,-3.3825 2.25183,-2.14463 3.57258,-4.90685 3.57258,-7.85281 V 93.513049 c 0,-2.864812 -1.35349,-5.539026 -3.60188,-7.573535 -2.15109,-2.128556 -4.88162,-3.361025 -7.78195,-3.361025 h -50.6159 c -1.52292,0 -2.89618,-0.559223 -4.43399,-1.997867 -1.42685,-1.524994 -2.00018,-2.93495 -2.00018,-4.585524 V 59.521975 c 0,-1.670068 0.55482,-3.007378 1.99041,-4.442959 l 0.0234,-0.02344 0.0234,-0.02344 c 1.44599,-1.526322 2.76159,-2.097467 4.39688,-2.097467 h 84.75765 c 2.80291,0 5.46283,-1.164507 7.61006,-3.181353 2.28256,-2.053467 3.62532,-4.806836 3.62532,-7.753207 V 25.37857 c 0,-2.840771 -1.25231,-5.522443 -3.38116,-7.661418 -2.14436,-2.250597 -4.90916,-3.573896 -7.85422,-3.573896 z m 0,4.800348 h 152.74425 c 1.63528,0 2.95284,0.569192 4.39883,2.095514 l 0.0215,0.02344 0.0234,0.02344 c 1.4513,1.451294 1.99236,2.750803 1.99236,4.292581 v 16.621548 c 0,1.635289 -0.5491,2.862268 -2.0451,4.200793 l -0.0254,0.02148 -0.0234,0.02344 c -1.44214,1.362023 -2.76404,1.890454 -4.34218,1.890454 h -84.75765 c -2.94506,0 -5.70791,1.321351 -7.85227,3.571944 -2.14444,2.155 -3.38116,4.901742 -3.38116,7.813748 v 16.473123 c 0,2.922225 1.22235,5.690926 3.35186,7.938737 l 0.0449,0.04687 0.0469,0.04492 c 2.23254,2.115049 4.9389,3.353213 7.78976,3.353213 h 50.6159 c 1.67006,0 3.00817,0.556424 4.44376,1.992008 l 0.0469,0.04687 0.0488,0.04492 c 1.51343,1.354116 2.0451,2.544998 2.0451,4.050415 v 16.623498 c 0,1.63529 -0.56956,2.9501 -2.09589,4.39609 l -0.0234,0.0234 -0.0215,0.0215 c -1.43559,1.43557 -2.7737,1.99396 -4.44376,1.99396 h -50.6159 c -2.90966,0 -5.64922,1.23539 -7.80344,3.37665 -2.19239,2.08197 -3.42999,4.87317 -3.42999,7.85866 v 50.31578 c 0,2.99596 1.22463,5.81346 3.39874,7.98756 l 0.0215,0.0215 0.0234,0.0234 c 2.23254,2.11505 4.93891,3.35322 7.78976,3.35322 h 84.75765 c 1.79598,0 3.08488,0.55607 4.39492,1.94318 l 0.0469,0.0488 0.0508,0.0469 c 1.38711,1.31004 1.94353,2.59813 1.94353,4.39413 v 16.3247 c 0,1.76125 -0.58641,3.1131 -2.09394,4.54256 -1.44214,1.36203 -2.76405,1.89045 -4.34218,1.89045 H 339.97402 c -1.92557,0 -3.35444,-0.57245 -4.73089,-1.85139 -1.29296,-1.39069 -1.85173,-2.77705 -1.85173,-4.58162 V 25.37857 c 0,-1.693781 0.54357,-3.048512 1.87126,-4.464441 1.39477,-1.383495 2.80465,-1.970525 4.71136,-1.970525 z M 316.5891,32.57714 a 4.8004332,4.7995673 0 0 1 4.79926,4.800348 4.8004332,4.7995673 0 0 1 -4.79926,4.798395 4.8004332,4.7995673 0 0 1 -4.80121,-4.798395 4.8004332,4.7995673 0 0 1 4.80121,-4.800348 z m 164.12808,198.1208 a 4.8004332,4.7995673 0 0 1 4.79926,4.80035 4.8004332,4.7995673 0 0 1 -4.79926,4.79839 4.8004332,4.7995673 0 0 1 -4.80121,-4.79839 4.8004332,4.7995673 0 0 1 4.80121,-4.80035 z"
         transform="scale(0.99990981,1.0000902)" />
    </g>
  </g>
</svg>
