<?xml version="1.0" encoding="UTF-8" standalone="no"?>
<!-- Created with Inkscape (http://www.inkscape.org/) -->

<svg
   width="2.5364168in"
   height="2.4306843in"
   viewBox="0 0 243.49601 233.3457"
   version="1.1"
   id="svg1"
   inkscape:version="1.3.2 (091e20e, 2023-11-25, custom)"
   sodipodi:docname="Drawing.svg"
   xmlns:inkscape="http://www.inkscape.org/namespaces/inkscape"
   xmlns:sodipodi="http://sodipodi.sourceforge.net/DTD/sodipodi-0.dtd"
   xmlns="http://www.w3.org/2000/svg"
   xmlns:svg="http://www.w3.org/2000/svg">
  <sodipodi:namedview
     id="namedview1"
     pagecolor="#ffffff"
     bordercolor="#000000"
     borderopacity="0.25"
     inkscape:showpageshadow="2"
     inkscape:pageopacity="0.0"
     inkscape:pagecheckerboard="0"
     inkscape:deskcolor="#d1d1d1"
     inkscape:document-units="in"
     inkscape:zoom="0.5"
     inkscape:cx="469"
     inkscape:cy="371"
     inkscape:window-width="1366"
     inkscape:window-height="697"
     inkscape:window-x="-8"
     inkscape:window-y="-8"
     inkscape:window-maximized="1"
     inkscape:current-layer="layer4" />
  <defs
     id="defs1" />
  <g
     inkscape:label="Letters_stroke"
     inkscape:groupmode="layer"
     id="layer1"
     style="display:inline;opacity:0.75"
     transform="translate(-294.47855,-572.38281)">
    <g
       inkscape:groupmode="layer"
       id="layer6"
       inkscape:label="MT">
      <path
         id="text14"
         style="color:#000000;-inkscape-font-specification:'LoRes 9 Plus OT';fill:#000000;-inkscape-stroke:none"
         inkscape:label="M"
         d="m 305.85664,572.39523 v 24.00052 c -3.07171,0 -5.94484,1.20877 -8.13458,3.39852 l -0.0254,0.0254 -0.0234,0.0254 c -2.04745,2.1679 -3.2011,4.89992 -3.2011,7.78728 V 794.5114 c 0,2.96255 1.13841,5.75365 3.2011,7.93767 l 0.0469,0.0488 0.0508,0.0469 c 2.20016,2.07793 5.04605,3.20124 8.08576,3.20124 h 16.17543 c 3.02598,0 5.84301,-1.13194 7.95296,-3.22663 2.20927,-2.0983 3.42961,-4.9469 3.42961,-8.00799 v -84.45496 c 0,-1.79585 0.5563,-3.08465 1.94332,-4.39462 l 0.0254,-0.0234 0.0254,-0.0254 c 1.43549,-1.43549 2.77136,-1.99223 4.44131,-1.99223 h 16.32191 c 1.8292,0 3.14354,0.54602 4.44131,1.84379 l 0.0254,0.0234 0.0254,0.0234 c 1.36994,1.29383 1.94136,2.62533 1.94136,4.54502 v 16.32262 c 0,2.85078 1.23847,5.55675 3.35345,7.78924 l 0.0234,0.0234 0.0215,0.0234 c 2.15831,2.15833 4.91557,3.39851 7.83772,3.39851 h 50.61413 c 2.9105,0 5.65202,-1.23655 7.80647,-3.37898 2.25303,-2.14483 3.57805,-4.90886 3.57805,-7.85564 v -50.61438 c 0,-1.57802 0.51072,-2.81163 1.84176,-4.14266 l 0.0234,-0.0254 0.0234,-0.0254 c 1.3261,-1.4041 2.57606,-1.94144 4.246,-1.94144 h 16.62074 c 1.57803,0 2.89964,0.52677 4.3417,1.88871 l 0.0234,0.0234 0.0234,0.0215 c 1.49591,1.33845 2.04683,2.56611 2.04683,4.20126 v 94.7462 h -23.99947 v 24.00052 h 23.99947 c 0,2.96255 1.13647,5.75365 3.19915,7.93767 l 0.0234,0.0234 0.0254,0.0254 c 2.11303,2.11303 4.94645,3.24812 7.98616,3.24812 h 50.31336 c 3.02748,0 5.84656,-1.1319 7.95686,-3.22859 2.20797,-2.09811 3.42766,-4.94588 3.42766,-8.00603 V 607.63233 c 0,-2.84018 -1.25273,-5.52161 -3.38079,-7.66033 -2.16001,-2.26701 -4.98623,-3.57625 -8.00373,-3.57625 h -50.31336 c -2.99589,0 -5.81212,1.22448 -7.98616,3.39852 l -0.0254,0.0254 -0.0234,0.0254 c -2.04744,2.1679 -3.19915,4.89992 -3.19915,7.78728 v 16.62145 c 0,1.53095 -0.54401,2.82471 -1.97261,4.26377 -1.41536,1.3267 -2.76965,1.87113 -4.46279,1.87113 h -16.62074 c -2.88714,0 -5.59959,1.34465 -7.73225,3.59578 h -0.002 v 0.002 c -2.04745,2.1679 -3.20111,4.89992 -3.20111,7.78728 v 16.47302 c 0,1.63517 -0.58818,3.03755 -2.14253,4.59189 -1.43549,1.43549 -2.77136,1.99223 -4.44131,1.99223 h -16.47425 c -1.64996,0 -3.05952,-0.57423 -4.58388,-2.00004 -1.42584,-1.52439 -1.99996,-2.93411 -1.99996,-4.58408 v -16.47302 c 0,-2.96255 -1.13842,-5.75365 -3.2011,-7.93767 -2.06807,-2.18972 -4.81206,-3.44734 -7.73421,-3.44734 H 373.8415 c -1.56777,0 -2.96796,-0.54393 -4.50967,-1.9141 -1.38575,-1.31741 -1.92574,-2.56067 -1.92574,-4.2208 V 607.6324 c 0,-2.82655 -1.24598,-5.49346 -3.3554,-7.62712 -2.0674,-2.28587 -4.87015,-3.60946 -7.87873,-3.60946 H 329.85612 V 572.3953 Z m 11.99974,7.19938 a 4.799896,4.8001044 0 0 1 4.79873,4.80088 4.799896,4.8001044 0 0 1 -4.79873,4.79894 4.799896,4.8001044 0 0 1 -4.80067,-4.79894 4.799896,4.8001044 0 0 1 4.80067,-4.80088 z m -11.99974,21.60203 h 50.31532 c 1.76254,0 3.02862,0.56649 4.35147,2.04497 l 0.043,0.0508 0.0469,0.0469 c 1.4512,1.45121 1.99214,2.7514 1.99214,4.29307 v 16.62145 c 0,2.92215 1.25943,5.66649 3.44915,7.73454 l 0.0234,0.0215 0.0234,0.0215 c 2.23979,2.00402 4.92565,3.15827 7.74007,3.15827 h 16.62073 c 1.66995,0 2.91795,0.53931 4.24405,1.94341 1.33147,1.40979 1.89058,2.81151 1.89058,4.64072 v 16.47302 c 0,2.92215 1.22401,5.69187 3.35345,7.93962 l 0.0449,0.0469 0.0469,0.0449 c 2.24774,2.12944 5.01909,3.35359 7.94123,3.35359 h 16.4723 c 2.92215,0 5.67744,-1.24019 7.83577,-3.39851 2.23913,-2.23913 3.54875,-5.02957 3.54875,-7.9865 v -16.47302 c 0,-1.70331 0.54245,-3.06376 1.88668,-4.48838 1.46117,-1.54233 2.74266,-2.09575 4.24795,-2.09575 h 16.62074 c 2.88736,0 5.61905,-1.15378 7.78694,-3.20124 l 0.0254,-0.0234 0.0234,-0.0234 c 2.14261,-2.14262 3.39837,-4.8369 3.39837,-7.68767 v -16.62145 c 0,-1.69312 0.54437,-3.04763 1.87105,-4.46299 1.41022,-1.40005 2.77993,-1.9727 4.56436,-1.9727 h 50.31336 c 1.76254,0 3.11613,0.58563 4.54677,2.09575 l 0.0234,0.0234 0.0234,0.0234 c 1.45121,1.45121 1.99214,2.7514 1.99214,4.29307 v 186.87905 c 0,1.9197 -0.57338,3.24924 -1.94332,4.54307 l -0.0254,0.0234 -0.0234,0.0254 c -1.28113,1.28113 -2.64195,1.84183 -4.59365,1.84183 h -50.31336 c -1.9389,0 -3.29058,-0.56087 -4.56436,-1.82425 -1.31119,-1.39973 -1.87105,-2.79323 -1.87105,-4.60948 V 675.76662 c 0,-2.94538 -1.34177,-5.69892 -3.62297,-7.75212 -2.14774,-2.01869 -4.80689,-3.18367 -7.61116,-3.18367 H 441.9747 c -2.91143,0 -5.64339,1.25294 -7.70881,3.42781 -2.04675,2.05936 -3.2265,4.70564 -3.2265,7.50798 v 50.61242 c 0,1.63516 -0.56942,2.95068 -2.09565,4.39658 l -0.0234,0.0215 -0.0234,0.0234 c -1.43549,1.43549 -2.77136,1.99223 -4.44131,1.99223 H 373.8415 c -1.66014,0 -2.99196,-0.55785 -4.41788,-1.97466 -1.45765,-1.54876 -2.01753,-2.9273 -2.01753,-4.45908 v -16.32262 c 0,-3.05865 -1.21976,-5.90624 -3.42571,-8.00408 -2.09362,-2.08144 -4.85698,-3.23053 -7.80842,-3.23053 h -16.32191 c -2.91103,0 -5.6538,1.23583 -7.80843,3.37897 -2.18978,2.08152 -3.4257,4.87209 -3.4257,7.85564 v 84.45496 c 0,1.9197 -0.57337,3.24924 -1.94332,4.54307 l -0.0254,0.0234 -0.0234,0.0254 c -1.28114,1.28113 -2.64001,1.84183 -4.5917,1.84183 h -16.17543 c -1.92585,0 -3.35567,-0.5741 -4.73232,-1.85355 -1.29198,-1.39016 -1.85152,-2.7763 -1.85152,-4.58018 V 607.63233 c 0,-1.69223 0.54394,-3.04649 1.8691,-4.46104 1.39608,-1.38647 2.80622,-1.97465 4.71474,-1.97465 z m 147.17454,176.5136 a 4.799896,4.8001044 0 0 1 4.79873,4.80088 4.799896,4.8001044 0 0 1 -4.79873,4.79893 4.799896,4.8001044 0 0 1 -4.80067,-4.79893 4.799896,4.8001044 0 0 1 4.80067,-4.80088 z"
         transform="scale(1.0000217,0.9999783)" />
    </g>
  </g>
</svg>
