<?xml version="1.0" encoding="UTF-8" standalone="no"?>
<!-- Created with Inkscape (http://www.inkscape.org/) -->

<svg
   width="2.4306221in"
   height="2.4310105in"
   viewBox="0 0 233.33972 233.37701"
   version="1.1"
   id="svg1"
   inkscape:version="1.3.2 (091e20e, 2023-11-25, custom)"
   sodipodi:docname="Drawing.svg"
   xmlns:inkscape="http://www.inkscape.org/namespaces/inkscape"
   xmlns:sodipodi="http://sodipodi.sourceforge.net/DTD/sodipodi-0.dtd"
   xmlns="http://www.w3.org/2000/svg"
   xmlns:svg="http://www.w3.org/2000/svg">
  <sodipodi:namedview
     id="namedview1"
     pagecolor="#ffffff"
     bordercolor="#000000"
     borderopacity="0.25"
     inkscape:showpageshadow="2"
     inkscape:pageopacity="0.0"
     inkscape:pagecheckerboard="0"
     inkscape:deskcolor="#d1d1d1"
     inkscape:document-units="in"
     inkscape:zoom="0.5"
     inkscape:cx="469"
     inkscape:cy="371"
     inkscape:window-width="1366"
     inkscape:window-height="697"
     inkscape:window-x="-8"
     inkscape:window-y="-8"
     inkscape:window-maximized="1"
     inkscape:current-layer="layer4" />
  <defs
     id="defs1" />
  <g
     inkscape:label="Letters_stroke"
     inkscape:groupmode="layer"
     id="layer1"
     style="display:inline;opacity:0.75"
     transform="translate(-748.62891,-281.31055)">
    <g
       inkscape:groupmode="layer"
       id="layer5"
       inkscape:label="ETRN">
      <path
         id="text9"
         style="color:#000000;-inkscape-font-specification:'LoRes 9 Plus OT';fill:#000000;-inkscape-stroke:none"
         inkscape:label="N"
         d="m 760.07921,281.28557 v 23.99787 c -3.07181,0 -5.9437,1.20831 -8.13353,3.39813 l -0.0254,0.0254 -0.0234,0.0254 c -2.04752,2.16797 -3.20146,4.89896 -3.20146,7.78642 v 186.8877 c 0,2.96266 1.1387,5.7527 3.20146,7.93679 l 0.0469,0.0508 0.0508,0.0469 c 2.20023,2.07799 5.04489,3.20089 8.0847,3.20089 h 16.17527 c 3.02758,0 5.84541,-1.13147 7.95578,-3.22823 2.20806,-2.09819 3.42804,-4.94685 3.42804,-8.0071 V 384.65725 c 0,-1.5418 0.52226,-2.75498 1.94353,-4.09729 l 0.0254,-0.0234 0.0234,-0.0254 c 1.43558,-1.43559 2.77366,-1.99201 4.44375,-1.99201 h 16.32176 c 1.82934,0 3.1459,0.54573 4.44376,1.84359 l 0.0234,0.0234 0.0254,0.0234 c 1.40421,1.32619 1.94353,2.57563 1.94353,4.24572 v 50.61659 c 0,2.85087 1.23875,5.55581 3.35381,7.78838 l 0.0215,0.0234 0.0234,0.0234 c 2.1584,2.15839 4.9144,3.39813 7.83663,3.39813 h 16.62257 c 1.5418,0 2.75179,0.52191 4.09412,1.94319 l 0.0234,0.0254 0.0234,0.0234 c 1.41987,1.41988 1.99431,2.79929 1.99431,4.5953 v 50.31389 c 0,2.99599 1.22462,5.81346 3.39874,7.98757 l 0.0234,0.0234 0.0254,0.0234 c 2.18409,2.06276 4.97554,3.20089 7.9382,3.20089 h 84.60712 c 2.8145,0 5.48751,-1.1686 7.63935,-3.20089 l 0.002,-0.002 c 2.28343,-2.16325 3.59407,-5.00317 3.59407,-8.03249 h 24.00213 V 479.4086 H 958.05383 V 316.51877 c 0,-2.83937 -1.25034,-5.51906 -3.37726,-7.65753 -2.14492,-2.25311 -4.91124,-3.5778 -7.85812,-3.5778 h -16.32176 c -2.99598,0 -5.81293,1.22402 -7.98704,3.39813 l -0.0234,0.0254 -0.0234,0.0254 c -2.04752,2.16797 -3.20145,4.89896 -3.20145,7.78642 v 118.75312 c 0,1.53269 -0.56227,2.91073 -2.02167,4.46055 -1.42468,1.41431 -2.75359,1.97443 -4.4125,1.97443 h -16.62452 c -1.53108,0 -2.82489,-0.54378 -4.26405,-1.97248 -1.3268,-1.41546 -1.86931,-2.76922 -1.86931,-4.4625 V 384.6553 c 0,-2.86622 -1.35541,-5.54257 -3.60579,-7.57746 -2.15079,-2.12733 -4.88053,-3.35907 -7.77998,-3.35907 h -16.47217 c -1.6501,0 -3.05991,-0.57392 -4.58439,-1.99983 -1.42593,-1.52448 -2.00213,-2.93347 -2.00213,-4.58357 v -50.6166 c 0,-2.80293 -1.16507,-5.46146 -3.18193,-7.6087 -2.05347,-2.28257 -4.80625,-3.62663 -7.75264,-3.62663 h -60.60889 v -23.99787 z m 12.00107,7.19858 a 4.8004265,4.799574 0 0 1 4.79925,4.80035 4.8004265,4.799574 0 0 1 -4.79925,4.79841 4.8004265,4.799574 0 0 1 -4.80121,-4.79841 4.8004265,4.799574 0 0 1 4.80121,-4.80035 z m -12.00107,21.59964 h 84.61103 c 1.63531,0 2.86107,0.54872 4.19959,2.04474 l 0.0215,0.0254 0.0234,0.0234 c 1.36203,1.44216 1.89079,2.76325 1.89079,4.34141 v 50.6166 c 0,2.92223 1.22235,5.69092 3.35186,7.93875 l 0.0449,0.0469 0.0469,0.0449 c 2.24783,2.12952 5.01987,3.35322 7.94211,3.35322 h 16.47217 c 1.67008,0 3.00621,0.55642 4.4418,1.99201 l 0.0469,0.0469 0.0508,0.0449 c 1.51344,1.35413 2.0451,2.54695 2.0451,4.05238 v 50.61659 c 0,2.88746 1.15393,5.61845 3.20146,7.78642 l 0.0234,0.0254 0.0254,0.0234 c 2.14269,2.14268 4.83342,3.39813 7.68428,3.39813 h 16.62257 c 2.92224,0 5.67824,-1.23974 7.83663,-3.39813 l 0.0234,-0.0234 0.0215,-0.0234 c 2.11506,-2.23257 3.35381,-4.93751 3.35381,-7.78838 V 316.51877 c 0,-1.69326 0.54448,-3.04705 1.87126,-4.4625 1.41032,-1.40014 2.78028,-1.97248 4.56486,-1.97248 h 16.32176 c 1.6353,0 2.95282,0.56918 4.39883,2.09552 l 0.0215,0.0234 0.0234,0.0234 c 1.45131,1.45131 1.99236,2.7508 1.99236,4.29259 v 186.8877 c 0,1.76267 -0.58566,3.11769 -2.09589,4.54842 -1.44038,1.35884 -2.76374,1.88655 -4.34023,1.88655 h -84.60712 c -1.81792,0 -3.21463,-0.55921 -4.61564,-1.87288 -1.39763,-1.40909 -1.97088,-2.77897 -1.97088,-4.56209 v -50.31389 c 0,-2.98508 -1.22186,-5.78937 -3.38116,-7.96023 -2.0485,-2.15532 -4.71505,-3.42548 -7.55341,-3.42548 h -16.62257 c -1.66028,0 -2.99039,-0.55948 -4.4164,-1.97639 -1.45776,-1.54889 -2.01776,-2.92667 -2.01776,-4.45859 V 384.6553 c 0,-2.90955 -1.25387,-5.6394 -3.42609,-7.7044 -2.09368,-2.08152 -4.85971,-3.23213 -7.81124,-3.23213 h -16.32176 c -2.91059,0 -5.65281,1.23612 -7.80733,3.3786 -2.1573,2.0489 -3.42804,4.71816 -3.42804,7.55793 v 118.75117 c 0,1.91984 -0.57349,3.25059 -1.94353,4.54452 l -0.0254,0.0234 -0.0254,0.0254 c -1.28122,1.28123 -2.63841,1.84163 -4.59025,1.84163 h -16.17527 c -1.92599,0 -3.35414,-0.57381 -4.73089,-1.85335 -1.29208,-1.39025 -1.85172,-2.7776 -1.85172,-4.58162 v -186.8877 c 0,-1.6938 0.54355,-3.04851 1.87126,-4.46445 1.39478,-1.38351 2.80464,-1.97053 4.71135,-1.97053 z m 209.97568,176.52339 a 4.8004265,4.799574 0 0 1 4.79926,4.80035 4.8004265,4.799574 0 0 1 -4.79926,4.79841 4.8004265,4.799574 0 0 1 -4.80121,-4.79841 4.8004265,4.799574 0 0 1 4.80121,-4.80035 z"
         transform="scale(0.9999112,1.0000888)" />
    </g>
  </g>
</svg>
