<?xml version="1.0" encoding="UTF-8" standalone="no"?>
<!-- Created with Inkscape (http://www.inkscape.org/) -->

<svg
   width="2.6806011in"
   height="2.1809895in"
   viewBox="0 0 257.33771 209.37499"
   version="1.1"
   id="svg1"
   inkscape:version="1.3.2 (091e20e, 2023-11-25, custom)"
   sodipodi:docname="Drawing.svg"
   xmlns:inkscape="http://www.inkscape.org/namespaces/inkscape"
   xmlns:sodipodi="http://sodipodi.sourceforge.net/DTD/sodipodi-0.dtd"
   xmlns="http://www.w3.org/2000/svg"
   xmlns:svg="http://www.w3.org/2000/svg">
  <sodipodi:namedview
     id="namedview1"
     pagecolor="#ffffff"
     bordercolor="#000000"
     borderopacity="0.25"
     inkscape:showpageshadow="2"
     inkscape:pageopacity="0.0"
     inkscape:pagecheckerboard="0"
     inkscape:deskcolor="#d1d1d1"
     inkscape:document-units="in"
     inkscape:zoom="0.5"
     inkscape:cx="469"
     inkscape:cy="371"
     inkscape:window-width="1366"
     inkscape:window-height="697"
     inkscape:window-x="-8"
     inkscape:window-y="-8"
     inkscape:window-maximized="1"
     inkscape:current-layer="layer4" />
  <defs
     id="defs1" />
  <g
     inkscape:label="Letters_stroke"
     inkscape:groupmode="layer"
     id="layer1"
     style="display:inline;opacity:0.75"
     transform="translate(-528.09186,-14.144531)">
    <g
       inkscape:groupmode="layer"
       id="layer4"
       inkscape:label="BERT"
       style="display:inline">
      <path
         id="text6"
         style="color:#000000;-inkscape-font-specification:'LoRes 9 Plus OT';fill:#000000;stroke-linecap:square;-inkscape-stroke:none"
         inkscape:label="R"
         d="m 563.52543,14.143256 c -3.07179,0 -5.94763,1.208316 -8.13745,3.398131 l -0.0234,0.02539 -0.0234,0.02343 c -2.04753,2.167956 -3.1995,4.900917 -3.19951,7.78836 h -24.00216 v 23.997836 h 24.00216 V 212.26601 c 0,2.96264 1.13675,5.75271 3.19951,7.93678 l 0.0469,0.0488 0.0488,0.0469 c 2.20022,2.07799 5.04883,3.20088 8.08862,3.20088 h 50.31704 c 2.95058,0 5.71196,-1.14794 7.80539,-3.22822 2.20804,-2.09817 3.42805,-4.94491 3.42805,-8.00514 v -50.31773 c 0,-1.91982 0.57349,-3.25059 1.94353,-4.54451 l 0.0254,-0.0234 0.0234,-0.0234 c 1.43558,-1.43558 2.77369,-1.99396 4.44376,-1.99396 h 16.62064 c 1.54179,0 2.75376,0.52387 4.09608,1.94514 l 0.0234,0.0234 0.0254,0.0254 c 1.41987,1.41988 1.99237,2.79735 1.99237,4.59334 v 16.17237 c 0,2.99596 1.22464,5.81346 3.39874,7.98756 2.1741,2.1741 4.98912,3.39813 7.9851,3.39813 h 16.47414 c 1.796,0 3.17039,0.57214 4.59026,1.992 l 0.0254,0.0234 0.0234,0.0234 c 1.38711,1.31004 1.94353,2.59813 1.94353,4.39413 v 16.3247 c 0,2.96264 1.1387,5.75271 3.20146,7.93678 l 0.0234,0.0234 0.0254,0.0254 c 2.0798,2.07983 4.7988,3.24775 7.68624,3.24775 h 50.61394 c 2.81448,0 5.48753,-1.16859 7.63936,-3.20088 h 0.002 v -0.002 c 2.28343,-2.16324 3.59603,-5.00122 3.59603,-8.03053 v -16.3247 c 0,-2.97262 -1.23383,-5.74635 -3.40851,-7.82547 -2.07911,-2.17467 -4.85623,-3.40984 -7.82883,-3.40984 h -16.32179 c -1.8055,0 -3.19299,-0.55895 -4.5844,-1.85335 -1.2781,-1.37608 -1.85173,-2.8051 -1.85173,-4.73004 v -50.31578 c 0,-1.82932 0.54606,-3.1451 1.84392,-4.44296 l 0.0234,-0.0234 0.0234,-0.0254 c 1.29392,-1.37003 2.62551,-1.94319 4.54533,-1.94319 h 16.32179 c 2.83935,0 5.52044,-1.25364 7.65889,-3.38055 2.2531,-2.14491 3.57845,-4.9079 3.57845,-7.85476 h 24.00216 V 86.138715 h -24.00216 v -26.61674 c 0,-2.91057 -1.23674,-5.65532 -3.37921,-7.809843 -2.14491,-2.253101 -4.91128,-3.575849 -7.85813,-3.575849 h -16.32179 c -1.81693,0 -3.21148,-0.558769 -4.61174,-1.870925 -1.29471,-1.304938 -1.82439,-2.572083 -1.82439,-4.26524 V 25.37857 c 0,-2.839359 -1.25035,-5.519056 -3.37725,-7.657512 -2.14491,-2.2531 -4.90931,-3.577802 -7.85618,-3.577802 z m 0,4.800348 h 152.74425 c 1.63529,0 2.95089,0.569192 4.39688,2.095514 l 0.0234,0.02344 0.0234,0.02344 c 1.45129,1.451293 1.99237,2.750801 1.99237,4.292581 v 16.621548 c 0,2.887443 1.16656,5.606992 3.24638,7.686806 l 0.0234,0.02344 0.0254,0.02343 c 2.18409,2.062748 4.97559,3.200883 7.93822,3.200883 h 16.32179 c 1.63528,0 2.95284,0.571145 4.39883,2.097467 l 0.0215,0.02344 0.0234,0.02344 c 1.43557,1.43558 1.99236,2.772888 1.99236,4.442959 v 50.614578 c 0,1.63529 -0.56957,2.9501 -2.09589,4.39609 l -0.0234,0.0234 -0.0234,0.0215 c -1.4513,1.45128 -2.75158,1.99396 -4.29335,1.99396 h -16.32179 c -3.06171,0 -5.91203,1.22125 -8.01049,3.43133 -2.07779,2.09297 -3.22294,4.85525 -3.22294,7.80398 v 50.31578 c 0,3.03979 1.12152,5.88694 3.1995,8.08716 l 0.0469,0.0508 0.0488,0.0469 c 2.18409,2.06275 4.97559,3.20089 7.93822,3.20089 h 16.32179 c 1.79598,0 3.08683,0.55607 4.39688,1.94318 l 0.0469,0.0488 0.0488,0.0469 c 1.38711,1.31004 1.94353,2.59813 1.94353,4.39413 v 16.3247 c 0,1.76125 -0.58641,3.1131 -2.09394,4.54256 -1.44214,1.36203 -2.76405,1.89045 -4.34218,1.89045 h -50.61394 c -1.69165,0 -2.9584,-0.5279 -4.26211,-1.82014 -1.31367,-1.40101 -1.87321,-2.79497 -1.87321,-4.61287 v -16.3247 c 0,-2.98511 -1.23618,-5.77481 -3.42805,-7.85671 -2.17044,-2.15755 -4.97397,-3.37665 -7.95775,-3.37665 h -16.47218 c -1.796,0 -3.17235,-0.57409 -4.59222,-1.99396 -1.41986,-1.41987 -1.99236,-2.79541 -1.99236,-4.59138 v -16.17433 c 0,-2.98505 -1.22188,-5.78742 -3.38117,-7.95826 -2.04849,-2.1553 -4.71703,-3.42548 -7.55537,-3.42548 h -16.62064 c -2.90967,0 -5.65312,1.23539 -7.80734,3.37665 -2.20805,2.09818 -3.43,4.94687 -3.43,8.00709 v 50.31773 c 0,1.91982 -0.57349,3.24864 -1.94353,4.54256 l -0.0234,0.0254 -0.0254,0.0234 c -1.29786,1.29786 -2.61055,1.84163 -4.43986,1.84163 h -50.31704 c -1.92756,0 -3.35896,-0.5735 -4.73675,-1.8553 -1.29059,-1.3895 -1.84978,-2.77467 -1.84978,-4.57771 V 25.37857 c 0,-1.692346 0.54408,-3.045907 1.86931,-4.460535 1.39618,-1.386581 2.80857,-1.974431 4.71722,-1.974431 z M 540.14051,32.57714 a 4.8004332,4.7995673 0 0 1 4.79926,4.800348 4.8004332,4.7995673 0 0 1 -4.79926,4.798395 4.8004332,4.7995673 0 0 1 -4.80121,-4.798395 4.8004332,4.7995673 0 0 1 4.80121,-4.800348 z m 91.37152,15.559143 c -2.94686,0 -5.71323,1.322748 -7.85813,3.575849 -2.14248,2.154523 -3.37921,4.899273 -3.37921,7.809843 v 50.614575 c 0,2.92223 1.24036,5.67684 3.39875,7.83523 l 0.0234,0.0234 0.0234,0.0215 c 2.23255,2.11505 4.94087,3.35516 7.79171,3.35516 h 50.61394 c 2.92223,0 5.67826,-1.24169 7.83665,-3.40008 2.22432,-2.22432 3.54915,-4.94802 3.54915,-7.83523 V 59.521975 c 0,-2.935446 -1.31982,-5.689924 -3.55696,-7.831325 -2.1414,-2.237137 -4.8934,-3.554367 -7.82884,-3.554367 z m 0,4.798395 h 50.61394 c 1.6353,0 2.9509,0.571145 4.39688,2.097467 l 0.0449,0.04687 0.0469,0.04492 c 1.52633,1.44599 2.09589,2.762753 2.09589,4.398041 v 50.614574 c 0,1.50542 -0.57345,2.87168 -2.14277,4.44101 -1.43558,1.43556 -2.76977,1.99396 -4.43985,1.99396 h -50.6159 c -1.5319,0 -2.91247,-0.5616 -4.46134,-2.01935 -1.41688,-1.42601 -1.97478,-2.75536 -1.97478,-4.41562 V 59.521975 c 0,-1.670071 0.55679,-3.007379 1.99236,-4.442959 l 0.0234,-0.02344 0.0215,-0.02344 c 1.44599,-1.526322 2.76355,-2.097467 4.39883,-2.097467 z m 141.98742,40.402606 a 4.8004332,4.7995673 0 0 1 4.79926,4.800348 4.8004332,4.7995673 0 0 1 -4.79926,4.798398 4.8004332,4.7995673 0 0 1 -4.80121,-4.798398 4.8004332,4.7995673 0 0 1 4.80121,-4.800348 z"
         transform="scale(0.99990981,1.0000902)" />
    </g>
  </g>
</svg>
