<?xml version="1.0" encoding="UTF-8" standalone="no"?>
<!-- Created with Inkscape (http://www.inkscape.org/) -->

<svg
   width="2.4306221in"
   height="2.4310105in"
   viewBox="0 0 233.33972 233.37701"
   version="1.1"
   id="svg1"
   inkscape:version="1.3.2 (091e20e, 2023-11-25, custom)"
   sodipodi:docname="Drawing.svg"
   xmlns:inkscape="http://www.inkscape.org/namespaces/inkscape"
   xmlns:sodipodi="http://sodipodi.sourceforge.net/DTD/sodipodi-0.dtd"
   xmlns="http://www.w3.org/2000/svg"
   xmlns:svg="http://www.w3.org/2000/svg">
  <sodipodi:namedview
     id="namedview1"
     pagecolor="#ffffff"
     bordercolor="#000000"
     borderopacity="0.25"
     inkscape:showpageshadow="2"
     inkscape:pageopacity="0.0"
     inkscape:pagecheckerboard="0"
     inkscape:deskcolor="#d1d1d1"
     inkscape:document-units="in"
     inkscape:zoom="0.70710678"
     inkscape:cx="662.55905"
     inkscape:cy="371.23106"
     inkscape:window-width="1536"
     inkscape:window-height="793"
     inkscape:window-x="1912"
     inkscape:window-y="-8"
     inkscape:window-maximized="1"
     inkscape:current-layer="layer5" />
  <defs
     id="defs1" />
  <g
     inkscape:label="Letters_stroke"
     inkscape:groupmode="layer"
     id="layer1"
     style="display:inline;opacity:0.75"
     transform="translate(-467.10742,-281.31055)">
    <g
       inkscape:groupmode="layer"
       id="layer5"
       inkscape:label="ETRN">
      <path
         id="text10"
         style="color:#000000;-inkscape-font-specification:'LoRes 9 Plus OT';fill:#000000;-inkscape-stroke:none"
         inkscape:label="R"
         d="m 631.27871,281.28557 v 23.99787 H 502.53486 c -3.07183,0 -5.94371,1.20831 -8.13354,3.39813 l -0.0254,0.0254 -0.0234,0.0254 c -2.04753,2.16797 -3.20145,4.89896 -3.20145,7.78642 V 479.4086 H 467.1489 v 23.99787 h 24.00214 c 0,2.96266 1.13869,5.7527 3.20145,7.93679 l 0.0469,0.0508 0.0508,0.0469 c 2.20022,2.07799 5.04487,3.20089 8.0847,3.20089 h 50.31697 c 2.94874,0 5.7124,-1.14654 7.80538,-3.22432 2.2101,-2.09848 3.42999,-4.94927 3.42999,-8.01101 v -50.31389 c 0,-1.91984 0.57348,-3.25253 1.94353,-4.54647 l 0.0234,-0.0234 0.0254,-0.0254 c 1.43559,-1.4356 2.77173,-1.99201 4.44181,-1.99201 h 16.62257 c 1.54179,0 2.75374,0.52191 4.09606,1.94319 l 0.0234,0.0254 0.0234,0.0234 c 1.41988,1.41988 1.99432,2.79929 1.99432,4.5953 v 16.17044 c 0,2.99598 1.22462,5.81345 3.39874,7.98757 2.17411,2.17412 4.9891,3.39813 7.98508,3.39813 h 16.47412 c 1.79601,0 3.17233,0.57409 4.59221,1.99397 l 0.0234,0.0234 0.0254,0.0234 c 1.38712,1.31007 1.94158,2.59814 1.94158,4.39414 v 16.32277 c 0,2.96266 1.1387,5.7527 3.20145,7.93679 l 0.0234,0.0254 0.0234,0.0254 c 2.07983,2.07983 4.80073,3.24776 7.68819,3.24776 h 50.61582 c 2.8145,0 5.48556,-1.1686 7.6374,-3.20089 l 0.002,-0.002 c 2.28344,-2.16325 3.59602,-5.00317 3.59602,-8.03249 V 487.0837 c 0,-2.97078 -1.23243,-5.74483 -3.4046,-7.82352 -2.07946,-2.17671 -4.85668,-3.40986 -7.83077,-3.40986 h -16.32372 c -1.80456,0 -3.1898,-0.55848 -4.58048,-1.8514 -1.28038,-1.37713 -1.85368,-2.80931 -1.85368,-4.7359 v -50.31585 c 0,-1.82934 0.54605,-3.14315 1.84391,-4.44101 l 0.0234,-0.0254 0.0234,-0.0234 c 1.29393,-1.37005 2.62353,-1.94319 4.54337,-1.94319 h 16.32372 c 2.83937,0 5.51846,-1.25169 7.65693,-3.37861 2.25312,-2.14492 3.57844,-4.9118 3.57844,-7.85867 v -50.61465 c 0,-2.91202 -1.23672,-5.65483 -3.38116,-7.80985 -2.14465,-2.25186 -4.90823,-3.57586 -7.85421,-3.57586 h -16.32372 c -1.81695,0 -3.20951,-0.55875 -4.60978,-1.87092 -1.29478,-1.30495 -1.82438,-2.57207 -1.82438,-4.26525 v -16.62157 c 0,-2.83938 -1.25228,-5.51906 -3.37921,-7.65753 -2.14492,-2.25311 -4.90929,-3.5778 -7.85616,-3.5778 v -23.99787 z m 12.00107,7.19858 a 4.8004265,4.799574 0 0 1 4.79925,4.80035 4.8004265,4.799574 0 0 1 -4.79925,4.79841 4.8004265,4.799574 0 0 1 -4.80121,-4.79841 4.8004265,4.799574 0 0 1 4.80121,-4.80035 z m -140.74492,21.59964 h 152.74599 c 1.6353,0 2.95087,0.56918 4.39687,2.09552 l 0.0234,0.0234 0.0215,0.0234 c 1.45129,1.45131 1.99431,2.7508 1.99431,4.29259 v 16.62157 c 0,2.88746 1.16852,5.607 3.24834,7.68682 l 0.0234,0.0254 0.0254,0.0234 c 2.1841,2.06276 4.97361,3.20284 7.93625,3.20284 h 16.32372 c 1.6353,0 2.95087,0.56918 4.39687,2.09552 l 0.0215,0.0234 0.0234,0.0215 c 1.43559,1.43558 1.99236,2.77287 1.99236,4.44296 v 50.61465 c 0,1.6353 -0.56955,2.95205 -2.09589,4.39804 l -0.0234,0.0215 -0.0234,0.0234 c -1.4513,1.45131 -2.7496,1.99201 -4.29139,1.99201 h -16.32372 c -3.05875,0 -5.90476,1.22141 -8.00266,3.42743 -2.08153,2.09368 -3.23076,4.85638 -3.23076,7.8079 v 50.31585 c 0,3.03981 1.12151,5.88889 3.19951,8.08912 l 0.0488,0.0488 0.0488,0.0469 c 2.1841,2.06275 4.97361,3.20088 7.93625,3.20088 h 16.32372 c 1.796,0 3.08486,0.55606 4.39492,1.94319 l 0.0469,0.0508 0.0488,0.0469 c 1.38713,1.31007 1.94353,2.59814 1.94353,4.39414 v 16.32277 c 0,1.76127 -0.58638,3.11504 -2.09393,4.54452 -1.44215,1.36204 -2.76207,1.89045 -4.34023,1.89045 H 638.6582 c -1.69167,0 -2.95837,-0.52788 -4.2621,-1.82015 -1.31367,-1.401 -1.87322,-2.7969 -1.87322,-4.61482 V 487.0837 c 0,-2.98458 -1.23885,-5.77494 -3.42999,-7.85672 -2.17029,-2.15683 -4.97057,-3.37666 -7.95383,-3.37666 H 604.6669 c -1.79601,0 -3.17428,-0.57408 -4.59416,-1.99396 -1.41988,-1.41988 -1.99237,-2.79733 -1.99237,-4.59334 v -16.17044 c 0,-2.98508 -1.22186,-5.78937 -3.38116,-7.96023 -2.04849,-2.15532 -4.717,-3.42548 -7.55535,-3.42548 h -16.62257 c -2.91059,0 -5.6528,1.23611 -7.80734,3.37861 -2.20729,2.09807 -3.42608,4.9474 -3.42608,8.0071 v 50.31389 c 0,1.91984 -0.57349,3.25059 -1.94354,4.54452 l -0.0254,0.0234 -0.0234,0.0254 c -1.29786,1.29786 -2.61441,1.84163 -4.44375,1.84163 h -50.31697 c -1.926,0 -3.35609,-0.57381 -4.73284,-1.85335 -1.29208,-1.39025 -1.85173,-2.7776 -1.85173,-4.58162 v -186.8877 c 0,-1.6938 0.54355,-3.04851 1.87126,-4.46445 1.39478,-1.38351 2.80659,-1.97053 4.71331,-1.97053 z m 67.98651,29.19272 c -2.94597,0 -5.70958,1.32401 -7.85422,3.57586 -2.14444,2.15502 -3.3792,4.89783 -3.3792,7.80985 v 50.61465 c 0,2.92224 1.23837,5.68075 3.39678,7.83914 l 0.0234,0.0215 0.0234,0.0234 c 2.23257,2.11506 4.9389,3.35322 7.78976,3.35322 h 50.61777 c 2.92224,0 5.67628,-1.23973 7.83468,-3.39814 2.22433,-2.22431 3.54914,-4.95192 3.54914,-7.83914 V 350.6622 c 0,-2.93547 -1.31978,-5.68796 -3.55695,-7.82938 -2.14141,-2.23715 -4.89142,-3.55633 -7.82687,-3.55633 z m 0,4.80231 h 50.61777 c 1.63531,0 2.95087,0.56918 4.39688,2.09552 l 0.0449,0.0469 0.0469,0.0449 c 1.52634,1.44601 2.09394,2.76078 2.09394,4.39609 v 50.61465 c 0,1.50544 -0.57149,2.87363 -2.14082,4.44296 -1.4356,1.4356 -2.77171,1.99397 -4.4418,1.99397 h -50.61777 c -1.53191,0 -2.91051,-0.5616 -4.45938,-2.01936 -1.41691,-1.42602 -1.97479,-2.7573 -1.97479,-4.41757 v -50.61465 c 0,-1.67009 0.55677,-3.00738 1.99236,-4.44296 l 0.0215,-0.0215 0.0234,-0.0234 c 1.446,-1.52634 2.76158,-2.09552 4.39688,-2.09552 z m -91.3714,142.52836 a 4.8004265,4.799574 0 0 1 4.79925,4.80035 4.8004265,4.799574 0 0 1 -4.79925,4.79841 4.8004265,4.799574 0 0 1 -4.80121,-4.79841 4.8004265,4.799574 0 0 1 4.80121,-4.80035 z"
         transform="scale(0.9999112,1.0000888)" />
    </g>
  </g>
</svg>
