<?xml version="1.0" encoding="UTF-8" standalone="no"?>
<!-- Created with Inkscape (http://www.inkscape.org/) -->

<svg
   width="2.1806233in"
   height="2.1809888in"
   viewBox="0 0 209.33984 209.37492"
   version="1.1"
   id="svg1"
   inkscape:version="1.3.2 (091e20e, 2023-11-25, custom)"
   sodipodi:docname="Drawing.svg"
   xmlns:inkscape="http://www.inkscape.org/namespaces/inkscape"
   xmlns:sodipodi="http://sodipodi.sourceforge.net/DTD/sodipodi-0.dtd"
   xmlns="http://www.w3.org/2000/svg"
   xmlns:svg="http://www.w3.org/2000/svg">
  <sodipodi:namedview
     id="namedview1"
     pagecolor="#ffffff"
     bordercolor="#000000"
     borderopacity="0.25"
     inkscape:showpageshadow="2"
     inkscape:pageopacity="0.0"
     inkscape:pagecheckerboard="0"
     inkscape:deskcolor="#d1d1d1"
     inkscape:document-units="in"
     inkscape:zoom="0.5"
     inkscape:cx="469"
     inkscape:cy="371"
     inkscape:window-width="1366"
     inkscape:window-height="697"
     inkscape:window-x="-8"
     inkscape:window-y="-8"
     inkscape:window-maximized="1"
     inkscape:current-layer="layer4" />
  <defs
     id="defs1" />
  <g
     inkscape:label="Letters_stroke"
     inkscape:groupmode="layer"
     id="layer1"
     style="display:inline;opacity:0.75"
     transform="translate(-775.62115,-14.144531)">
    <g
       inkscape:groupmode="layer"
       id="layer4"
       inkscape:label="BERT"
       style="display:inline">
      <path
         id="text5"
         style="color:#000000;-inkscape-font-specification:'LoRes 9 Plus OT';fill:#000000;stroke-linecap:square;-inkscape-stroke:none"
         inkscape:label="T"
         d="m 786.92644,14.143256 c -2.99597,0 -5.81294,1.224031 -7.98705,3.398131 l -0.0234,0.02539 -0.0234,0.02343 c -2.04751,2.167957 -3.20146,4.900919 -3.20146,7.78836 v 16.621548 c 0,2.814485 1.16919,5.486155 3.20146,7.637983 l 0.0469,0.04882 0.0488,0.04687 c 2.18408,2.062745 4.97557,3.200883 7.93821,3.200883 h 50.31509 c 1.79598,0 3.17235,0.574095 4.59221,1.993961 1.41988,1.419868 1.99236,2.797348 1.99236,4.593336 V 188.26817 H 819.824 v 23.99784 h 24.00216 c 0,2.99597 1.22465,5.81151 3.39875,7.98561 l 0.0254,0.0234 0.0234,0.0234 c 2.16795,2.04752 4.90232,3.20088 7.78977,3.20088 h 50.61394 c 2.81449,0 5.47462,-1.18456 7.53779,-3.24775 2.1741,-2.1741 3.39874,-4.98964 3.39874,-7.98561 V 86.263703 h 24.00216 V 62.265868 h -24.00216 v -2.743893 c 0,-1.670068 0.55678,-3.007378 1.99237,-4.442959 1.55443,-1.554434 2.95496,-2.144338 4.59025,-2.144338 h 50.6159 c 2.8029,0 5.46283,-1.164508 7.61006,-3.181353 2.28256,-2.053467 3.62728,-4.806836 3.62728,-7.753207 V 25.37857 c 0,-2.839356 -1.2523,-5.519057 -3.37921,-7.657512 -2.14491,-2.253102 -4.91128,-3.577802 -7.85813,-3.577802 z m 0,4.800348 h 186.886 c 1.63528,0 2.95283,0.569189 4.39883,2.095514 l 0.0215,0.02344 0.0234,0.02344 c 1.45129,1.451293 1.99236,2.750801 1.99236,4.292581 v 16.621548 c 0,1.635289 -0.5491,2.862268 -2.0451,4.200793 l -0.0254,0.02148 -0.0234,0.02344 c -1.44215,1.362024 -2.76405,1.890454 -4.34219,1.890454 h -50.6159 c -2.957,0 -5.74589,1.307354 -7.98509,3.546555 -2.1584,2.158388 -3.39874,4.916912 -3.39874,7.839137 V 212.26601 c 0,1.79599 -0.5725,3.17151 -1.99237,4.59138 -1.33112,1.33113 -2.56481,1.84163 -4.14295,1.84163 h -50.61394 c -1.69414,0 -3.049,-0.54456 -4.46525,-1.87287 -1.39762,-1.40908 -1.97088,-2.77704 -1.97088,-4.56014 V 59.521975 c 0,-2.995971 -1.22464,-5.813459 -3.39875,-7.987561 -2.1741,-2.174103 -4.99108,-3.398131 -7.98704,-3.398131 h -50.31509 c -1.80607,0 -3.1945,-0.558072 -4.58635,-1.853348 -1.32026,-1.418851 -1.84978,-2.726628 -1.84978,-4.282817 V 25.37857 c 0,-1.693243 0.5445,-3.047049 1.87127,-4.462488 1.41031,-1.400144 2.7803,-1.972478 4.56486,-1.972478 z M 928.615,69.464437 a 4.8004332,4.7995673 0 0 1 4.79926,4.800349 4.8004332,4.7995673 0 0 1 -4.79926,4.798395 4.8004332,4.7995673 0 0 1 -4.80121,-4.798395 4.8004332,4.7995673 0 0 1 4.80121,-4.800349 z M 831.82502,195.46674 a 4.8004332,4.7995673 0 0 1 4.79926,4.80035 4.8004332,4.7995673 0 0 1 -4.79926,4.7984 4.8004332,4.7995673 0 0 1 -4.80121,-4.7984 4.8004332,4.7995673 0 0 1 4.80121,-4.80035 z"
         transform="scale(0.99990981,1.0000902)" />
    </g>
  </g>
</svg>
