<?xml version="1.0" encoding="UTF-8" standalone="no"?>
<!-- Created with Inkscape (http://www.inkscape.org/) -->

<svg
   width="11in"
   height="8.5in"
   viewBox="0 0 1056 816"
   version="1.1"
   id="svg1"
   inkscape:version="1.3.2 (091e20e, 2023-11-25, custom)"
   sodipodi:docname="Drawing.svg"
   xmlns:inkscape="http://www.inkscape.org/namespaces/inkscape"
   xmlns:sodipodi="http://sodipodi.sourceforge.net/DTD/sodipodi-0.dtd"
   xmlns="http://www.w3.org/2000/svg"
   xmlns:svg="http://www.w3.org/2000/svg">
  <sodipodi:namedview
     id="namedview1"
     pagecolor="#ffffff"
     bordercolor="#000000"
     borderopacity="0.25"
     inkscape:showpageshadow="2"
     inkscape:pageopacity="0.0"
     inkscape:pagecheckerboard="0"
     inkscape:deskcolor="#d1d1d1"
     inkscape:document-units="in"
     inkscape:zoom="0.70710678"
     inkscape:cx="235.46656"
     inkscape:cy="487.19657"
     inkscape:window-width="1920"
     inkscape:window-height="1009"
     inkscape:window-x="-8"
     inkscape:window-y="-8"
     inkscape:window-maximized="1"
     inkscape:current-layer="layer6" />
  <defs
     id="defs1" />
  <g
     inkscape:label="Letters_fill"
     inkscape:groupmode="layer"
     id="g4"
     style="display:inline"
     sodipodi:insensitive="true">
    <g
       inkscape:groupmode="layer"
       id="layer9"
       inkscape:label="MT">
      <path
         id="text23"
         style="font-size:306.667px;font-family:'LoRes 9 Plus OT';-inkscape-font-specification:'LoRes 9 Plus OT';letter-spacing:-15px;fill:#4d4d4d;stroke-width:4.8"
         inkscape:label="T"
         d="m 563.40039,601.18359 c -1.78357,0 -3.15302,0.57227 -4.5625,1.97071 -1.32763,1.41581 -1.87109,2.77122 -1.87109,4.46484 v 16.62109 c 0,1.55555 0.53031,2.86303 1.84961,4.28125 1.39135,1.29432 2.77853,1.85352 4.58398,1.85352 h 50.31641 c 2.99595,0 5.81224,1.22444 7.98632,3.39844 2.1741,2.17399 3.39844,4.9905 3.39844,7.98633 v 152.73437 c 0,1.78294 0.57315,3.15158 1.97071,4.56055 1.41619,1.3282 2.76884,1.87304 4.46289,1.87304 h 50.61523 c 1.57807,0 2.81151,-0.51078 4.14258,-1.84179 1.41981,-1.41976 1.99414,-2.79598 1.99414,-4.5918 V 641.75977 c 0,-2.92208 1.24006,-5.67765 3.39844,-7.83594 2.23918,-2.23908 5.02934,-3.54883 7.98633,-3.54883 h 50.61132 c 1.57807,0 2.89972,-0.52872 4.3418,-1.89062 l 0.0234,-0.0215 0.0254,-0.0215 c 1.49594,-1.33841 2.04493,-2.56605 2.04492,-4.20118 v -16.62109 c 0,-1.54162 -0.54095,-2.84179 -1.99219,-4.29297 l -0.0234,-0.0234 -0.0215,-0.0234 c -1.44595,-1.5262 -2.76323,-2.09571 -4.39844,-2.09571 z" />
      <path
         id="text24"
         style="font-size:306.667px;font-family:'LoRes 9 Plus OT';-inkscape-font-specification:'LoRes 9 Plus OT';letter-spacing:-15px;fill:#4d4d4d;stroke-width:4.8"
         inkscape:label="M"
         d="m 305.86328,601.18359 c -1.90857,0 -3.31872,0.58817 -4.71484,1.97461 -1.32518,1.41452 -1.86914,2.76875 -1.86914,4.46094 v 186.875 c 0,1.80384 0.55955,3.18995 1.85156,4.58008 1.37668,1.27942 2.80652,1.85351 4.73242,1.85351 h 16.17578 c 1.95173,0 3.31063,-0.56069 4.5918,-1.84179 l 0.0234,-0.0254 0.0254,-0.0234 c 1.36998,-1.2938 1.94336,-2.62331 1.94336,-4.54297 v -84.45312 c 0,-2.98349 1.23594,-5.774 3.42578,-7.85547 2.15467,-2.1431 4.8975,-3.37891 7.80859,-3.37891 h 16.32227 c 2.95149,0 5.71492,1.14906 7.80859,3.23047 2.206,2.09779 3.42578,4.94532 3.42578,8.00391 v 16.32226 c 0,1.53174 0.55988,2.91025 2.01758,4.45899 1.42595,1.41677 2.7578,1.97461 4.41797,1.97461 h 50.61523 c 1.66999,-10e-6 3.00589,-0.55672 4.44141,-1.99219 l 0.0234,-0.0234 0.0234,-0.0215 c 1.52626,-1.44587 2.09571,-2.76137 2.09571,-4.39649 v -50.61133 c 0,-2.80227 1.17977,-5.4485 3.22656,-7.50781 2.06548,-2.17482 4.79749,-3.42773 7.70899,-3.42773 h 16.62109 c 2.80434,0 5.46354,1.16495 7.61133,3.18359 2.28124,2.05317 3.62304,4.80664 3.62304,7.75195 v 118.74219 c 0,1.81621 0.55988,3.20968 1.8711,4.60938 1.2738,1.26334 2.62551,1.82421 4.56445,1.82421 h 50.31445 c 1.95174,0 3.3126,-0.56069 4.59375,-1.84179 l 0.0234,-0.0254 0.0254,-0.0234 c 1.36997,-1.2938 1.94336,-2.62331 1.94336,-4.54297 v -186.875 c 0,-1.54163 -0.54095,-2.84179 -1.99219,-4.29297 l -0.0234,-0.0234 -0.0234,-0.0234 c -1.43068,-1.51009 -2.78431,-2.09571 -4.54688,-2.09571 h -50.31445 c -1.78446,0 -3.1542,0.57264 -4.56445,1.97266 -1.32671,1.41533 -1.8711,2.76981 -1.8711,4.46289 v 16.62109 c 0,2.85071 -1.25578,5.54493 -3.39843,7.6875 l -0.0234,0.0234 -0.0254,0.0234 c -2.16794,2.04741 -4.89968,3.20117 -7.78711,3.20117 h -16.62109 c -1.50533,0 -2.78685,0.5534 -4.24805,2.0957 -1.34426,1.42459 -1.88672,2.78502 -1.88672,4.48829 v 16.47265 c 0,2.95687 -1.30965,5.74725 -3.54883,7.98633 -2.15838,2.15828 -4.91373,3.39844 -7.83594,3.39844 h -16.47265 c -2.92221,0 -5.69362,-1.22412 -7.94141,-3.35352 l -0.0469,-0.0449 -0.0449,-0.0469 c -2.12948,-2.2477 -3.35351,-5.01737 -3.35351,-7.93946 v -16.47265 c 0,-1.82917 -0.55914,-3.23087 -1.89063,-4.64063 -1.32612,-1.40407 -2.57415,-1.94336 -4.24414,-1.94336 h -16.62109 c -2.81448,0 -5.5004,-1.15422 -7.74023,-3.1582 l -0.0234,-0.0215 -0.0234,-0.0215 c -2.18976,-2.06802 -3.44922,-4.81229 -3.44922,-7.73438 v -16.62109 c 0,-1.54163 -0.54096,-2.84179 -1.99219,-4.29297 l -0.0469,-0.0469 -0.043,-0.0508 c -1.32288,-1.47845 -2.58898,-2.04493 -4.35156,-2.04493 z" />
    </g>
    <g
       inkscape:groupmode="layer"
       id="layer8"
       inkscape:label="ETRN">
      <path
         id="text19"
         style="font-size:306.692px;font-family:'LoRes 9 Plus OT';-inkscape-font-specification:'LoRes 9 Plus OT';letter-spacing:-15px;fill:#4d4d4d;stroke-width:4.8"
         inkscape:label="N"
         d="m 760.06774,310.08847 c -1.90669,0 -3.31653,0.58704 -4.71129,1.97056 -1.32769,1.41597 -1.87123,2.77069 -1.87123,4.46452 v 186.89052 c 0,1.80405 0.55962,3.19142 1.8517,4.58169 1.37672,1.27956 2.80486,1.85338 4.73082,1.85338 h 16.17502 c 1.95181,0 3.30897,-0.56041 4.59018,-1.84166 l 0.0254,-0.0254 0.0254,-0.0234 c 1.37002,-1.29396 1.94351,-2.62472 1.94351,-4.54459 V 384.6611 c 0,-2.8398 1.27072,-5.50911 3.42798,-7.55803 2.1545,-2.14252 4.89667,-3.37866 7.80722,-3.37866 h 16.32151 c 2.95148,0 5.71748,1.15064 7.81113,3.23218 2.17218,2.06504 3.42603,4.79492 3.42603,7.70451 v 50.61737 c 0,1.53194 0.55999,2.90974 2.01773,4.45865 1.42599,1.41693 2.75608,1.97642 4.41634,1.97642 h 16.62232 c 2.83831,0 5.50482,1.27018 7.55329,3.42553 2.15927,2.17089 3.38111,4.97523 3.38111,7.96035 v 50.31465 c 0,1.78315 0.57323,3.15304 1.97085,4.56216 1.40099,1.31369 2.79768,1.87291 4.61557,1.87291 h 84.60584 c 1.57647,0 2.89981,-0.52772 4.34017,-1.88658 1.5102,-1.43076 2.09586,-2.78579 2.09586,-4.54849 V 316.52355 c 0,-1.54182 -0.54105,-2.84133 -1.99234,-4.29266 l -0.0234,-0.0234 -0.0215,-0.0234 c -1.44599,-1.52635 -2.76349,-2.09555 -4.39877,-2.09555 h -16.32151 c -1.78455,0 -3.1545,0.57235 -4.56479,1.97252 -1.32676,1.41547 -1.87123,2.76927 -1.87123,4.46256 v 118.75492 c 0,2.85091 -1.23874,5.55589 -3.35376,7.78849 l -0.0215,0.0234 -0.0234,0.0234 c -2.15837,2.15843 -4.91237,3.39818 -7.83456,3.39818 H 896.1891 c -2.85082,0 -5.54151,-1.25546 -7.68416,-3.39818 l -0.0254,-0.0234 -0.0234,-0.0254 c -2.04748,-2.168 -3.2014,-4.89903 -3.2014,-7.78653 V 384.6611 c 0,-1.50545 -0.53166,-2.69828 -2.04508,-4.05243 l -0.0508,-0.0449 -0.0469,-0.0469 c -1.43556,-1.43561 -2.77167,-1.99204 -4.44173,-1.99204 h -16.47192 c -2.92219,0 -5.6942,-1.22372 -7.94199,-3.35327 l -0.0469,-0.0449 -0.0449,-0.0469 c -2.12948,-2.24786 -3.35181,-5.01659 -3.35181,-7.93887 v -50.61736 c 0,-1.57818 -0.52875,-2.8993 -1.89076,-4.34148 l -0.0234,-0.0234 -0.0215,-0.0254 c -1.33851,-1.49605 -2.56424,-2.04478 -4.19953,-2.04478 z"
         transform="scale(0.9999263,1.0000737)" />
      <path
         id="text20"
         style="font-size:306.692px;font-family:'LoRes 9 Plus OT';-inkscape-font-specification:'LoRes 9 Plus OT';letter-spacing:-15px;fill:#4d4d4d;stroke-width:4.8"
         inkscape:label="R"
         d="m 502.52727,310.08847 c -1.90669,0 -3.31848,0.58704 -4.71324,1.97056 -1.32768,1.41597 -1.87123,2.77069 -1.87123,4.46452 v 186.89052 c 0,1.80405 0.55964,3.19142 1.8517,4.58169 1.37672,1.27956 2.80681,1.85338 4.73277,1.85338 h 50.31621 c 1.8293,0 3.14585,-0.54378 4.44369,-1.84166 l 0.0234,-0.0254 0.0254,-0.0234 c 1.37003,-1.29396 1.9435,-2.62472 1.9435,-4.54459 v -50.31465 c 0,-3.05974 1.21878,-5.90911 3.42603,-8.00722 2.15451,-2.14253 4.89668,-3.37866 7.80722,-3.37866 h 16.62232 c 2.83832,0 5.50677,1.27018 7.55524,3.42553 2.15927,2.17089 3.38111,4.97523 3.38111,7.96035 v 16.17068 c 0,1.79604 0.57248,3.17351 1.99234,4.59341 1.41986,1.4199 2.7981,1.994 4.59408,1.994 h 16.47192 c 2.98322,0 5.78345,1.21983 7.95371,3.3767 2.1911,2.08182 3.42994,4.87223 3.42994,7.85684 v 16.32302 c 0,1.81794 0.55953,3.21387 1.87319,4.61489 1.3037,1.2923 2.57039,1.82018 4.26203,1.82018 h 50.61506 c 1.57813,0 2.89804,-0.52842 4.34016,-1.89048 1.50752,-1.42951 2.09391,-2.78329 2.09391,-4.54459 v -16.32302 c 0,-1.79602 -0.55639,-3.08411 -1.94351,-4.3942 l -0.0488,-0.0469 -0.0469,-0.0508 c -1.31003,-1.38715 -2.59888,-1.94322 -4.39485,-1.94322 h -16.32347 c -2.96259,0 -5.75207,-1.13815 -7.93613,-3.20093 l -0.0488,-0.0469 -0.0488,-0.0488 c -2.07798,-2.20027 -3.19946,-5.04938 -3.19946,-8.08925 v -50.3166 c 0,-2.95157 1.14922,-5.71431 3.23071,-7.80802 2.09787,-2.20606 4.94383,-3.42748 8.00254,-3.42748 h 16.32347 c 1.54177,0 2.84005,-0.54071 4.29133,-1.99204 l 0.0234,-0.0234 0.0234,-0.0215 c 1.52631,-1.44601 2.09586,-2.76278 2.09586,-4.39811 v -50.61541 c 0,-1.67012 -0.55677,-3.00742 -1.99234,-4.44304 l -0.0234,-0.0215 -0.0215,-0.0234 c -1.44598,-1.52636 -2.76153,-2.09554 -4.39681,-2.09554 h -16.32347 c -2.96259,0 -5.75207,-1.14011 -7.93613,-3.20289 l -0.0254,-0.0234 -0.0234,-0.0254 c -2.07978,-2.07985 -3.24829,-4.79943 -3.24829,-7.68693 v -16.62182 c 0,-1.54182 -0.54301,-2.84133 -1.99429,-4.29266 l -0.0215,-0.0234 -0.0234,-0.0234 c -1.44598,-1.52635 -2.76152,-2.09555 -4.39681,-2.09555 z m 67.98548,29.19317 h 50.61701 c 2.93541,0 5.68537,1.31919 7.82675,3.55637 2.23713,2.14145 3.5569,4.89399 3.5569,7.82951 v 50.61541 c 0,2.88727 -1.32479,5.61491 -3.54909,7.83926 -2.15836,2.15844 -4.91237,3.39819 -7.83456,3.39819 h -50.61701 c -2.85082,0 -5.5571,-1.23818 -7.78964,-3.35327 l -0.0234,-0.0234 -0.0234,-0.0215 c -2.15836,-2.15843 -3.39673,-4.91697 -3.39673,-7.83926 v -50.61541 c 0,-2.91207 1.23475,-5.65493 3.37916,-7.80998 2.14459,-2.25188 4.90817,-3.5759 7.85409,-3.5759 z"
         transform="scale(0.9999263,1.0000737)" />
      <path
         id="text21"
         style="font-size:306.692px;font-family:'LoRes 9 Plus OT';-inkscape-font-specification:'LoRes 9 Plus OT';letter-spacing:-15px;fill:#4d4d4d;stroke-width:4.8"
         inkscape:label="T"
         d="m 278.82914,310.08847 c -1.78455,0 -3.15253,0.57235 -4.56283,1.97252 -1.32676,1.41547 -1.87123,2.76927 -1.87123,4.46256 v 16.62182 c 0,1.55492 0.53,2.86345 1.84779,4.28093 1.39257,1.29681 2.77926,1.85534 4.58627,1.85534 h 50.31621 c 2.99595,0 5.81284,1.226 7.98692,3.40014 2.17408,2.17414 3.39869,4.9897 3.39869,7.98574 v 152.74655 c 0,1.78316 0.57126,3.15304 1.96889,4.56216 1.41624,1.32834 2.77105,1.87291 4.46517,1.87291 h 50.61506 c 1.57814,0 2.81176,-0.5105 4.14289,-1.84166 1.41985,-1.4199 1.99233,-2.79737 1.99233,-4.59341 V 350.66752 c 0,-2.92229 1.24032,-5.67694 3.39869,-7.83536 2.23918,-2.23925 5.02994,-3.55052 7.98692,-3.55052 h 50.61505 c 1.57814,0 2.9,-0.52844 4.34212,-1.89049 l 0.0234,-0.0215 0.0234,-0.0215 c 1.49599,-1.33856 2.04703,-2.56747 2.04703,-4.20281 v -16.62182 c 0,-1.54182 -0.54301,-2.84133 -1.99429,-4.29266 l -0.0215,-0.0234 -0.0234,-0.0234 c -1.44597,-1.52635 -2.76153,-2.09555 -4.39681,-2.09555 z"
         transform="scale(0.9999263,1.0000737)" />
      <path
         id="text22"
         style="font-size:306.692px;font-family:'LoRes 9 Plus OT';-inkscape-font-specification:'LoRes 9 Plus OT';letter-spacing:-15px;fill:#4d4d4d;stroke-width:4.8"
         inkscape:label="E"
         d="m 89.424559,310.08847 c -1.908655,0 -3.320979,0.58786 -4.717144,1.97447 -1.325222,1.41466 -1.869279,2.76822 -1.869279,4.46061 v 186.89052 c 0,1.80405 0.559635,3.19142 1.851699,4.58169 1.376728,1.27956 2.80876,1.85338 4.734724,1.85338 H 242.16629 c 1.57813,0 2.89998,-0.52842 4.34211,-1.89048 1.50752,-1.4295 2.09391,-2.78329 2.09391,-4.54459 v -16.32302 c 0,-1.79602 -0.55641,-3.08411 -1.94351,-4.3942 l -0.0508,-0.0469 -0.0469,-0.0508 c -1.31004,-1.38715 -2.59887,-1.94322 -4.39485,-1.94322 h -84.75625 c -2.85083,0 -5.55905,-1.23621 -7.79159,-3.35131 l -0.0234,-0.0234 -0.0234,-0.0234 c -2.17409,-2.17414 -3.39869,-4.99165 -3.39869,-7.98769 v -50.3166 c 0,-2.98647 1.24021,-5.77657 3.43385,-7.8588 2.15373,-2.13935 4.8951,-3.3767 7.80331,-3.3767 h 50.61506 c 1.67006,0 3.00617,-0.55642 4.44173,-1.99204 l 0.0215,-0.0234 0.0234,-0.0215 c 1.52631,-1.44601 2.09585,-2.76278 2.09585,-4.39811 V 384.6611 c 0,-1.50545 -0.53165,-2.69828 -2.04507,-4.05243 l -0.0488,-0.0449 -0.0469,-0.0469 c -1.43556,-1.43561 -2.77167,-1.99204 -4.44173,-1.99204 h -50.61506 c -2.85083,0 -5.55905,-1.23818 -7.79159,-3.35327 l -0.0469,-0.0449 -0.0449,-0.0469 c -2.12949,-2.24786 -3.35377,-5.01659 -3.35377,-7.93887 v -16.47339 c 0,-2.91207 1.2367,-5.65493 3.38111,-7.80998 2.14462,-2.25189 4.91011,-3.5759 7.85605,-3.5759 h 84.75625 c 1.57813,0 2.89998,-0.52844 4.34211,-1.89049 l 0.0234,-0.0215 0.0254,-0.0215 c 1.49598,-1.33856 2.04508,-2.56747 2.04508,-4.20281 v -16.62182 c 0,-1.54182 -0.54105,-2.84133 -1.99234,-4.29266 l -0.0234,-0.0234 -0.0215,-0.0234 c -1.44598,-1.52635 -2.76349,-2.09555 -4.39876,-2.09555 z"
         transform="scale(0.9999263,1.0000737)" />
    </g>
    <g
       inkscape:groupmode="layer"
       id="layer7"
       inkscape:label="BERT ">
      <path
         id="text15"
         style="font-size:306.691px;font-family:'LoRes 9 Plus OT';-inkscape-font-specification:'LoRes 9 Plus OT';letter-spacing:-15px;fill:#4d4d4d;stroke-width:4.8;stroke-linecap:square"
         inkscape:label="T"
         d="m 786.91558,18.943865 c -1.78453,0 -3.15451,0.572341 -4.5648,1.972506 -1.32675,1.415457 -1.87124,2.769282 -1.87124,4.462549 v 16.621777 c 0,1.556212 0.52951,2.864006 1.84975,4.282876 1.39184,1.295295 2.78025,1.853374 4.58629,1.853374 h 50.31439 c 2.99593,0 5.81286,1.224045 7.98694,3.398178 2.17407,2.174133 3.3987,4.991659 3.3987,7.987671 V 212.26894 c 0,1.78312 0.57326,3.1511 1.97085,4.5602 1.41624,1.32833 2.77107,1.8729 4.46519,1.8729 h 50.61324 c 1.57812,0 2.81179,-0.51051 4.14289,-1.84166 1.41986,-1.41989 1.99234,-2.79543 1.99234,-4.59144 V 59.522796 c 0,-2.922266 1.24033,-5.680827 3.3987,-7.839245 2.23917,-2.239231 5.02801,-3.546604 7.98498,-3.546604 h 50.6152 c 1.57812,0 2.9,-0.528437 4.34213,-1.89048 l 0.0234,-0.02344 0.0254,-0.02148 c 1.49597,-1.338542 2.04508,-2.565538 2.04508,-4.200851 V 25.37892 c 0,-1.541801 -0.54107,-2.841327 -1.99234,-4.29264 l -0.0234,-0.02344 -0.0215,-0.02344 c -1.44598,-1.526346 -2.76352,-2.095543 -4.39877,-2.095543 z"
         transform="scale(0.99992361,1.0000764)" />
      <path
         id="text16"
         style="font-size:306.691px;font-family:'LoRes 9 Plus OT';-inkscape-font-specification:'LoRes 9 Plus OT';letter-spacing:-15px;fill:#4d4d4d;stroke-width:4.8;stroke-linecap:square"
         inkscape:label="R"
         d="m 563.51766,18.943865 c -1.90864,0 -3.321,0.587859 -4.71716,1.974459 -1.32521,1.414646 -1.86928,2.768227 -1.86928,4.460596 v 186.89002 c 0,1.80306 0.55918,3.18825 1.84975,4.57777 1.37777,1.28181 2.80914,1.85533 4.73669,1.85533 H 613.834 c 1.82928,0 3.14194,-0.54378 4.43979,-1.84166 l 0.0254,-0.0234 0.0234,-0.0254 c 1.37003,-1.29394 1.94351,-2.62278 1.94351,-4.54262 v -50.31842 c 0,-3.06028 1.22194,-5.90901 3.42995,-8.0072 2.15418,-2.1413 4.89761,-3.3767 7.80724,-3.3767 h 16.62041 c 2.8383,0 5.50681,1.2702 7.55526,3.42552 2.15927,2.17088 3.38112,4.97328 3.38112,7.95838 v 16.17454 c 0,1.796 0.57249,3.17156 1.99234,4.59145 1.41985,1.41989 2.79618,1.99399 4.59215,1.99399 h 16.47196 c 2.98373,0 5.78723,1.21911 7.95764,3.37669 2.19183,2.08192 3.428,4.87168 3.428,7.85682 v 16.32493 c 0,1.81792 0.55954,3.21191 1.87319,4.61293 1.30369,1.29227 2.57041,1.82017 4.26204,1.82017 h 50.61324 c 1.57812,0 2.9,-0.52843 4.34213,-1.89048 1.50751,-1.42948 2.09391,-2.78135 2.09391,-4.54262 v -16.32493 c 0,-1.79602 -0.55642,-3.08412 -1.94351,-4.39419 l -0.0488,-0.0469 -0.0469,-0.0488 c -1.31003,-1.38713 -2.60085,-1.94321 -4.39682,-1.94321 h -16.32156 c -2.96259,0 -5.75405,-1.13814 -7.9381,-3.20093 l -0.0488,-0.0469 -0.0469,-0.0508 c -2.07795,-2.20025 -3.19946,-5.04744 -3.19946,-8.08728 v -50.31647 c 0,-2.94877 1.14515,-5.71109 3.2229,-7.80409 2.09843,-2.21011 4.94871,-3.43137 8.01038,-3.43137 h 16.32156 c 1.54176,0 2.84202,-0.54268 4.2933,-1.99399 l 0.0234,-0.0215 0.0234,-0.0234 c 1.52629,-1.44601 2.09586,-2.76084 2.09586,-4.39615 V 59.522796 c 0,-1.670095 -0.55678,-3.00742 -1.99234,-4.44302 l -0.0234,-0.02343 -0.0215,-0.02344 c -1.44596,-1.526344 -2.7635,-2.097496 -4.39877,-2.097496 h -16.32156 c -2.96259,0 -5.75405,-1.138151 -7.9381,-3.200927 l -0.0254,-0.02344 -0.0234,-0.02344 c -2.07979,-2.079844 -3.24634,-4.799429 -3.24634,-7.686913 V 25.37892 c 0,-1.541801 -0.54107,-2.841327 -1.99234,-4.29264 l -0.0234,-0.02344 -0.0234,-0.02344 c -1.44597,-1.526343 -2.76155,-2.095543 -4.39682,-2.095543 z m 67.98566,29.193082 h 50.61324 c 2.93539,0 5.68736,1.317248 7.82872,3.554416 2.23712,2.141431 3.55692,4.895946 3.55692,7.831433 v 50.615274 c 0,2.88725 -1.32482,5.61099 -3.5491,7.83534 -2.15836,2.15842 -4.91435,3.40013 -7.83654,3.40013 h -50.61324 c -2.85081,0 -5.55908,-1.24014 -7.79161,-3.35521 l -0.0234,-0.0215 -0.0234,-0.0234 c -2.15835,-2.15841 -3.3987,-4.91307 -3.3987,-7.83534 V 59.522796 c 0,-2.910611 1.23671,-5.655398 3.37917,-7.80995 2.14487,-2.253134 4.9112,-3.575899 7.85802,-3.575899 z"
         transform="scale(0.99992361,1.0000764)" />
      <path
         id="text17"
         style="font-size:306.691px;font-family:'LoRes 9 Plus OT';-inkscape-font-specification:'LoRes 9 Plus OT';letter-spacing:-15px;fill:#4d4d4d;stroke-width:4.8;stroke-linecap:square"
         inkscape:label="E"
         d="m 339.96933,18.943865 c -1.90668,0 -3.31654,0.587039 -4.7113,1.970553 -1.32767,1.415948 -1.87123,2.770698 -1.87123,4.464502 v 186.89002 c 0,1.80459 0.55876,3.19097 1.8517,4.58168 1.37644,1.27896 2.80528,1.85142 4.73083,1.85142 h 152.74214 c 1.57812,0 2.9,-0.52843 4.34212,-1.89048 1.50751,-1.42948 2.09391,-2.78135 2.09391,-4.54262 v -16.32493 c 0,-1.79602 -0.55642,-3.08412 -1.9435,-4.39419 l -0.0508,-0.0469 -0.0469,-0.0488 c -1.31004,-1.38713 -2.5989,-1.94321 -4.39486,-1.94321 h -84.75648 c -2.85081,0 -5.55714,-1.23818 -7.78966,-3.35326 l -0.0234,-0.0234 -0.0215,-0.0215 c -2.17407,-2.17413 -3.3987,-4.99166 -3.3987,-7.98767 v -50.31647 c 0,-2.98552 1.23759,-5.77676 3.42995,-7.85877 2.15419,-2.14128 4.8937,-3.37669 7.80333,-3.37669 h 50.6152 c 1.67004,0 3.00813,-0.55839 4.4437,-1.99399 l 0.0215,-0.0215 0.0234,-0.0234 c 1.52631,-1.44601 2.09586,-2.76084 2.09586,-4.39615 V 93.51434 c 0,-1.505439 -0.53166,-2.696337 -2.04507,-4.050472 l -0.0488,-0.04492 -0.0469,-0.04687 c -1.43557,-1.435603 -2.77366,-1.992035 -4.4437,-1.992035 h -50.6152 c -2.85082,0 -5.55714,-1.238181 -7.78966,-3.35326 l -0.0469,-0.04492 -0.0449,-0.04687 c -2.12948,-2.247843 -3.35182,-5.016582 -3.35182,-7.938847 V 59.522796 c 0,-2.912046 1.23672,-5.658825 3.38112,-7.813856 2.14433,-2.250624 4.90713,-3.571993 7.85216,-3.571993 h 84.75648 c 1.57813,0 2.9,-0.528438 4.34212,-1.89048 l 0.0234,-0.02344 0.0254,-0.02148 c 1.49597,-1.338542 2.04507,-2.565538 2.04507,-4.200851 V 25.37892 c 0,-1.541799 -0.54106,-2.841326 -1.99233,-4.29264 l -0.0234,-0.02344 -0.0215,-0.02344 c -1.44597,-1.526343 -2.76351,-2.095543 -4.39877,-2.095543 z"
         transform="scale(0.99992361,1.0000764)" />
      <path
         id="text18"
         style="font-size:306.691px;font-family:'LoRes 9 Plus OT';-inkscape-font-specification:'LoRes 9 Plus OT';letter-spacing:-15px;display:inline;fill:#4d4d4d;stroke-width:4.8;stroke-linecap:square"
         inkscape:label="B"
         d="m 82.430125,18.943865 c -1.908641,0 -3.321002,0.587859 -4.717157,1.974459 -1.325214,1.414645 -1.869284,2.768225 -1.869284,4.460596 v 186.89002 c 0,1.80306 0.559185,3.18825 1.849751,4.57777 1.377769,1.28181 2.80914,1.85533 4.73669,1.85533 H 235.17226 c 1.57813,0 2.90001,-0.52843 4.34213,-1.89048 1.50751,-1.42948 2.09391,-2.78135 2.09391,-4.54262 v -16.32493 c 0,-3.03984 1.13525,-5.8726 3.2483,-7.98571 2.11306,-2.11312 4.94522,-3.24976 7.98498,-3.24976 h 16.32351 c 1.54176,0 2.84007,-0.54071 4.29135,-1.99203 l 0.0234,-0.0234 0.0234,-0.0215 c 1.51021,-1.43075 2.09587,-2.78385 2.09587,-4.54653 v -50.31647 c 0,-1.79601 -0.55643,-3.08411 -1.94351,-4.39419 l -0.0254,-0.0234 -0.0234,-0.0254 c -1.43556,-1.43559 -2.7717,-1.99203 -4.44175,-1.99203 h -16.32351 c -2.99593,0 -5.81091,-1.226 -7.98498,-3.40013 l -0.0234,-0.0234 -0.0234,-0.0254 c -2.04749,-2.16799 -3.20142,-4.89903 -3.20142,-7.78651 V 93.51434 c 0,-2.814525 1.18515,-5.473326 3.2483,-7.536534 2.17407,-2.174132 4.98905,-3.398178 7.98498,-3.398178 h 16.32351 c 1.54176,0 2.84007,-0.540721 4.29135,-1.992035 1.5544,-1.554456 2.14274,-2.956136 2.14274,-4.591446 V 59.522796 c 0,-1.670095 -0.55678,-3.00742 -1.99234,-4.44302 l -0.0234,-0.02343 -0.0215,-0.02344 c -1.44597,-1.526344 -2.76154,-2.097496 -4.39682,-2.097496 h -16.32351 c -2.9626,0 -5.7521,-1.13815 -7.93615,-3.200927 l -0.0254,-0.02344 -0.0234,-0.02344 c -2.07979,-2.079845 -3.2483,-4.799431 -3.2483,-7.686913 V 25.37892 c 0,-1.541799 -0.54106,-2.841326 -1.99234,-4.29264 l -0.0234,-0.02344 -0.0234,-0.02344 c -1.44597,-1.526343 -2.76156,-2.095543 -4.39682,-2.095543 z m 67.985665,29.193082 h 50.61519 c 2.93539,0 5.68541,1.317251 7.82677,3.554416 2.23712,2.141431 3.55691,4.895946 3.55691,7.831433 v 16.473351 c 0,2.957045 -1.30993,5.746486 -3.5491,7.985718 -2.15835,2.158416 -4.91239,3.398178 -7.83458,3.398178 h -50.61519 c -2.85081,0 -5.55909,-1.238183 -7.79161,-3.35326 l -0.0469,-0.04492 -0.0449,-0.04687 c -2.12947,-2.247844 -3.35182,-5.016585 -3.35182,-7.938847 v -16.47335 c 0,-2.910611 1.23476,-5.655398 3.37721,-7.80995 2.14489,-2.253132 4.9112,-3.575899 7.85803,-3.575899 z m 0,68.436183 h 50.61519 c 2.98374,0 5.78527,1.2191 7.95569,3.37669 2.19183,2.08192 3.42799,4.87364 3.42799,7.85877 v 50.31647 c 0,2.99601 -1.22462,5.81354 -3.39869,7.98767 -2.17408,2.17414 -4.98906,3.39818 -7.98499,3.39818 h -50.61519 c -2.85081,0 -5.55909,-1.23819 -7.79161,-3.35326 l -0.0234,-0.0234 -0.0234,-0.0215 c -2.17407,-2.17413 -3.39675,-4.99166 -3.39675,-7.98767 v -50.31647 c 0,-2.98644 1.23828,-5.7785 3.43191,-7.86072 2.15372,-2.13933 4.89513,-3.37474 7.80333,-3.37474 z"
         transform="scale(0.99992361,1.0000764)" />
    </g>
  </g>
  <g
     inkscape:label="Letters_stroke"
     inkscape:groupmode="layer"
     id="layer1"
     style="display:inline;opacity:0.5">
    <g
       inkscape:groupmode="layer"
       id="layer6"
       inkscape:label="MT">
      <path
         style="color:#000000;-inkscape-font-specification:'LoRes 9 Plus OT';fill:#000000;-inkscape-stroke:none"
         d="m 563.38867,596.39648 c -2.99589,0 -5.81228,1.2244 -7.98633,3.39844 l -0.0234,0.0254 -0.0234,0.0254 c -2.04745,2.1679 -3.20117,4.89975 -3.20117,7.78711 v 16.6211 c 0,2.81441 1.16895,5.48495 3.20117,7.63671 l 0.0469,0.0508 0.0508,0.0469 c 2.18403,2.0627 4.97299,3.20117 7.93555,3.20117 h 50.31445 c 1.79587,0 3.17202,0.57241 4.5918,1.99219 1.41978,1.41977 1.99219,2.79592 1.99219,4.5918 v 152.73828 c 0,2.99589 1.2244,5.81228 3.39844,7.98633 l 0.0254,0.0234 0.0234,0.0234 c 2.1679,2.04746 4.89975,3.20117 7.78711,3.20117 h 50.61329 c 2.81442,0 5.47399,-1.18492 7.5371,-3.24804 2.17405,-2.17405 3.39844,-4.99044 3.39844,-7.98633 V 641.77344 c 0,-1.66995 0.5567,-3.00591 1.99219,-4.44141 1.55434,-1.55434 2.95858,-2.14258 4.59375,-2.14258 h 50.61133 c 2.80285,0 5.46221,-1.16484 7.60937,-3.18164 2.28378,-2.0536 3.62696,-4.8067 3.62696,-7.7539 v -16.6211 c 0,-2.83929 -1.25206,-5.51981 -3.37891,-7.6582 -2.14485,-2.25304 -4.91063,-3.57813 -7.85742,-3.57813 z m 0,4.80079 h 186.87891 c 1.63517,0 2.95253,0.56947 4.39844,2.0957 l 0.0215,0.0234 0.0234,0.0234 c 1.45121,1.45121 1.99218,2.75131 1.99218,4.29297 v 16.6211 c 1e-5,1.63516 -0.54901,2.86273 -2.04492,4.20117 l -0.0254,0.0215 -0.0234,0.0215 c -1.44204,1.36194 -2.76376,1.89062 -4.34179,1.89062 h -50.61133 c -2.95693,0 -5.74719,1.3097 -7.98633,3.54883 -2.15833,2.15833 -3.39844,4.91379 -3.39844,7.83594 v 152.73828 c 0,1.79586 -0.57436,3.17201 -1.99414,4.5918 -1.33104,1.33104 -2.56454,1.84179 -4.14257,1.84179 h -50.61329 c -1.69402,0 -3.04672,-0.54481 -4.46289,-1.87304 -1.39753,-1.409 -1.9707,-2.77757 -1.9707,-4.56055 V 641.77344 c 0,-2.9959 -1.22439,-5.81229 -3.39844,-7.98633 -2.17404,-2.17404 -4.99043,-3.39844 -7.98633,-3.39844 h -50.31445 c -1.80541,0 -3.19265,-0.55916 -4.58398,-1.85351 -1.31927,-1.41826 -1.84961,-2.72567 -1.84961,-4.28125 v -16.6211 c 0,-1.69366 0.54349,-3.049 1.87109,-4.46484 1.40945,-1.39847 2.77897,-1.9707 4.5625,-1.9707 z"
         id="text13"
         inkscape:label="T"
         transform="scale(1.0000217,0.9999783)" />
      <path
         style="color:#000000;-inkscape-font-specification:'LoRes 9 Plus OT';fill:#000000;-inkscape-stroke:none"
         d="m 305.85742,596.39648 c -3.07172,0 -5.94501,1.20869 -8.13476,3.39844 l -0.0254,0.0254 -0.0234,0.0254 c -2.04745,2.1679 -3.20117,4.89975 -3.20117,7.78711 v 186.87891 c 0,2.96255 1.13848,5.75347 3.20117,7.9375 l 0.0469,0.0488 0.0508,0.0469 c 2.20016,2.07793 5.04622,3.20117 8.08594,3.20117 h 16.17383 c 3.02598,0 5.84317,-1.13187 7.95312,-3.22656 2.20928,-2.0983 3.42969,-4.94672 3.42969,-8.00781 v -84.45508 c 0,-1.79586 0.55634,-3.08456 1.94336,-4.39453 l 0.0254,-0.0234 0.0254,-0.0254 c 1.43549,-1.43549 2.77146,-1.99219 4.44141,-1.99219 h 16.32226 c 1.8292,0 3.14364,0.54598 4.44141,1.84375 l 0.0254,0.0234 0.0254,0.0234 c 1.36994,1.29383 1.94141,2.62522 1.94141,4.54492 v 16.32227 c 0,2.85078 1.23853,5.55657 3.35351,7.78906 l 0.0234,0.0234 0.0215,0.0234 c 2.15832,2.15833 4.91574,3.39844 7.83789,3.39844 h 50.61328 c 2.9105,0 5.65218,-1.23648 7.80664,-3.37891 2.25303,-2.14484 3.57812,-4.90868 3.57812,-7.85546 v -50.61329 c 0,-1.57803 0.51076,-2.81153 1.8418,-4.14257 l 0.0234,-0.0254 0.0234,-0.0254 c 1.3261,-1.40411 2.57614,-1.94141 4.24609,-1.94141 h 16.62109 c 1.57803,0 2.89974,0.52673 4.3418,1.88867 l 0.0234,0.0234 0.0234,0.0215 c 1.49591,1.33845 2.04688,2.56601 2.04688,4.20117 v 118.7461 c 0,2.96255 1.13653,5.75347 3.19922,7.9375 l 0.0234,0.0234 0.0254,0.0254 c 2.11303,2.11303 4.94661,3.24804 7.98632,3.24804 h 50.3125 c 3.02749,0 5.84674,-1.13182 7.95704,-3.22851 2.20798,-2.09812 3.42773,-4.94571 3.42773,-8.00586 V 607.63281 c 0,-2.84018 -1.2528,-5.52143 -3.38086,-7.66015 -2.16001,-2.26702 -4.9864,-3.57618 -8.00391,-3.57618 h -50.3125 c -2.99589,0 -5.81228,1.2244 -7.98632,3.39844 l -0.0254,0.0254 -0.0234,0.0254 c -2.04745,2.1679 -3.19922,4.89975 -3.19922,7.78711 v 16.6211 c 0,1.53095 -0.54406,2.82461 -1.97266,4.26367 -1.41536,1.32671 -2.76975,1.87109 -4.46289,1.87109 h -16.62109 c -2.88715,0 -5.59976,1.34457 -7.73242,3.5957 h -0.002 v 0.002 c -2.04745,2.1679 -3.20117,4.89974 -3.20117,7.78711 v 16.47265 c 0,1.63518 -0.58823,3.03746 -2.14258,4.5918 -1.43549,1.43549 -2.77145,1.99219 -4.4414,1.99219 h -16.47266 c -1.64996,0 -3.05961,-0.57419 -4.58398,-2 -1.42584,-1.52439 -2,-2.93401 -2,-4.58399 V 641.7735 c 0,-2.96256 -1.13849,-5.75348 -3.20117,-7.9375 -2.06807,-2.18972 -4.81223,-3.44727 -7.73438,-3.44727 H 373.8418 c -1.56777,0 -2.96806,-0.54388 -4.50977,-1.91406 -1.38575,-1.31741 -1.92578,-2.56057 -1.92578,-4.2207 v -16.6211 c 0,-2.82655 -1.24605,-5.49329 -3.35547,-7.62695 -2.06741,-2.28587 -4.87033,-3.60938 -7.87891,-3.60938 z m 0,4.80079 h 50.31445 c 1.76254,0 3.02872,0.56644 4.35157,2.04492 l 0.043,0.0508 0.0469,0.0469 c 1.4512,1.45121 1.99219,2.7513 1.99219,4.29297 v 16.6211 c 0,2.92215 1.2595,5.66631 3.44922,7.73437 l 0.0234,0.0215 0.0234,0.0215 c 2.23979,2.00402 4.92582,3.1582 7.74024,3.1582 h 16.62109 c 1.66995,0 2.91804,0.53926 4.24414,1.94336 1.33147,1.40979 1.89063,2.81142 1.89063,4.64063 v 16.47265 c 0,2.92216 1.22407,5.69171 3.35351,7.93946 l 0.0449,0.0469 0.0469,0.0449 c 2.24774,2.12944 5.0173,3.35352 7.93945,3.35352 h 16.47266 c 2.92215,0 5.67761,-1.24012 7.83594,-3.39844 2.23913,-2.23913 3.54882,-5.02939 3.54882,-7.98633 v -16.47265 c 0,-1.70331 0.54249,-3.06366 1.88672,-4.48828 1.46117,-1.54234 2.74275,-2.09571 4.24805,-2.09571 h 16.62109 c 2.88737,0 5.61922,-1.15371 7.78711,-3.20117 l 0.0254,-0.0234 0.0234,-0.0234 c 2.14261,-2.14262 3.39844,-4.83673 3.39844,-7.6875 v -16.6211 c 0,-1.69312 0.54441,-3.04753 1.87109,-4.46289 1.41022,-1.40005 2.78002,-1.97265 4.56445,-1.97265 h 50.3125 c 1.76254,0 3.11624,0.58558 4.54688,2.0957 l 0.0234,0.0234 0.0234,0.0234 c 1.45121,1.45121 1.99219,2.7513 1.99219,4.29297 v 186.87891 c 0,1.9197 -0.57342,3.24914 -1.94336,4.54297 l -0.0254,0.0234 -0.0234,0.0254 c -1.28113,1.28113 -2.64205,1.84179 -4.59375,1.84179 h -50.3125 c -1.9389,0 -3.29067,-0.56084 -4.56445,-1.82422 -1.31119,-1.39973 -1.87109,-2.79312 -1.87109,-4.60937 v -118.7461 c 0,-2.94538 -1.34185,-5.69874 -3.62305,-7.75195 -2.14774,-2.01869 -4.80705,-3.18359 -7.61133,-3.18359 h -16.62109 c -2.91144,0 -5.64356,1.25286 -7.70899,3.42773 -2.04675,2.05936 -3.22656,4.70547 -3.22656,7.50781 v 50.61329 c 0,1.63516 -0.56947,2.95058 -2.0957,4.39648 l -0.0234,0.0215 -0.0234,0.0234 c -1.43549,1.4355 -2.77145,1.99219 -4.4414,1.99219 H 373.8418 c -1.66014,0 -2.99205,-0.5578 -4.41797,-1.97461 -1.45766,-1.54877 -2.01758,-2.9272 -2.01758,-4.45898 v -16.32227 c 0,-3.05866 -1.21983,-5.90607 -3.42578,-8.00391 -2.09362,-2.08145 -4.85716,-3.23046 -7.8086,-3.23046 h -16.32226 c -2.91103,0 -5.65396,1.23575 -7.80859,3.3789 -2.18979,2.08152 -3.42579,4.87191 -3.42579,7.85547 v 84.45508 c 0,1.9197 -0.57341,3.24914 -1.94336,4.54297 l -0.0254,0.0234 -0.0234,0.0254 c -1.28114,1.28113 -2.64011,1.84179 -4.5918,1.84179 h -16.17383 c -1.92586,0 -3.35577,-0.57406 -4.73242,-1.85351 -1.29199,-1.39016 -1.85156,-2.7762 -1.85156,-4.58008 V 607.63281 c 0,-1.69223 0.54398,-3.04639 1.86914,-4.46094 1.39608,-1.38647 2.80631,-1.9746 4.71484,-1.9746 z"
         id="text14"
         inkscape:label="M"
         transform="scale(1.0000217,0.9999783)" />
    </g>
    <g
       inkscape:groupmode="layer"
       id="layer5"
       inkscape:label="ETRN">
      <path
         style="color:#000000;-inkscape-font-specification:'LoRes 9 Plus OT';fill:#000000;-inkscape-stroke:none"
         d="m 760.08008,305.2832 c -3.07182,0 -5.94494,1.20861 -8.13477,3.39844 l -0.0254,0.0254 -0.0234,0.0254 c -2.04752,2.16797 -3.20117,4.89965 -3.20117,7.78711 v 186.88672 c 0,2.96266 1.13841,5.7534 3.20117,7.9375 l 0.0469,0.0508 0.0508,0.0469 c 2.20023,2.07799 5.04612,3.20117 8.08594,3.20117 h 16.17383 c 3.02758,0 5.84666,-1.13176 7.95703,-3.22852 2.20806,-2.09819 3.42773,-4.94756 3.42773,-8.00781 v -118.75 c 0,-1.5418 0.52208,-2.75338 1.94336,-4.0957 l 0.0254,-0.0234 0.0234,-0.0254 c 1.43559,-1.43559 2.77327,-1.99219 4.44336,-1.99219 h 16.32226 c 1.82934,0 3.1455,0.54589 4.44336,1.84375 l 0.0234,0.0234 0.0254,0.0234 c 1.40421,1.32619 1.94336,2.576 1.94336,4.24609 v 50.61523 c 0,2.85087 1.23845,5.5565 3.35352,7.78907 l 0.0215,0.0234 0.0234,0.0234 c 2.1584,2.1584 4.91565,3.39844 7.83789,3.39844 h 16.62109 c 1.5418,0 2.75338,0.52208 4.09571,1.94336 l 0.0234,0.0254 0.0234,0.0234 c 1.41988,1.41988 1.99414,2.79774 1.99414,4.59375 v 50.31445 c 0,2.99599 1.22432,5.81417 3.39844,7.98828 l 0.0234,0.0234 0.0254,0.0234 c 2.1841,2.06276 4.97484,3.20117 7.9375,3.20117 h 84.60742 c 2.8145,0 5.48683,-1.16888 7.63867,-3.20117 l 0.002,-0.002 c 2.28344,-2.16325 3.59571,-5.00388 3.59571,-8.0332 V 316.51953 c 0,-2.83937 -1.25199,-5.51973 -3.37891,-7.6582 -2.14492,-2.25312 -4.91054,-3.57813 -7.85742,-3.57813 h -16.32227 c -2.99598,0 -5.81221,1.22432 -7.98632,3.39844 l -0.0234,0.0254 -0.0234,0.0254 c -2.04753,2.16797 -3.20117,4.89965 -3.20117,7.78711 V 435.2715 c 0,1.53269 -0.56209,2.91112 -2.02149,4.46094 -1.42469,1.41432 -2.75515,1.97461 -4.41406,1.97461 h -16.62305 c -1.53108,0 -2.82451,-0.54396 -4.26367,-1.97266 -1.3268,-1.41546 -1.87109,-2.76961 -1.87109,-4.46289 v -50.61523 c 0,-2.86622 -1.35509,-5.54324 -3.60547,-7.57813 -2.1508,-2.12734 -4.87984,-3.35937 -7.7793,-3.35937 h -16.47265 c -1.6501,0 -3.05951,-0.57409 -4.58399,-2 -1.42593,-1.52449 -2.00195,-2.93388 -2.00195,-4.58398 v -50.61524 c 0,-2.80293 -1.16478,-5.46213 -3.18164,-7.60937 -2.05348,-2.28257 -4.80752,-3.62696 -7.75391,-3.62696 z m 0,4.80078 h 84.60937 c 1.63531,0 2.86264,0.54891 4.20117,2.04493 l 0.0215,0.0254 0.0234,0.0234 c 1.36203,1.44216 1.89062,2.76364 1.89062,4.3418 v 50.61524 c 0,2.92224 1.22204,5.69162 3.35156,7.93945 l 0.0449,0.0469 0.0469,0.0449 c 2.24783,2.12952 5.01917,3.35351 7.94141,3.35351 h 16.47265 c 1.67009,0 3.00582,0.5566 4.44141,1.99219 l 0.0469,0.0469 0.0508,0.0449 c 1.51344,1.35413 2.04492,2.5473 2.04492,4.05273 v 50.61523 c 0,2.88746 1.15364,5.61914 3.20117,7.78711 l 0.0234,0.0254 0.0254,0.0234 c 2.14269,2.14269 4.83468,3.39844 7.68554,3.39844 h 16.62305 c 2.92224,0 5.67754,-1.24004 7.83594,-3.39844 l 0.0234,-0.0234 0.0215,-0.0234 c 2.11506,-2.23257 3.35352,-4.9382 3.35352,-7.78907 V 316.51953 c 0,-1.69326 0.54431,-3.04744 1.87109,-4.46289 1.41032,-1.40015 2.77987,-1.97266 4.56445,-1.97266 h 16.32227 c 1.6353,0 2.95243,0.56937 4.39844,2.09571 l 0.0215,0.0234 0.0234,0.0234 c 1.45131,1.45131 1.99219,2.75118 1.99219,4.29297 v 186.88672 c 0,1.76267 -0.58548,3.11809 -2.09571,4.54883 -1.44038,1.35884 -2.76335,1.88672 -4.33984,1.88672 h -84.60742 c -1.81792,0 -3.21422,-0.55938 -4.61524,-1.87305 -1.39763,-1.4091 -1.9707,-2.77938 -1.9707,-4.5625 V 453.0918 c 0,-2.98508 -1.22156,-5.78813 -3.38086,-7.95899 -2.0485,-2.15532 -4.71633,-3.42578 -7.55469,-3.42578 H 828.0683 c -1.66028,0 -2.99195,-0.55965 -4.41797,-1.97656 -1.45776,-1.54889 -2.01758,-2.92707 -2.01758,-4.45899 v -50.61523 c 0,-2.90955 -1.25356,-5.64008 -3.42578,-7.70508 -2.09368,-2.08152 -4.85902,-3.23242 -7.81055,-3.23242 h -16.32226 c -2.91059,0 -5.65211,1.23642 -7.80664,3.37891 -2.1573,2.0489 -3.42774,4.71882 -3.42774,7.55859 v 118.75 c 0,1.91984 -0.57331,3.25099 -1.94336,4.54492 l -0.0254,0.0234 -0.0254,0.0254 c -1.28122,1.28123 -2.63995,1.8418 -4.59179,1.8418 H 760.08 c -1.926,0 -3.35567,-0.57398 -4.73242,-1.85352 -1.29209,-1.39026 -1.85157,-2.77801 -1.85157,-4.58203 V 316.51953 c 0,-1.6938 0.54339,-3.0489 1.8711,-4.46484 1.39478,-1.38351 2.80617,-1.97071 4.71289,-1.97071 z"
         id="text9"
         inkscape:label="N"
         transform="scale(0.9999112,1.0000888)" />
      <path
         style="color:#000000;-inkscape-font-specification:'LoRes 9 Plus OT';fill:#000000;-inkscape-stroke:none"
         d="m 502.53516,305.2832 c -3.07183,0 -5.94494,1.20861 -8.13477,3.39844 l -0.0254,0.0254 -0.0234,0.0254 c -2.04753,2.16797 -3.20117,4.89965 -3.20117,7.78711 v 186.88672 c 0,2.96266 1.13841,5.7534 3.20117,7.9375 l 0.0469,0.0508 0.0508,0.0469 c 2.20023,2.07799 5.04611,3.20117 8.08594,3.20117 h 50.3164 c 2.94875,0 5.71171,-1.14682 7.80469,-3.22461 2.2101,-2.09848 3.43164,-4.94998 3.43164,-8.01172 V 453.0918 c 0,-1.91984 0.57331,-3.25099 1.94336,-4.54493 l 0.0234,-0.0234 0.0254,-0.0254 c 1.43559,-1.4356 2.77132,-1.99219 4.4414,-1.99219 h 16.62305 c 1.5418,0 2.75338,0.52208 4.0957,1.94336 l 0.0234,0.0254 0.0234,0.0234 c 1.41988,1.41988 1.99414,2.79774 1.99414,4.59375 v 16.17187 c 0,2.99599 1.22432,5.81221 3.39844,7.98633 2.17411,2.17412 4.99034,3.39844 7.98633,3.39844 h 16.47265 c 1.79601,0 3.17192,0.57426 4.5918,1.99414 l 0.0234,0.0234 0.0254,0.0234 c 1.38712,1.31007 1.94336,2.59853 1.94336,4.39453 v 16.32227 c 0,2.96266 1.13841,5.7534 3.20117,7.9375 l 0.0234,0.0254 0.0234,0.0254 c 2.07983,2.07983 4.80004,3.24805 7.6875,3.24805 h 50.61524 c 2.8145,0 5.48683,-1.16888 7.63867,-3.20117 l 0.002,-0.002 c 2.28344,-2.16325 3.59571,-5.00388 3.59571,-8.0332 v -16.32227 c 0,-2.97078 -1.23213,-5.74551 -3.4043,-7.82421 -2.07946,-2.17671 -4.85794,-3.41016 -7.83203,-3.41016 h -16.32227 c -1.80456,0 -3.19135,-0.55864 -4.58203,-1.85156 -1.28038,-1.37714 -1.85352,-2.80779 -1.85352,-4.73438 v -50.3164 c 0,-1.82934 0.54589,-3.14355 1.84375,-4.44141 l 0.0234,-0.0254 0.0234,-0.0234 c 1.29393,-1.37005 2.62508,-1.94336 4.54492,-1.94336 h 16.32227 c 2.83937,0 5.51973,-1.25198 7.6582,-3.3789 2.25312,-2.14493 3.57813,-4.91055 3.57813,-7.85743 v -50.61523 c 0,-2.91202 -1.23642,-5.65553 -3.38086,-7.81055 -2.14465,-2.25186 -4.90949,-3.57422 -7.85547,-3.57422 H 672.951 c -1.81695,0 -3.21106,-0.55891 -4.61133,-1.87109 -1.29478,-1.30495 -1.82422,-2.57245 -1.82422,-4.26563 v -16.62109 c 0,-2.83938 -1.25197,-5.51973 -3.3789,-7.6582 -2.14492,-2.25312 -4.90859,-3.57813 -7.85547,-3.57813 z m 0,4.80078 h 152.74609 c 1.63531,0 2.95048,0.56937 4.39648,2.09571 l 0.0234,0.0234 0.0215,0.0234 c 1.4513,1.45131 1.99414,2.75118 1.99414,4.29297 v 16.62109 c 0,2.88746 1.16822,5.60768 3.24804,7.6875 l 0.0234,0.0254 0.0254,0.0234 c 2.1841,2.06276 4.97485,3.20117 7.9375,3.20117 h 16.32227 c 1.6353,0 2.95243,0.56937 4.39843,2.09571 l 0.0215,0.0234 0.0234,0.0215 c 1.43559,1.43559 1.99218,2.77327 1.99218,4.44336 v 50.61523 c 0,1.63531 -0.56936,2.95244 -2.0957,4.39844 l -0.0234,0.0215 -0.0234,0.0234 c -1.45131,1.45131 -2.75118,1.99219 -4.29297,1.99219 h -16.32227 c -3.05876,0 -5.906,1.21976 -8.0039,3.42578 -2.08153,2.09368 -3.23047,4.85707 -3.23047,7.8086 v 50.3164 c 0,3.03982 1.12122,5.88766 3.19922,8.08789 l 0.0488,0.0488 0.0488,0.0469 c 2.1841,2.06276 4.97485,3.20117 7.9375,3.20117 h 16.32227 c 1.796,0 3.08642,0.55623 4.39648,1.94336 l 0.0469,0.0508 0.0488,0.0469 c 1.38713,1.31007 1.94336,2.59853 1.94336,4.39453 v 16.32227 c 0,1.76127 -0.5862,3.11544 -2.09375,4.54492 -1.44215,1.36204 -2.76363,1.89063 -4.34179,1.89063 H 638.6582 c -1.69167,0 -2.95799,-0.52805 -4.26172,-1.82032 -1.31367,-1.40101 -1.87304,-2.79731 -1.87304,-4.61523 v -16.32227 c 0,-2.98458 -1.23855,-5.77563 -3.42969,-7.85742 -2.1703,-2.15683 -4.97182,-3.37695 -7.95508,-3.37695 h -16.47265 c -1.79601,0 -3.17387,-0.57231 -4.59375,-1.99219 -1.41988,-1.41988 -1.99219,-2.79774 -1.99219,-4.59375 V 453.0918 c 0,-2.98508 -1.22156,-5.78813 -3.38086,-7.95899 -2.0485,-2.15532 -4.71633,-3.42578 -7.55469,-3.42578 h -16.62305 c -2.91059,0 -5.6521,1.23641 -7.80664,3.37891 -2.20729,2.09808 -3.42773,4.94616 -3.42773,8.00586 v 50.31445 c 0,1.91984 -0.57331,3.25099 -1.94336,4.54492 l -0.0254,0.0234 -0.0234,0.0254 c -1.29786,1.29786 -2.61402,1.8418 -4.44336,1.8418 h -50.3164 c -1.926,0 -3.35568,-0.57398 -4.73243,-1.85352 -1.29208,-1.39026 -1.85156,-2.77801 -1.85156,-4.58203 V 316.51953 c 0,-1.6938 0.54339,-3.0489 1.8711,-4.46484 1.39478,-1.38351 2.80617,-1.97071 4.71289,-1.97071 z m 67.98632,29.19336 c -2.94597,0 -5.70887,1.32237 -7.85351,3.57422 -2.14444,2.15502 -3.38086,4.89853 -3.38086,7.81055 v 50.61523 c 0,2.92225 1.24003,5.67949 3.39844,7.83789 l 0.0234,0.0215 0.0234,0.0234 c 2.23257,2.11506 4.9382,3.35351 7.78906,3.35351 h 50.61719 c 2.92224,0 5.67754,-1.24003 7.83594,-3.39844 2.22433,-2.22432 3.54883,-4.95066 3.54883,-7.83789 v -50.61523 c 0,-2.93547 -1.31947,-5.68866 -3.55664,-7.83008 -2.14141,-2.23715 -4.89268,-3.55469 -7.82813,-3.55469 z m 0,4.80078 h 50.61719 c 1.63531,0 2.95048,0.56937 4.39649,2.09571 l 0.0449,0.0469 0.0469,0.0449 c 1.52634,1.44601 2.09571,2.76118 2.09571,4.39649 v 50.61523 c 0,1.50544 -0.57325,2.87403 -2.14258,4.44336 -1.4356,1.4356 -2.77132,1.99219 -4.44141,1.99219 h -50.61719 c -1.53191,0 -2.9101,-0.55982 -4.45898,-2.01758 -1.41691,-1.42602 -1.97461,-2.75769 -1.97461,-4.41797 v -50.61523 c 0,-1.67009 0.55659,-3.00777 1.99219,-4.44336 l 0.0215,-0.0215 0.0234,-0.0234 c 1.446,-1.52634 2.76118,-2.09571 4.39648,-2.09571 z"
         id="text10"
         inkscape:label="R"
         transform="scale(0.9999112,1.0000888)" />
      <path
         style="color:#000000;-inkscape-font-specification:'LoRes 9 Plus OT';fill:#000000;-inkscape-stroke:none"
         d="m 278.83398,305.2832 c -2.99598,0 -5.81221,1.22432 -7.98632,3.39844 l -0.0234,0.0254 -0.0234,0.0254 c -2.04753,2.16797 -3.20117,4.89965 -3.20117,7.78711 v 16.62109 c 0,2.81451 1.16888,5.48684 3.20117,7.63868 l 0.0469,0.0508 0.0488,0.0469 c 2.1841,2.06276 4.97485,3.20118 7.9375,3.20117 h 50.31641 c 1.79601,0 3.17192,0.57231 4.5918,1.99219 1.41988,1.41988 1.99218,2.79579 1.99218,4.5918 v 152.74414 c 0,2.99599 1.22433,5.81417 3.39844,7.98828 l 0.0254,0.0234 0.0254,0.0234 c 2.16797,2.04752 4.89965,3.20117 7.78711,3.20117 h 50.61524 c 2.8145,0 5.47392,-1.18486 7.53711,-3.24805 2.17411,-2.17411 3.39843,-4.99229 3.39843,-7.98828 V 350.66211 c 0,-1.67009 0.5566,-3.00777 1.99219,-4.44336 1.55445,-1.55445 2.95845,-2.14063 4.59375,-2.14063 h 50.61524 c 2.80292,0 5.46018,-1.16478 7.60742,-3.18164 2.28385,-2.05367 3.62695,-4.80856 3.62695,-7.75586 v -16.62109 c 0,-2.83938 -1.25198,-5.51973 -3.37891,-7.6582 -2.14491,-2.25312 -4.90859,-3.57813 -7.85546,-3.57813 z m 0,4.80078 h 186.88868 c 1.6353,0 2.95048,0.56937 4.39648,2.09571 l 0.0234,0.0234 0.0215,0.0234 c 1.45131,1.45131 1.99414,2.75118 1.99414,4.29297 v 16.62109 c 0,1.63531 -0.55086,2.86459 -2.04687,4.20313 l -0.0234,0.0215 -0.0234,0.0215 c -1.44215,1.36203 -2.76363,1.89062 -4.34179,1.89062 h -50.61524 c -2.95702,0 -5.74906,1.30962 -7.98828,3.54883 -2.1584,2.1584 -3.39844,4.9137 -3.39844,7.83594 v 152.74414 c 0,1.79601 -0.5723,3.17387 -1.99218,4.59375 -1.33114,1.33114 -2.56442,1.8418 -4.14258,1.8418 h -50.6153 c -1.69415,0 -3.04857,-0.54473 -4.46484,-1.87305 -1.39765,-1.4091 -1.9707,-2.77937 -1.9707,-4.5625 v -152.7441 c 0,-2.99599 -1.22433,-5.81221 -3.39844,-7.98633 -2.17412,-2.17411 -4.99034,-3.39844 -7.98633,-3.39844 h -50.31641 c -1.80704,0 -3.19529,-0.55869 -4.58789,-1.85547 -1.3178,-1.41747 -1.84765,-2.72635 -1.84765,-4.28125 v -16.62109 c 0,-1.69326 0.54431,-3.04744 1.87109,-4.46289 1.41032,-1.40015 2.77987,-1.97266 4.56445,-1.97266 z"
         id="text11"
         inkscape:label="T"
         transform="scale(0.9999112,1.0000888)" />
      <path
         style="color:#000000;-inkscape-font-specification:'LoRes 9 Plus OT';fill:#000000;-inkscape-stroke:none"
         d="m 89.425781,305.2832 c -3.071822,0 -5.946889,1.20861 -8.136719,3.39844 l -0.02539,0.0254 -0.02344,0.0254 c -2.047528,2.16797 -3.199218,4.89965 -3.199218,7.78711 v 186.88672 c 0,2.96266 1.136457,5.7534 3.199218,7.9375 l 0.04883,0.0508 0.04883,0.0469 c 2.200229,2.07799 5.048068,3.20117 8.08789,3.20117 H 242.16992 c 2.81451,0 5.48683,-1.16888 7.63867,-3.20117 v -0.002 h 0.002 c 2.28343,-2.16325 3.5957,-5.00388 3.5957,-8.0332 V 487.084 c 0,-2.97225 -1.23401,-5.74908 -3.4082,-7.82812 -2.07904,-2.17417 -4.85588,-3.40625 -7.82813,-3.40625 h -84.75781 c -1.53237,0 -2.91345,-0.56081 -4.46289,-2.01953 -1.40017,-1.41033 -1.97266,-2.78182 -1.97266,-4.56641 v -50.3164 c 0,-1.79601 0.55624,-3.08447 1.94336,-4.39454 l 0.0254,-0.0234 0.0234,-0.0234 c 1.43559,-1.43559 2.77327,-1.99219 4.44336,-1.99219 h 50.61523 c 2.91202,0 5.65554,-1.23642 7.81055,-3.38086 2.25186,-2.14464 3.57422,-4.90948 3.57422,-7.85547 v -16.62109 c 0,-2.86623 -1.35508,-5.54324 -3.60547,-7.57813 -2.1508,-2.12734 -4.87984,-3.35937 -7.7793,-3.35937 h -50.61523 c -1.52294,0 -2.89772,-0.55937 -4.43555,-1.99805 -1.42686,-1.525 -2,-2.93534 -2,-4.58593 V 350.6622 c 0,-1.67009 0.5566,-3.00777 1.99219,-4.44336 l 0.0234,-0.0215 0.0215,-0.0234 c 1.446,-1.52634 2.76313,-2.0957 4.39844,-2.09571 h 84.75781 c 2.8015,0 5.4588,-1.16472 7.60547,-3.17968 2.28514,-2.05388 3.63086,-4.80961 3.63086,-7.75782 v -16.62109 c 0,-2.83937 -1.25198,-5.51973 -3.37891,-7.6582 -2.14492,-2.25312 -4.91054,-3.57813 -7.85742,-3.57813 z m 0,4.80078 H 242.16992 c 1.63531,0 2.95244,0.56937 4.39844,2.09571 l 0.0215,0.0234 0.0234,0.0234 c 1.45131,1.45131 1.99219,2.75118 1.99219,4.29297 v 16.62109 c 0,1.63531 -0.54891,2.86459 -2.04492,4.20313 l -0.0254,0.0215 -0.0234,0.0215 c -1.44216,1.36203 -2.76364,1.89062 -4.3418,1.89062 h -84.75781 c -2.94598,0 -5.71082,1.32236 -7.85547,3.57422 -2.14444,2.15502 -3.38086,4.89853 -3.38086,7.81055 v 16.47266 c 0,2.92224 1.224,5.69162 3.35352,7.93945 l 0.0449,0.0469 0.0469,0.0449 c 2.23257,2.11506 4.94015,3.35351 7.79102,3.35351 h 50.61523 c 1.67009,0 3.00777,0.5566 4.44336,1.99219 l 0.0469,0.0469 0.0488,0.0449 c 1.51344,1.35413 2.04492,2.5473 2.04492,4.05273 v 16.62109 c 0,1.63531 -0.56937,2.95244 -2.09571,4.39844 l -0.0234,0.0215 -0.0215,0.0234 c -1.43559,1.4356 -2.77327,1.99219 -4.44336,1.99219 h -50.61523 c -2.90826,0 -5.64898,1.23568 -7.80274,3.375 -2.19368,2.08219 -3.43359,4.87295 -3.43359,7.85938 v 50.3164 c 0,2.99599 1.22432,5.81221 3.39844,7.98633 l 0.0234,0.0234 0.0234,0.0234 c 2.23257,2.11507 4.94015,3.35157 7.79102,3.35157 h 84.75781 c 1.79601,0 3.08447,0.55623 4.39453,1.94336 l 0.0469,0.0508 0.0508,0.0469 c 1.38713,1.31007 1.94336,2.59853 1.94336,4.39453 v 16.32227 c 0,1.76127 -0.58621,3.11545 -2.09375,4.54492 -1.44216,1.36204 -2.76364,1.89063 -4.3418,1.89063 H 89.425781 c -1.925995,0 -3.357625,-0.57398 -4.734375,-1.85352 -1.292085,-1.39026 -1.851562,-2.77801 -1.851562,-4.58203 V 316.51953 c 0,-1.69236 0.543897,-3.0463 1.86914,-4.46094 1.396188,-1.38659 2.808111,-1.97461 4.716797,-1.97461 z"
         id="text12"
         inkscape:label="E"
         transform="scale(0.9999112,1.0000888)" />
    </g>
    <g
       inkscape:groupmode="layer"
       id="layer4"
       inkscape:label="BERT"
       style="display:inline">
      <path
         style="color:#000000;-inkscape-font-specification:'LoRes 9 Plus OT';fill:#000000;stroke-linecap:square;-inkscape-stroke:none"
         d="m 786.92578,14.142578 c -2.99597,0 -5.81222,1.224336 -7.98633,3.398438 l -0.0234,0.02539 -0.0234,0.02344 c -2.04752,2.167959 -3.20117,4.901618 -3.20117,7.789062 V 42 c 0,2.814488 1.16889,5.486842 3.20117,7.638672 l 0.0469,0.04883 0.0488,0.04687 c 2.18409,2.062747 4.97486,3.201172 7.9375,3.201172 h 50.31641 c 1.79599,0 3.17193,0.572319 4.59179,1.992187 1.41988,1.419869 1.99219,2.79776 1.99219,4.59375 V 212.26562 c 0,2.99597 1.22434,5.81223 3.39844,7.98633 l 0.0254,0.0234 0.0234,0.0234 c 2.16795,2.04752 4.90161,3.20117 7.78906,3.20117 h 50.61523 c 2.8145,0 5.47394,-1.18486 7.53711,-3.24805 2.17411,-2.1741 3.39844,-4.99036 3.39844,-7.98633 V 59.521484 c 0,-1.67007 0.5566,-3.007777 1.99219,-4.443359 1.55443,-1.554436 2.9565,-2.142578 4.5918,-2.142578 h 50.61523 c 2.80291,0 5.46214,-1.164794 7.60937,-3.181641 2.28256,-2.053469 3.62696,-4.807532 3.62696,-7.753906 V 25.378906 c 0,-2.839359 -1.252,-5.519746 -3.37891,-7.658203 -2.14491,-2.253104 -4.91056,-3.578125 -7.85742,-3.578125 z m 0,4.800781 H 973.8125 c 1.63528,0 2.95244,0.569377 4.39844,2.095703 l 0.0215,0.02344 0.0234,0.02344 c 1.45129,1.451295 1.99219,2.751187 1.99219,4.292969 V 42 c 0,1.635291 -0.54893,2.862646 -2.04493,4.201172 l -0.0254,0.02148 -0.0234,0.02344 c -1.44215,1.362026 -2.76366,1.890625 -4.3418,1.890625 h -50.61523 c -2.95701,0 -5.74713,1.307672 -7.98633,3.546875 -2.1584,2.15839 -3.39844,4.915662 -3.39844,7.83789 V 212.26562 c 0,1.79599 -0.57232,3.17193 -1.99219,4.5918 -1.33112,1.33113 -2.56443,1.8418 -4.14258,1.8418 H 855.0625 c -1.69414,0 -3.04859,-0.54473 -4.46484,-1.87305 -1.39762,-1.40908 -1.97071,-2.77745 -1.97071,-4.56055 V 59.521484 c 0,-2.995974 -1.22432,-5.812224 -3.39843,-7.986328 -2.17411,-2.174105 -4.99036,-3.398437 -7.98633,-3.398437 h -50.31641 c -1.80607,0 -3.19409,-0.558238 -4.58594,-1.853516 C 781.01958,44.864351 780.49023,43.556191 780.49023,42 V 25.378906 c 0,-1.693245 0.54433,-3.04745 1.8711,-4.46289 1.41031,-1.400146 2.77989,-1.972657 4.56445,-1.972657 z"
         id="text5"
         inkscape:label="T"
         transform="scale(0.99990981,1.0000902)" />
      <path
         style="color:#000000;-inkscape-font-specification:'LoRes 9 Plus OT';fill:#000000;stroke-linecap:square;-inkscape-stroke:none"
         d="m 563.52539,14.142578 c -3.0718,0 -5.9469,1.208621 -8.13672,3.398438 l -0.0234,0.02539 -0.0234,0.02344 c -2.04753,2.167958 -3.20117,4.901616 -3.20118,7.789062 V 212.26562 c 0,2.96264 1.13842,5.75342 3.20118,7.9375 l 0.0469,0.0488 0.0488,0.0469 c 2.20022,2.07799 5.04809,3.20117 8.08789,3.20117 h 50.31641 c 2.95058,0 5.7132,-1.14824 7.80664,-3.22852 2.20804,-2.09817 3.42773,-4.94563 3.42773,-8.00586 v -50.3164 c 0,-1.91982 0.57332,-3.251 1.94336,-4.54492 l 0.0254,-0.0234 0.0234,-0.0234 c 1.43558,-1.43558 2.77328,-1.99414 4.44336,-1.99414 h 16.62109 c 1.54179,0 2.75339,0.52404 4.09571,1.94531 l 0.0234,0.0234 0.0254,0.0254 c 1.41987,1.41988 1.99219,2.79581 1.99219,4.5918 v 16.17383 c 0,2.99597 1.22434,5.81222 3.39844,7.98632 2.1741,2.17411 4.99035,3.39844 7.98633,3.39844 h 16.47265 c 1.796,0 3.17193,0.57232 4.5918,1.99219 l 0.0254,0.0234 0.0234,0.0234 c 1.38711,1.31005 1.94336,2.59854 1.94336,4.39454 v 16.32421 c 0,2.96264 1.13841,5.75342 3.20117,7.9375 l 0.0234,0.0234 0.0254,0.0254 c 2.07981,2.07983 4.7981,3.24805 7.68554,3.24805 h 50.61524 c 2.81449,0 5.48684,-1.16888 7.63867,-3.20117 h 0.002 v -0.002 c 2.28343,-2.16324 3.59571,-5.00194 3.59571,-8.03125 v -16.32421 c 0,-2.97262 -1.23352,-5.74706 -3.40821,-7.82618 -2.07911,-2.17468 -4.85551,-3.4082 -7.82812,-3.4082 h -16.32227 c -1.8055,0 -3.19257,-0.55911 -4.58398,-1.85351 -1.2781,-1.37608 -1.85156,-2.80552 -1.85156,-4.73047 v -50.31641 c 0,-1.82932 0.54589,-3.1455 1.84375,-4.44336 l 0.0234,-0.0234 0.0234,-0.0254 c 1.29392,-1.37003 2.6251,-1.94336 4.54492,-1.94336 h 16.32227 c 2.83936,0 5.51975,-1.25199 7.6582,-3.3789 2.2531,-2.14491 3.57813,-4.90861 3.57813,-7.85547 V 59.521484 c 0,-2.910573 -1.23643,-5.654068 -3.37891,-7.808593 -2.14491,-2.253104 -4.91056,-3.576172 -7.85742,-3.576172 h -16.32227 c -1.81693,0 -3.21107,-0.558937 -4.61133,-1.871094 C 728.03335,44.960686 727.50391,43.693159 727.50391,42 V 25.378906 c 0,-2.839362 -1.252,-5.519745 -3.37891,-7.658203 -2.14491,-2.253102 -4.9086,-3.578125 -7.85547,-3.578125 z m 0,4.800781 h 152.74414 c 1.63529,0 2.9505,0.56938 4.39649,2.095703 l 0.0234,0.02344 0.0234,0.02344 c 1.45129,1.451295 1.99219,2.751187 1.99219,4.292969 V 42 c 0,2.887446 1.16822,5.607683 3.24804,7.6875 l 0.0234,0.02344 0.0254,0.02344 c 2.18409,2.06275 4.97487,3.201172 7.9375,3.201172 h 16.32227 c 1.63529,0 2.95245,0.569379 4.39844,2.095703 l 0.0215,0.02344 0.0234,0.02344 c 1.43558,1.435581 1.99219,2.773286 1.99219,4.443359 v 50.615236 c 0,1.63529 -0.56939,2.95049 -2.09571,4.39648 l -0.0234,0.0234 -0.0234,0.0215 c -1.4513,1.45129 -2.75119,1.99414 -4.29297,1.99414 H 733.9394 c -3.06171,0 -5.9113,1.2196 -8.00976,3.42968 -2.07779,2.09297 -3.22461,4.85596 -3.22461,7.80469 v 50.31641 c 0,3.0398 1.12318,5.88571 3.20117,8.08593 l 0.0469,0.0508 0.0488,0.0469 c 2.18409,2.06275 4.97487,3.20117 7.9375,3.20117 h 16.32227 c 1.79599,0 3.08643,0.55625 4.39648,1.94336 l 0.0469,0.0488 0.0488,0.0469 c 1.38711,1.31005 1.94336,2.59854 1.94336,4.39454 v 16.32421 c 0,1.76125 -0.58622,3.11351 -2.09375,4.54297 -1.44215,1.36203 -2.76366,1.89063 -4.3418,1.89063 h -50.61524 c -1.69165,0 -2.958,-0.52806 -4.26171,-1.82031 -1.31367,-1.40101 -1.87305,-2.79539 -1.87305,-4.61329 v -16.32421 c 0,-2.98511 -1.23587,-5.77553 -3.42774,-7.85743 -2.17045,-2.15755 -4.97325,-3.37695 -7.95703,-3.37695 H 665.6543 c -1.796,0 -3.17193,-0.57232 -4.5918,-1.99219 -1.41987,-1.41987 -1.99414,-2.79581 -1.99414,-4.59179 v -16.17383 c 0,-2.98506 -1.22157,-5.78814 -3.38086,-7.95899 -2.04849,-2.1553 -4.71635,-3.42578 -7.55469,-3.42578 h -16.62109 c -2.90968,0 -5.65242,1.2357 -7.80664,3.37696 -2.20805,2.09818 -3.42969,4.94758 -3.42969,8.00781 v 50.3164 c 0,1.91982 -0.57332,3.24905 -1.94336,4.54297 l -0.0234,0.0254 -0.0254,0.0234 c -1.29786,1.29786 -2.61209,1.8418 -4.4414,1.8418 h -50.31641 c -1.92757,0 -3.35854,-0.57367 -4.73633,-1.85547 -1.29059,-1.3895 -1.84961,-2.77509 -1.84961,-4.57813 V 25.378906 c 0,-1.692348 0.54391,-3.046308 1.86914,-4.460937 1.39618,-1.386582 2.80814,-1.97461 4.7168,-1.97461 z m 67.98633,29.19336 c -2.94687,0 -5.71252,1.323068 -7.85742,3.576172 -2.14249,2.154525 -3.37891,4.89802 -3.37891,7.808593 v 50.615236 c 0,2.92223 1.24005,5.67755 3.39844,7.83594 l 0.0234,0.0234 0.0234,0.0215 c 2.23256,2.11505 4.94017,3.35351 7.79102,3.35351 h 50.61523 c 2.92223,0 5.67755,-1.24004 7.83594,-3.39843 2.22432,-2.22432 3.54883,-4.94873 3.54883,-7.83594 V 59.521484 c 0,-2.935449 -1.31949,-5.688675 -3.55664,-7.830078 -2.1414,-2.237139 -4.89269,-3.554687 -7.82813,-3.554687 z m 0,4.798828 h 50.61523 c 1.6353,0 2.9505,0.569379 4.39649,2.095703 l 0.0449,0.04687 0.0469,0.04492 c 1.52633,1.445991 2.09571,2.763147 2.09571,4.398437 v 50.615233 c 0,1.50542 -0.57326,2.87208 -2.14258,4.44141 -1.43558,1.43557 -2.77133,1.99414 -4.44141,1.99414 h -50.61523 c -1.53191,0 -2.91207,-0.56179 -4.46094,-2.01954 -1.41689,-1.42601 -1.97461,-2.75575 -1.97461,-4.41601 V 59.521484 c 0,-1.670073 0.55661,-3.007778 1.99219,-4.443359 l 0.0234,-0.02344 0.0215,-0.02344 c 1.44599,-1.526324 2.76315,-2.095703 4.39844,-2.095703 z"
         id="text6"
         inkscape:label="R"
         transform="scale(0.99990981,1.0000902)" />
      <path
         style="color:#000000;-inkscape-font-specification:'LoRes 9 Plus OT';fill:#000000;stroke-linecap:square;-inkscape-stroke:none"
         d="m 339.97461,14.142578 c -3.07181,0 -5.9469,1.208619 -8.13672,3.398438 l -0.0234,0.02539 -0.0234,0.02344 c -2.04752,2.167959 -3.20118,4.901618 -3.20118,7.789062 V 212.26562 c 0,2.96264 1.13843,5.75342 3.20118,7.9375 l 0.0469,0.0488 0.0508,0.0469 c 2.20022,2.07799 5.04613,3.20117 8.08594,3.20117 h 152.74414 c 2.81449,0 5.48684,-1.16888 7.63867,-3.20117 l 0.002,-0.002 c 2.28343,-2.16324 3.59376,-5.00194 3.59375,-8.03125 v -16.32421 c 0,-2.97409 -1.23344,-5.75064 -3.41015,-7.83008 -2.0787,-2.17215 -4.85346,-3.4043 -7.82422,-3.4043 h -84.75781 c -1.53312,0 -2.91253,-0.5592 -4.46289,-2.01953 -1.40016,-1.41032 -1.97266,-2.77989 -1.97266,-4.56445 v -50.31641 c 0,-1.79598 0.55624,-3.08447 1.94336,-4.39453 l 0.0254,-0.0234 0.0234,-0.0254 c 1.43558,-1.43558 2.77328,-1.99219 4.44336,-1.99219 h 50.61523 c 2.912,0 5.65554,-1.23643 7.81055,-3.38086 2.25184,-2.14463 3.57422,-4.90755 3.57422,-7.85351 V 93.513672 c 0,-2.864815 -1.35512,-5.539708 -3.60352,-7.574219 -2.15109,-2.128558 -4.88091,-3.361328 -7.78125,-3.361328 h -50.61523 c -1.52292,0 -2.89579,-0.559402 -4.4336,-1.998047 -1.42685,-1.524996 -2.00195,-2.935362 -2.00195,-4.585937 V 59.521484 c 0,-1.67007 0.5566,-3.007777 1.99219,-4.443359 l 0.0234,-0.02344 0.0234,-0.02344 c 1.44599,-1.526324 2.7612,-2.095703 4.39649,-2.095703 h 84.75781 c 2.80292,0 5.46214,-1.164793 7.60937,-3.181641 2.28256,-2.053469 3.625,-4.807532 3.625,-7.753906 V 25.378906 c 0,-2.840774 -1.252,-5.523132 -3.38085,-7.662109 -2.14436,-2.250599 -4.90845,-3.574219 -7.85352,-3.574219 z m 0,4.800781 h 152.74414 c 1.63529,0 2.95245,0.56938 4.39844,2.095703 l 0.0215,0.02344 0.0234,0.02344 c 1.4513,1.451296 1.99219,2.751189 1.99219,4.292969 V 42 c 0,1.635291 -0.54893,2.862646 -2.04493,4.201172 l -0.0254,0.02148 -0.0234,0.02344 c -1.44215,1.362025 -2.76365,1.890625 -4.3418,1.890625 h -84.75781 c -2.94507,0 -5.70916,1.32167 -7.85352,3.572265 -2.14444,2.155003 -3.38086,4.900491 -3.38086,7.8125 v 16.472657 c 0,2.922228 1.22205,5.691639 3.35156,7.939453 l 0.0449,0.04687 0.0469,0.04492 c 2.23255,2.115051 4.94016,3.353515 7.79102,3.353515 h 50.61523 c 1.67007,0 3.00777,0.556603 4.44336,1.992188 l 0.0469,0.04687 0.0488,0.04492 c 1.51343,1.354118 2.04493,2.545362 2.04493,4.050781 V 110.1367 c 0,1.63529 -0.56938,2.95049 -2.09571,4.39648 l -0.0234,0.0234 -0.0215,0.0215 c -1.43559,1.43558 -2.77329,1.99414 -4.44336,1.99414 h -50.61523 c -2.90967,0 -5.65047,1.23374 -7.80469,3.375 -2.1924,2.08198 -3.42969,4.87388 -3.42969,7.85937 V 178.123 c 0,2.99597 1.22433,5.81222 3.39844,7.98632 l 0.0215,0.0215 0.0234,0.0234 c 2.23255,2.11505 4.94017,3.35351 7.79102,3.35351 h 84.75781 c 1.79599,0 3.08448,0.55625 4.39453,1.94336 l 0.0469,0.0488 0.0508,0.0469 c 1.38711,1.31005 1.94336,2.59854 1.94336,4.39454 v 16.32421 c 0,1.76125 -0.58622,3.11351 -2.09375,4.54297 -1.44215,1.36203 -2.76366,1.89063 -4.3418,1.89063 H 339.97461 c -1.92557,0 -3.35596,-0.57262 -4.73242,-1.85156 -1.29296,-1.39069 -1.85157,-2.77747 -1.85157,-4.58204 V 25.378906 c 0,-1.693783 0.54341,-3.048914 1.8711,-4.464844 1.39477,-1.383497 2.80618,-1.970703 4.71289,-1.970703 z"
         id="text7"
         inkscape:label="E"
         transform="scale(0.99990981,1.0000902)" />
      <path
         style="color:#000000;-inkscape-font-specification:'LoRes 9 Plus OT';display:inline;fill:#000000;stroke-linecap:square;-inkscape-stroke:none"
         d="m 82.431641,14.142578 c -3.071806,0 -5.946901,1.208621 -8.136719,3.398438 l -0.02344,0.02539 -0.02344,0.02344 c -2.047517,2.167959 -3.201172,4.901618 -3.201172,7.789062 V 212.26562 c 0,2.96264 1.138422,5.75342 3.201172,7.9375 l 0.04687,0.0488 0.04883,0.0469 c 2.200217,2.07799 5.048083,3.20117 8.087891,3.20117 H 235.17578 c 2.81449,0 5.48489,-1.16888 7.63672,-3.20117 h 0.002 l 0.002,-0.002 c 2.28342,-2.16323 3.59375,-5.00194 3.59375,-8.03125 v -16.32421 c 0,-1.95182 0.56253,-3.31058 1.84375,-4.5918 1.28121,-1.28121 2.63997,-1.8418 4.59179,-1.8418 h 16.32227 c 2.83936,0 5.51975,-1.25199 7.6582,-3.3789 2.26908,-2.16047 3.57813,-4.98685 3.57813,-8.00586 v -50.31641 c 0,-2.98548 -1.2373,-5.77739 -3.42969,-7.85937 -2.15422,-2.14126 -4.89697,-3.375 -7.80664,-3.375 H 252.8457 c -1.78457,0 -3.15414,-0.57447 -4.56445,-1.97461 -1.32677,-1.41544 -1.87109,-2.76769 -1.87109,-4.46094 V 93.513672 c 0,-1.578146 0.51262,-2.811451 1.84375,-4.142578 1.41986,-1.419868 2.7958,-1.992188 4.59179,-1.992188 h 16.32227 c 2.85085,0 5.54482,-1.255759 7.6875,-3.398437 2.2392,-2.239203 3.54883,-5.02932 3.54883,-7.986328 V 59.521484 c 0,-2.910573 -1.23643,-5.654068 -3.37891,-7.808593 -2.14491,-2.253104 -4.91056,-3.576172 -7.85742,-3.576172 H 252.8457 c -1.81694,0 -3.21107,-0.558938 -4.61133,-1.871094 C 246.9396,44.960687 246.41016,43.693161 246.41016,42 V 25.378906 c 0,-2.839364 -1.25199,-5.519746 -3.37891,-7.658203 -2.14491,-2.253102 -4.9086,-3.578125 -7.85547,-3.578125 z m 0,4.800781 H 235.17578 c 1.63529,0 2.9505,0.56938 4.39649,2.095703 l 0.0234,0.02344 0.0234,0.02344 c 1.4513,1.451296 1.99219,2.751189 1.99219,4.292969 V 42 c 0,2.887444 1.16823,5.607682 3.24804,7.6875 l 0.0234,0.02344 0.0254,0.02344 c 2.18409,2.062751 4.97486,3.201172 7.9375,3.201172 h 16.32227 c 1.63529,0 2.95245,0.569379 4.39844,2.095703 l 0.0215,0.02344 0.0234,0.02344 c 1.43558,1.435581 1.99219,2.773286 1.99219,4.443359 v 16.472657 c 0,1.63529 -0.58815,3.03736 -2.14258,4.591796 -1.4513,1.451295 -2.75119,1.992188 -4.29297,1.992188 H 252.8457 c -2.99597,0 -5.81222,1.224332 -7.98633,3.398437 -2.06317,2.063181 -3.24804,4.722621 -3.24804,7.53711 v 16.623048 c 0,2.88744 1.15365,5.61915 3.20117,7.78711 l 0.0234,0.0254 0.0234,0.0234 c 2.17411,2.1741 4.99036,3.39843 7.98633,3.39843 h 16.32227 c 1.67007,0 3.00778,0.55661 4.44336,1.99219 l 0.0234,0.0254 0.0254,0.0234 c 1.38711,1.31006 1.94336,2.59854 1.94336,4.39453 V 178.123 c 0,1.76265 -0.58549,3.11614 -2.09571,4.54687 l -0.0234,0.0215 -0.0234,0.0234 c -1.4513,1.4513 -2.75119,1.99219 -4.29297,1.99219 H 252.8457 c -3.0398,0 -5.87323,1.13496 -7.98633,3.24805 -2.11308,2.11309 -3.24804,4.94652 -3.24804,7.98633 v 16.32421 c 0,1.76125 -0.58621,3.11351 -2.09375,4.54297 -1.44214,1.36203 -2.76365,1.89063 -4.3418,1.89063 H 82.431641 c -1.927579,0 -3.358539,-0.57367 -4.736329,-1.85547 -1.290585,-1.3895 -1.849609,-2.77509 -1.849609,-4.57813 V 25.378906 c 0,-1.69235 0.543908,-3.046309 1.869141,-4.460937 1.396176,-1.386582 2.808127,-1.97461 4.716797,-1.97461 z m 67.986329,29.19336 c -2.94687,0 -5.71251,1.32307 -7.85742,3.576172 -2.14249,2.154525 -3.37891,4.89802 -3.37891,7.808593 v 16.472657 c 0,2.922225 1.22401,5.691638 3.35352,7.939453 l 0.0449,0.04687 0.0469,0.04492 c 2.23256,2.115049 4.94017,3.353515 7.79102,3.353515 h 50.61523 c 2.92223,0 5.67755,-1.240049 7.83594,-3.398437 2.2392,-2.239203 3.54883,-5.02932 3.54883,-7.986328 v -16.47265 c 0,-2.935449 -1.31949,-5.688675 -3.55664,-7.830078 -2.1414,-2.237136 -4.89269,-3.554687 -7.82813,-3.554687 z m 0,4.798828 h 50.61523 c 1.63529,0 2.95049,0.569376 4.39649,2.095703 l 0.0449,0.04687 0.0469,0.04492 c 1.52633,1.445991 2.09571,2.763147 2.09571,4.398437 v 16.472657 c 0,1.63529 -0.58815,3.03736 -2.14258,4.591796 -1.43559,1.435585 -2.77134,1.992188 -4.44141,1.992188 h -50.61523 c -1.52292,0 -2.89773,-0.5594 -4.43555,-1.998047 -1.42685,-1.524995 -2,-2.93536 -2,-4.585937 v -16.47265 c 0,-1.670073 0.55661,-3.007778 1.99219,-4.443359 l 0.0234,-0.02344 0.0215,-0.02344 c 1.446,-1.526326 2.76315,-2.095703 4.39844,-2.095703 z m 0,63.636723 c -2.90825,0 -5.64898,1.23374 -7.80274,3.37304 -2.19366,2.08219 -3.43359,4.87492 -3.43359,7.86133 v 50.31641 c 0,2.99597 1.22434,5.81222 3.39844,7.98632 l 0.0234,0.0215 0.0234,0.0234 c 2.23256,2.11504 4.94017,3.35351 7.79102,3.35351 h 50.61523 c 2.99597,0 5.81223,-1.22433 7.98633,-3.39844 2.17411,-2.1741 3.39844,-4.99035 3.39844,-7.98632 v -50.31641 c 0,-2.9851 -1.23587,-5.77748 -3.42774,-7.85937 -2.17045,-2.15756 -4.97325,-3.375 -7.95703,-3.375 z m 0,4.79882 h 50.61523 c 1.79599,0 3.17193,0.57232 4.5918,1.99219 l 0.0234,0.0254 0.0254,0.0234 c 1.38712,1.31006 1.94336,2.59855 1.94336,4.39453 v 50.31641 c 0,1.79598 -0.57231,3.17192 -1.99219,4.59179 -1.41987,1.41987 -2.79581,1.99219 -4.5918,1.99219 h -50.61523 c -1.53159,0 -2.91245,-0.55855 -4.46094,-2.01562 -1.40268,-1.41155 -1.97461,-2.78233 -1.97461,-4.56836 v -50.31641 c 0,-1.79599 0.55625,-3.08447 1.94336,-4.39453 l 0.0254,-0.0234 0.0234,-0.0254 c 1.43559,-1.43558 2.77328,-1.99219 4.44336,-1.99219 z"
         id="text8"
         inkscape:label="B"
         transform="scale(0.99990981,1.0000902)" />
    </g>
  </g>
</svg>
