<?xml version="1.0" encoding="UTF-8" standalone="no"?>
<!-- Created with Inkscape (http://www.inkscape.org/) -->

<svg
   width="11in"
   height="8.5in"
   viewBox="0 0 1056 816"
   version="1.1"
   id="svg1"
   inkscape:version="1.3.2 (091e20e, 2023-11-25, custom)"
   sodipodi:docname="Drawing.svg"
   xmlns:inkscape="http://www.inkscape.org/namespaces/inkscape"
   xmlns:sodipodi="http://sodipodi.sourceforge.net/DTD/sodipodi-0.dtd"
   xmlns="http://www.w3.org/2000/svg"
   xmlns:svg="http://www.w3.org/2000/svg">
  <sodipodi:namedview
     id="namedview1"
     pagecolor="#ffffff"
     bordercolor="#000000"
     borderopacity="0.25"
     inkscape:showpageshadow="2"
     inkscape:pageopacity="0.0"
     inkscape:pagecheckerboard="0"
     inkscape:deskcolor="#d1d1d1"
     inkscape:document-units="in"
     inkscape:zoom="1.4142136"
     inkscape:cx="660.79128"
     inkscape:cy="660.79128"
     inkscape:window-width="1366"
     inkscape:window-height="697"
     inkscape:window-x="-8"
     inkscape:window-y="-8"
     inkscape:window-maximized="1"
     inkscape:current-layer="layer6" />
  <defs
     id="defs1" />
  <g
     inkscape:label="Letters_fill"
     inkscape:groupmode="layer"
     id="g4"
     style="display:inline"
     sodipodi:insensitive="true">
    <g
       inkscape:groupmode="layer"
       id="layer9"
       inkscape:label="MT">
      <path
         id="text23"
         style="font-size:306.667px;font-family:'LoRes 9 Plus OT';-inkscape-font-specification:'LoRes 9 Plus OT';letter-spacing:-15px;fill:#4d4d4d;stroke-width:4.8"
         inkscape:label="T"
         d="m 563.40039,601.18359 c -1.78357,0 -3.15302,0.57227 -4.5625,1.97071 -1.32763,1.41581 -1.87109,2.77122 -1.87109,4.46484 v 16.62109 c 0,1.55555 0.53031,2.86303 1.84961,4.28125 1.39135,1.29432 2.77853,1.85352 4.58398,1.85352 h 50.31641 c 2.99595,0 5.81224,1.22444 7.98632,3.39844 2.1741,2.17399 3.39844,4.9905 3.39844,7.98633 v 152.73437 c 0,1.78294 0.57315,3.15158 1.97071,4.56055 1.41619,1.3282 2.76884,1.87304 4.46289,1.87304 h 50.61523 c 1.57807,0 2.81151,-0.51078 4.14258,-1.84179 1.41981,-1.41976 1.99414,-2.79598 1.99414,-4.5918 V 641.75977 c 0,-2.92208 1.24006,-5.67765 3.39844,-7.83594 2.23918,-2.23908 5.02934,-3.54883 7.98633,-3.54883 h 50.61132 c 1.57807,0 2.89972,-0.52872 4.3418,-1.89062 l 0.0234,-0.0215 0.0254,-0.0215 c 1.49594,-1.33841 2.04493,-2.56605 2.04492,-4.20118 v -16.62109 c 0,-1.54162 -0.54095,-2.84179 -1.99219,-4.29297 l -0.0234,-0.0234 -0.0215,-0.0234 c -1.44595,-1.5262 -2.76323,-2.09571 -4.39844,-2.09571 z" />
      <path
         id="text24"
         style="font-size:306.667px;font-family:'LoRes 9 Plus OT';-inkscape-font-specification:'LoRes 9 Plus OT';letter-spacing:-15px;fill:#4d4d4d;stroke-width:4.8"
         inkscape:label="M"
         d="m 305.86328,601.18359 c -1.90857,0 -3.31872,0.58817 -4.71484,1.97461 -1.32518,1.41452 -1.86914,2.76875 -1.86914,4.46094 v 186.875 c 0,1.80384 0.55955,3.18995 1.85156,4.58008 1.37668,1.27942 2.80652,1.85351 4.73242,1.85351 h 16.17578 c 1.95173,0 3.31063,-0.56069 4.5918,-1.84179 l 0.0234,-0.0254 0.0254,-0.0234 c 1.36998,-1.2938 1.94336,-2.62331 1.94336,-4.54297 v -84.45312 c 0,-2.98349 1.23594,-5.774 3.42578,-7.85547 2.15467,-2.1431 4.8975,-3.37891 7.80859,-3.37891 h 16.32227 c 2.95149,0 5.71492,1.14906 7.80859,3.23047 2.206,2.09779 3.42578,4.94532 3.42578,8.00391 v 16.32226 c 0,1.53174 0.55988,2.91025 2.01758,4.45899 1.42595,1.41677 2.7578,1.97461 4.41797,1.97461 h 50.61523 c 1.66999,-10e-6 3.00589,-0.55672 4.44141,-1.99219 l 0.0234,-0.0234 0.0234,-0.0215 c 1.52626,-1.44587 2.09571,-2.76137 2.09571,-4.39649 V 675.752 c 0,-2.80227 1.17977,-5.4485 3.22656,-7.50781 2.06548,-2.17482 4.79749,-3.42773 7.70899,-3.42773 h 16.62109 c 2.80434,0 5.46354,1.16495 7.61133,3.18359 2.28124,2.05317 3.62304,4.80664 3.62304,7.75195 v 118.74219 c 0,1.81621 0.55988,3.20968 1.8711,4.60938 1.2738,1.26334 2.62551,1.82421 4.56445,1.82421 h 50.31445 c 1.95174,0 3.3126,-0.56069 4.59375,-1.84179 l 0.0234,-0.0254 0.0254,-0.0234 c 1.36997,-1.2938 1.94336,-2.62331 1.94336,-4.54297 v -186.875 c 0,-1.54163 -0.54095,-2.84179 -1.99219,-4.29297 l -0.0234,-0.0234 -0.0234,-0.0234 c -1.43068,-1.51009 -2.78431,-2.09571 -4.54688,-2.09571 h -50.31445 c -1.78446,0 -3.1542,0.57264 -4.56445,1.97266 -1.32671,1.41533 -1.8711,2.76981 -1.8711,4.46289 v 16.62109 c 0,2.85071 -1.25578,5.54493 -3.39843,7.6875 l -0.0234,0.0234 -0.0254,0.0234 c -2.16794,2.04741 -4.89968,3.20117 -7.78711,3.20117 h -16.62109 c -1.50533,0 -2.78685,0.5534 -4.24805,2.0957 -1.34426,1.42459 -1.88672,2.78502 -1.88672,4.48829 v 16.47265 c 0,2.95687 -1.30965,5.74725 -3.54883,7.98633 -2.15838,2.15828 -4.91373,3.39844 -7.83594,3.39844 h -16.47265 c -2.92221,0 -5.69362,-1.22412 -7.94141,-3.35352 l -0.0469,-0.0449 -0.0449,-0.0469 c -2.12948,-2.2477 -3.35351,-5.01737 -3.35351,-7.93946 v -16.47265 c 0,-1.82917 -0.55914,-3.23087 -1.89063,-4.64063 -1.32612,-1.40407 -2.57415,-1.94336 -4.24414,-1.94336 h -16.62109 c -2.81448,0 -5.5004,-1.15422 -7.74023,-3.1582 l -0.0234,-0.0215 -0.0234,-0.0215 c -2.18976,-2.06802 -3.44922,-4.81229 -3.44922,-7.73438 v -16.62109 c 0,-1.54163 -0.54096,-2.84179 -1.99219,-4.29297 l -0.0469,-0.0469 -0.043,-0.0508 c -1.32288,-1.47845 -2.58898,-2.04493 -4.35156,-2.04493 z" />
    </g>
    <g
       inkscape:groupmode="layer"
       id="layer8"
       inkscape:label="ETRN">
      <path
         id="text19"
         style="font-size:306.692px;font-family:'LoRes 9 Plus OT';-inkscape-font-specification:'LoRes 9 Plus OT';letter-spacing:-15px;fill:#4d4d4d;stroke-width:4.8"
         inkscape:label="N"
         d="m 760.06774,310.08847 c -1.90669,0 -3.31653,0.58704 -4.71129,1.97056 -1.32769,1.41597 -1.87123,2.77069 -1.87123,4.46452 v 186.89052 c 0,1.80405 0.55962,3.19142 1.8517,4.58169 1.37672,1.27956 2.80486,1.85338 4.73082,1.85338 h 16.17502 c 1.95181,0 3.30897,-0.56041 4.59018,-1.84166 l 0.0254,-0.0254 0.0254,-0.0234 c 1.37002,-1.29396 1.94351,-2.62472 1.94351,-4.54459 V 384.6611 c 0,-2.8398 1.27072,-5.50911 3.42798,-7.55803 2.1545,-2.14252 4.89667,-3.37866 7.80722,-3.37866 h 16.32151 c 2.95148,0 5.71748,1.15064 7.81113,3.23218 2.17218,2.06504 3.42603,4.79492 3.42603,7.70451 v 50.61737 c 0,1.53194 0.55999,2.90974 2.01773,4.45865 1.42599,1.41693 2.75608,1.97642 4.41634,1.97642 h 16.62232 c 2.83831,0 5.50482,1.27018 7.55329,3.42553 2.15927,2.17089 3.38111,4.97523 3.38111,7.96035 v 50.31465 c 0,1.78315 0.57323,3.15304 1.97085,4.56216 1.40099,1.31369 2.79768,1.87291 4.61557,1.87291 h 84.60584 c 1.57647,0 2.89981,-0.52772 4.34017,-1.88658 1.5102,-1.43076 2.09586,-2.78579 2.09586,-4.54849 V 316.52355 c 0,-1.54182 -0.54105,-2.84133 -1.99234,-4.29266 l -0.0234,-0.0234 -0.0215,-0.0234 c -1.44599,-1.52635 -2.76349,-2.09555 -4.39877,-2.09555 h -16.32151 c -1.78455,0 -3.1545,0.57235 -4.56479,1.97252 -1.32676,1.41547 -1.87123,2.76927 -1.87123,4.46256 v 118.75492 c 0,2.85091 -1.23874,5.55589 -3.35376,7.78849 l -0.0215,0.0234 -0.0234,0.0234 c -2.15837,2.15843 -4.91237,3.39818 -7.83456,3.39818 H 896.1891 c -2.85082,0 -5.54151,-1.25546 -7.68416,-3.39818 l -0.0254,-0.0234 -0.0234,-0.0254 c -2.04748,-2.168 -3.2014,-4.89903 -3.2014,-7.78653 v -50.6174 c 0,-1.50545 -0.53166,-2.69828 -2.04508,-4.05243 l -0.0508,-0.0449 -0.0469,-0.0469 c -1.43556,-1.43561 -2.77167,-1.99204 -4.44173,-1.99204 h -16.47192 c -2.92219,0 -5.6942,-1.22372 -7.94199,-3.35327 l -0.0469,-0.0449 -0.0449,-0.0469 c -2.12948,-2.24786 -3.35181,-5.01659 -3.35181,-7.93887 v -50.61736 c 0,-1.57818 -0.52875,-2.8993 -1.89076,-4.34148 l -0.0234,-0.0234 -0.0215,-0.0254 c -1.33851,-1.49605 -2.56424,-2.04478 -4.19953,-2.04478 z"
         transform="scale(0.9999263,1.0000737)" />
      <path
         id="text20"
         style="font-size:306.692px;font-family:'LoRes 9 Plus OT';-inkscape-font-specification:'LoRes 9 Plus OT';letter-spacing:-15px;fill:#4d4d4d;stroke-width:4.8"
         inkscape:label="R"
         d="m 502.52727,310.08847 c -1.90669,0 -3.31848,0.58704 -4.71324,1.97056 -1.32768,1.41597 -1.87123,2.77069 -1.87123,4.46452 v 186.89052 c 0,1.80405 0.55964,3.19142 1.8517,4.58169 1.37672,1.27956 2.80681,1.85338 4.73277,1.85338 h 50.31621 c 1.8293,0 3.14585,-0.54378 4.44369,-1.84166 l 0.0234,-0.0254 0.0254,-0.0234 c 1.37003,-1.29396 1.9435,-2.62472 1.9435,-4.54459 v -50.31465 c 0,-3.05974 1.21878,-5.90911 3.42603,-8.00722 2.15451,-2.14253 4.89668,-3.37866 7.80722,-3.37866 h 16.62232 c 2.83832,0 5.50677,1.27018 7.55524,3.42553 2.15927,2.17089 3.38111,4.97523 3.38111,7.96035 v 16.17068 c 0,1.79604 0.57248,3.17351 1.99234,4.59341 1.41986,1.4199 2.7981,1.994 4.59408,1.994 h 16.47192 c 2.98322,0 5.78345,1.21983 7.95371,3.3767 2.1911,2.08182 3.42994,4.87223 3.42994,7.85684 v 16.32302 c 0,1.81794 0.55953,3.21387 1.87319,4.61489 1.3037,1.2923 2.57039,1.82018 4.26203,1.82018 h 50.61506 c 1.57813,0 2.89804,-0.52842 4.34016,-1.89048 1.50752,-1.42951 2.09391,-2.78329 2.09391,-4.54459 v -16.32302 c 0,-1.79602 -0.55639,-3.08411 -1.94351,-4.3942 l -0.0488,-0.0469 -0.0469,-0.0508 c -1.31003,-1.38715 -2.59888,-1.94322 -4.39485,-1.94322 H 672.9402 c -2.96259,0 -5.75207,-1.13815 -7.93613,-3.20093 l -0.0488,-0.0469 -0.0488,-0.0488 c -2.07798,-2.20027 -3.19946,-5.04938 -3.19946,-8.08925 v -50.3166 c 0,-2.95157 1.14922,-5.71431 3.23071,-7.80802 2.09787,-2.20606 4.94383,-3.42748 8.00254,-3.42748 h 16.32347 c 1.54177,0 2.84005,-0.54071 4.29133,-1.99204 l 0.0234,-0.0234 0.0234,-0.0215 c 1.52631,-1.44601 2.09586,-2.76278 2.09586,-4.39811 v -50.61541 c 0,-1.67012 -0.55677,-3.00742 -1.99234,-4.44304 l -0.0234,-0.0215 -0.0215,-0.0234 c -1.44598,-1.52636 -2.76153,-2.09554 -4.39681,-2.09554 H 672.9402 c -2.96259,0 -5.75207,-1.14011 -7.93613,-3.20289 l -0.0254,-0.0234 -0.0234,-0.0254 c -2.07978,-2.07985 -3.24829,-4.79943 -3.24829,-7.68693 v -16.62182 c 0,-1.54182 -0.54301,-2.84133 -1.99429,-4.29266 l -0.0215,-0.0234 -0.0234,-0.0234 c -1.44598,-1.52635 -2.76152,-2.09555 -4.39681,-2.09555 z m 67.98548,29.19317 h 50.61701 c 2.93541,0 5.68537,1.31919 7.82675,3.55637 2.23713,2.14145 3.5569,4.89399 3.5569,7.82951 v 50.61541 c 0,2.88727 -1.32479,5.61491 -3.54909,7.83926 -2.15836,2.15844 -4.91237,3.39819 -7.83456,3.39819 h -50.61701 c -2.85082,0 -5.5571,-1.23818 -7.78964,-3.35327 l -0.0234,-0.0234 -0.0234,-0.0215 c -2.15836,-2.15843 -3.39673,-4.91697 -3.39673,-7.83926 v -50.61541 c 0,-2.91207 1.23475,-5.65493 3.37916,-7.80998 2.14459,-2.25188 4.90817,-3.5759 7.85409,-3.5759 z"
         transform="scale(0.9999263,1.0000737)" />
      <path
         id="text21"
         style="font-size:306.692px;font-family:'LoRes 9 Plus OT';-inkscape-font-specification:'LoRes 9 Plus OT';letter-spacing:-15px;fill:#4d4d4d;stroke-width:4.8"
         inkscape:label="T"
         d="m 278.82914,310.08847 c -1.78455,0 -3.15253,0.57235 -4.56283,1.97252 -1.32676,1.41547 -1.87123,2.76927 -1.87123,4.46256 v 16.62182 c 0,1.55492 0.53,2.86345 1.84779,4.28093 1.39257,1.29681 2.77926,1.85534 4.58627,1.85534 h 50.31621 c 2.99595,0 5.81284,1.226 7.98692,3.40014 2.17408,2.17414 3.39869,4.9897 3.39869,7.98574 v 152.74655 c 0,1.78316 0.57126,3.15304 1.96889,4.56216 1.41624,1.32834 2.77105,1.87291 4.46517,1.87291 h 50.61506 c 1.57814,0 2.81176,-0.5105 4.14289,-1.84166 1.41985,-1.4199 1.99233,-2.79737 1.99233,-4.59341 V 350.66752 c 0,-2.92229 1.24032,-5.67694 3.39869,-7.83536 2.23918,-2.23925 5.02994,-3.55052 7.98692,-3.55052 h 50.61505 c 1.57814,0 2.9,-0.52844 4.34212,-1.89049 l 0.0234,-0.0215 0.0234,-0.0215 c 1.49599,-1.33856 2.04703,-2.56747 2.04703,-4.20281 v -16.62182 c 0,-1.54182 -0.54301,-2.84133 -1.99429,-4.29266 l -0.0215,-0.0234 -0.0234,-0.0234 c -1.44597,-1.52635 -2.76153,-2.09555 -4.39681,-2.09555 z"
         transform="scale(0.9999263,1.0000737)" />
      <path
         id="text22"
         style="font-size:306.692px;font-family:'LoRes 9 Plus OT';-inkscape-font-specification:'LoRes 9 Plus OT';letter-spacing:-15px;fill:#4d4d4d;stroke-width:4.8"
         inkscape:label="E"
         d="m 89.424559,310.08847 c -1.908655,0 -3.320979,0.58786 -4.717144,1.97447 -1.325222,1.41466 -1.869279,2.76822 -1.869279,4.46061 v 186.89052 c 0,1.80405 0.559635,3.19142 1.851699,4.58169 1.376728,1.27956 2.80876,1.85338 4.734724,1.85338 H 242.16629 c 1.57813,0 2.89998,-0.52842 4.34211,-1.89048 1.50752,-1.4295 2.09391,-2.78329 2.09391,-4.54459 v -16.32302 c 0,-1.79602 -0.55641,-3.08411 -1.94351,-4.3942 l -0.0508,-0.0469 -0.0469,-0.0508 c -1.31004,-1.38715 -2.59887,-1.94322 -4.39485,-1.94322 H 157.41 c -2.85083,0 -5.55905,-1.23621 -7.79159,-3.35131 l -0.0234,-0.0234 -0.0234,-0.0234 c -2.17409,-2.17414 -3.39869,-4.99165 -3.39869,-7.98769 v -50.3166 c 0,-2.98647 1.24021,-5.77657 3.43385,-7.8588 2.15373,-2.13935 4.8951,-3.3767 7.80331,-3.3767 h 50.61506 c 1.67006,0 3.00617,-0.55642 4.44173,-1.99204 l 0.0215,-0.0234 0.0234,-0.0215 c 1.52631,-1.44601 2.09585,-2.76278 2.09585,-4.39811 V 384.6611 c 0,-1.50545 -0.53165,-2.69828 -2.04507,-4.05243 l -0.0488,-0.0449 -0.0469,-0.0469 c -1.43556,-1.43561 -2.77167,-1.99204 -4.44173,-1.99204 h -50.61506 c -2.85083,0 -5.55905,-1.23818 -7.79159,-3.35327 l -0.0469,-0.0449 -0.0449,-0.0469 c -2.12949,-2.24786 -3.35377,-5.01659 -3.35377,-7.93887 V 350.6675 c 0,-2.91207 1.2367,-5.65493 3.38111,-7.80998 2.14462,-2.25189 4.91011,-3.5759 7.85605,-3.5759 h 84.75625 c 1.57813,0 2.89998,-0.52844 4.34211,-1.89049 l 0.0234,-0.0215 0.0254,-0.0215 c 1.49598,-1.33856 2.04508,-2.56747 2.04508,-4.20281 V 316.5235 c 0,-1.54182 -0.54105,-2.84133 -1.99234,-4.29266 l -0.0234,-0.0234 -0.0215,-0.0234 c -1.44598,-1.52635 -2.76349,-2.09555 -4.39876,-2.09555 z"
         transform="scale(0.9999263,1.0000737)" />
    </g>
    <g
       inkscape:groupmode="layer"
       id="layer7"
       inkscape:label="BERT ">
      <path
         id="text15"
         style="font-size:306.691px;font-family:'LoRes 9 Plus OT';-inkscape-font-specification:'LoRes 9 Plus OT';letter-spacing:-15px;fill:#4d4d4d;stroke-width:4.8;stroke-linecap:square"
         inkscape:label="T"
         d="m 786.91558,18.943865 c -1.78453,0 -3.15451,0.572341 -4.5648,1.972506 -1.32675,1.415457 -1.87124,2.769282 -1.87124,4.462549 v 16.621777 c 0,1.556212 0.52951,2.864006 1.84975,4.282876 1.39184,1.295295 2.78025,1.853374 4.58629,1.853374 h 50.31439 c 2.99593,0 5.81286,1.224045 7.98694,3.398178 2.17407,2.174133 3.3987,4.991659 3.3987,7.987671 V 212.26894 c 0,1.78312 0.57326,3.1511 1.97085,4.5602 1.41624,1.32833 2.77107,1.8729 4.46519,1.8729 h 50.61324 c 1.57812,0 2.81179,-0.51051 4.14289,-1.84166 1.41986,-1.41989 1.99234,-2.79543 1.99234,-4.59144 V 59.522796 c 0,-2.922266 1.24033,-5.680827 3.3987,-7.839245 2.23917,-2.239231 5.02801,-3.546604 7.98498,-3.546604 h 50.6152 c 1.57812,0 2.9,-0.528437 4.34213,-1.89048 l 0.0234,-0.02344 0.0254,-0.02148 c 1.49597,-1.338542 2.04508,-2.565538 2.04508,-4.200851 V 25.37892 c 0,-1.541801 -0.54107,-2.841327 -1.99234,-4.29264 l -0.0234,-0.02344 -0.0215,-0.02344 c -1.44598,-1.526346 -2.76352,-2.095543 -4.39877,-2.095543 z"
         transform="scale(0.99992361,1.0000764)" />
      <path
         id="text16"
         style="font-size:306.691px;font-family:'LoRes 9 Plus OT';-inkscape-font-specification:'LoRes 9 Plus OT';letter-spacing:-15px;fill:#4d4d4d;stroke-width:4.8;stroke-linecap:square"
         inkscape:label="R"
         d="m 563.51766,18.943865 c -1.90864,0 -3.321,0.587859 -4.71716,1.974459 -1.32521,1.414646 -1.86928,2.768227 -1.86928,4.460596 v 186.89002 c 0,1.80306 0.55918,3.18825 1.84975,4.57777 1.37777,1.28181 2.80914,1.85533 4.73669,1.85533 H 613.834 c 1.82928,0 3.14194,-0.54378 4.43979,-1.84166 l 0.0254,-0.0234 0.0234,-0.0254 c 1.37003,-1.29394 1.94351,-2.62278 1.94351,-4.54262 v -50.31842 c 0,-3.06028 1.22194,-5.90901 3.42995,-8.0072 2.15418,-2.1413 4.89761,-3.3767 7.80724,-3.3767 h 16.62041 c 2.8383,0 5.50681,1.2702 7.55526,3.42552 2.15927,2.17088 3.38112,4.97328 3.38112,7.95838 v 16.17454 c 0,1.796 0.57249,3.17156 1.99234,4.59145 1.41985,1.41989 2.79618,1.99399 4.59215,1.99399 h 16.47196 c 2.98373,0 5.78723,1.21911 7.95764,3.37669 2.19183,2.08192 3.428,4.87168 3.428,7.85682 v 16.32493 c 0,1.81792 0.55954,3.21191 1.87319,4.61293 1.30369,1.29227 2.57041,1.82017 4.26204,1.82017 h 50.61324 c 1.57812,0 2.9,-0.52843 4.34213,-1.89048 1.50751,-1.42948 2.09391,-2.78135 2.09391,-4.54262 v -16.32493 c 0,-1.79602 -0.55642,-3.08412 -1.94351,-4.39419 l -0.0488,-0.0469 -0.0469,-0.0488 c -1.31003,-1.38713 -2.60085,-1.94321 -4.39682,-1.94321 h -16.32156 c -2.96259,0 -5.75405,-1.13814 -7.9381,-3.20093 l -0.0488,-0.0469 -0.0469,-0.0508 c -2.07795,-2.20025 -3.19946,-5.04744 -3.19946,-8.08728 v -50.31647 c 0,-2.94877 1.14515,-5.71109 3.2229,-7.80409 2.09843,-2.21011 4.94871,-3.43137 8.01038,-3.43137 h 16.32156 c 1.54176,0 2.84202,-0.54268 4.2933,-1.99399 l 0.0234,-0.0215 0.0234,-0.0234 c 1.52629,-1.44601 2.09586,-2.76084 2.09586,-4.39615 V 59.522796 c 0,-1.670095 -0.55678,-3.00742 -1.99234,-4.44302 l -0.0234,-0.02343 -0.0215,-0.02344 c -1.44596,-1.526344 -2.7635,-2.097496 -4.39877,-2.097496 h -16.32156 c -2.96259,0 -5.75405,-1.138151 -7.9381,-3.200927 l -0.0254,-0.02344 -0.0234,-0.02344 c -2.07979,-2.079844 -3.24634,-4.799429 -3.24634,-7.686913 V 25.37892 c 0,-1.541801 -0.54107,-2.841327 -1.99234,-4.29264 l -0.0234,-0.02344 -0.0234,-0.02344 c -1.44597,-1.526343 -2.76155,-2.095543 -4.39682,-2.095543 z m 67.98566,29.193082 h 50.61324 c 2.93539,0 5.68736,1.317248 7.82872,3.554416 2.23712,2.141431 3.55692,4.895946 3.55692,7.831433 v 50.615274 c 0,2.88725 -1.32482,5.61099 -3.5491,7.83534 -2.15836,2.15842 -4.91435,3.40013 -7.83654,3.40013 h -50.61324 c -2.85081,0 -5.55908,-1.24014 -7.79161,-3.35521 l -0.0234,-0.0215 -0.0234,-0.0234 c -2.15835,-2.15841 -3.3987,-4.91307 -3.3987,-7.83534 V 59.522796 c 0,-2.910611 1.23671,-5.655398 3.37917,-7.80995 2.14487,-2.253134 4.9112,-3.575899 7.85802,-3.575899 z"
         transform="scale(0.99992361,1.0000764)" />
      <path
         id="text17"
         style="font-size:306.691px;font-family:'LoRes 9 Plus OT';-inkscape-font-specification:'LoRes 9 Plus OT';letter-spacing:-15px;fill:#4d4d4d;stroke-width:4.8;stroke-linecap:square"
         inkscape:label="E"
         d="m 339.96933,18.943865 c -1.90668,0 -3.31654,0.587039 -4.7113,1.970553 -1.32767,1.415948 -1.87123,2.770698 -1.87123,4.464502 v 186.89002 c 0,1.80459 0.55876,3.19097 1.8517,4.58168 1.37644,1.27896 2.80528,1.85142 4.73083,1.85142 h 152.74214 c 1.57812,0 2.9,-0.52843 4.34212,-1.89048 1.50751,-1.42948 2.09391,-2.78135 2.09391,-4.54262 v -16.32493 c 0,-1.79602 -0.55642,-3.08412 -1.9435,-4.39419 l -0.0508,-0.0469 -0.0469,-0.0488 c -1.31004,-1.38713 -2.5989,-1.94321 -4.39486,-1.94321 h -84.75648 c -2.85081,0 -5.55714,-1.23818 -7.78966,-3.35326 l -0.0234,-0.0234 -0.0215,-0.0215 c -2.17407,-2.17413 -3.3987,-4.99166 -3.3987,-7.98767 v -50.31647 c 0,-2.98552 1.23759,-5.77676 3.42995,-7.85877 2.15419,-2.14128 4.8937,-3.37669 7.80333,-3.37669 h 50.6152 c 1.67004,0 3.00813,-0.55839 4.4437,-1.99399 l 0.0215,-0.0215 0.0234,-0.0234 c 1.52631,-1.44601 2.09586,-2.76084 2.09586,-4.39615 V 93.51434 c 0,-1.505439 -0.53166,-2.696337 -2.04507,-4.050472 l -0.0488,-0.04492 -0.0469,-0.04687 c -1.43557,-1.435603 -2.77366,-1.992035 -4.4437,-1.992035 h -50.6152 c -2.85082,0 -5.55714,-1.238181 -7.78966,-3.35326 l -0.0469,-0.04492 -0.0449,-0.04687 c -2.12948,-2.247843 -3.35182,-5.016582 -3.35182,-7.938847 v -16.47335 c 0,-2.912046 1.23672,-5.658825 3.38112,-7.813856 2.14433,-2.250624 4.90713,-3.571993 7.85216,-3.571993 h 84.75648 c 1.57813,0 2.9,-0.528438 4.34212,-1.89048 l 0.0234,-0.02344 0.0254,-0.02148 c 1.49597,-1.338542 2.04507,-2.565538 2.04507,-4.200851 V 25.37892 c 0,-1.541799 -0.54106,-2.841326 -1.99233,-4.29264 l -0.0234,-0.02344 -0.0215,-0.02344 c -1.44597,-1.526343 -2.76351,-2.095543 -4.39877,-2.095543 z"
         transform="scale(0.99992361,1.0000764)" />
      <path
         id="text18"
         style="font-size:306.691px;font-family:'LoRes 9 Plus OT';-inkscape-font-specification:'LoRes 9 Plus OT';letter-spacing:-15px;display:inline;fill:#4d4d4d;stroke-width:4.8;stroke-linecap:square"
         inkscape:label="B"
         d="m 82.430125,18.943865 c -1.908641,0 -3.321002,0.587859 -4.717157,1.974459 -1.325214,1.414645 -1.869284,2.768225 -1.869284,4.460596 v 186.89002 c 0,1.80306 0.559185,3.18825 1.849751,4.57777 1.377769,1.28181 2.80914,1.85533 4.73669,1.85533 H 235.17226 c 1.57813,0 2.90001,-0.52843 4.34213,-1.89048 1.50751,-1.42948 2.09391,-2.78135 2.09391,-4.54262 v -16.32493 c 0,-3.03984 1.13525,-5.8726 3.2483,-7.98571 2.11306,-2.11312 4.94522,-3.24976 7.98498,-3.24976 h 16.32351 c 1.54176,0 2.84007,-0.54071 4.29135,-1.99203 l 0.0234,-0.0234 0.0234,-0.0215 c 1.51021,-1.43075 2.09587,-2.78385 2.09587,-4.54653 v -50.31647 c 0,-1.79601 -0.55643,-3.08411 -1.94351,-4.39419 l -0.0254,-0.0234 -0.0234,-0.0254 c -1.43556,-1.43559 -2.7717,-1.99203 -4.44175,-1.99203 h -16.32351 c -2.99593,0 -5.81091,-1.226 -7.98498,-3.40013 l -0.0234,-0.0234 -0.0234,-0.0254 c -2.04749,-2.16799 -3.20142,-4.89903 -3.20142,-7.78651 V 93.51434 c 0,-2.814525 1.18515,-5.473326 3.2483,-7.536534 2.17407,-2.174132 4.98905,-3.398178 7.98498,-3.398178 h 16.32351 c 1.54176,0 2.84007,-0.540721 4.29135,-1.992035 1.5544,-1.554456 2.14274,-2.956136 2.14274,-4.591446 V 59.522796 c 0,-1.670095 -0.55678,-3.00742 -1.99234,-4.44302 l -0.0234,-0.02343 -0.0215,-0.02344 c -1.44597,-1.526344 -2.76154,-2.097496 -4.39682,-2.097496 h -16.32351 c -2.9626,0 -5.7521,-1.13815 -7.93615,-3.200927 l -0.0254,-0.02344 -0.0234,-0.02344 c -2.07979,-2.079845 -3.2483,-4.799431 -3.2483,-7.686913 V 25.37892 c 0,-1.541799 -0.54106,-2.841326 -1.99234,-4.29264 l -0.0234,-0.02344 -0.0234,-0.02344 c -1.44597,-1.526343 -2.76156,-2.095543 -4.39682,-2.095543 z m 67.985665,29.193082 h 50.61519 c 2.93539,0 5.68541,1.317251 7.82677,3.554416 2.23712,2.141431 3.55691,4.895946 3.55691,7.831433 v 16.473351 c 0,2.957045 -1.30993,5.746486 -3.5491,7.985718 -2.15835,2.158416 -4.91239,3.398178 -7.83458,3.398178 h -50.61519 c -2.85081,0 -5.55909,-1.238183 -7.79161,-3.35326 l -0.0469,-0.04492 -0.0449,-0.04687 c -2.12947,-2.247844 -3.35182,-5.016585 -3.35182,-7.938847 v -16.47335 c 0,-2.910611 1.23476,-5.655398 3.37721,-7.80995 2.14489,-2.253132 4.9112,-3.575899 7.85803,-3.575899 z m 0,68.436183 h 50.61519 c 2.98374,0 5.78527,1.2191 7.95569,3.37669 2.19183,2.08192 3.42799,4.87364 3.42799,7.85877 v 50.31647 c 0,2.99601 -1.22462,5.81354 -3.39869,7.98767 -2.17408,2.17414 -4.98906,3.39818 -7.98499,3.39818 h -50.61519 c -2.85081,0 -5.55909,-1.23819 -7.79161,-3.35326 l -0.0234,-0.0234 -0.0234,-0.0215 c -2.17407,-2.17413 -3.39675,-4.99166 -3.39675,-7.98767 v -50.31647 c 0,-2.98644 1.23828,-5.7785 3.43191,-7.86072 2.15372,-2.13933 4.89513,-3.37474 7.80333,-3.37474 z"
         transform="scale(0.99992361,1.0000764)"
         inkscape:export-filename="Letters\BFill.svg"
         inkscape:export-xdpi="96"
         inkscape:export-ydpi="96" />
    </g>
  </g>
  <g
     inkscape:label="Letters_stroke"
     inkscape:groupmode="layer"
     id="layer1"
     style="display:inline;opacity:0.5">
    <g
       inkscape:groupmode="layer"
       id="layer6"
       inkscape:label="MT">
      <path
         id="text13"
         style="color:#000000;-inkscape-font-specification:'LoRes 9 Plus OT';fill:#000000;-inkscape-stroke:none"
         inkscape:label="T"
         d="M 563.38817 572.39523 L 563.38817 596.39575 C 560.39228 596.39575 557.57606 597.62023 555.40201 599.79427 L 555.37857 599.81966 L 555.35514 599.84505 C 553.30769 602.01295 552.15403 604.74497 552.15403 607.63233 L 552.15403 624.25378 C 552.15403 627.06819 553.32292 629.73891 555.35514 631.89067 L 555.40201 631.94145 L 555.45279 631.98832 C 557.63682 634.05102 560.42561 635.18956 563.38817 635.18956 L 613.70348 635.18956 C 615.49935 635.18956 616.8754 635.76202 618.29518 637.1818 C 619.71496 638.60156 620.28732 639.97781 620.28732 641.77369 L 620.28732 794.51138 C 620.28732 797.50727 621.51165 800.32384 623.68568 802.49788 L 623.71107 802.52132 L 623.73451 802.54476 C 625.90241 804.59222 628.6341 805.746 631.52145 805.746 L 682.13559 805.746 C 684.95001 805.746 687.60943 804.561 689.67253 802.49788 C 691.84658 800.32384 693.0709 797.50727 693.0709 794.51138 L 717.07038 794.51138 L 717.07038 770.51086 L 693.0709 770.51086 L 693.0709 641.77369 C 693.0709 640.10374 693.62755 638.76769 695.06304 637.33219 C 696.61738 635.77785 698.02152 635.18956 699.65669 635.18956 L 750.26692 635.18956 C 753.06977 635.18956 755.72897 634.02465 757.87613 632.00786 C 760.15991 629.95426 761.50496 627.20098 761.50496 624.25378 L 761.50496 607.63233 C 761.50496 604.79304 760.25102 602.11234 758.12417 599.97396 C 755.97933 597.72092 753.21371 596.39575 750.26692 596.39575 L 587.38764 596.39575 L 587.38764 572.39523 L 563.38817 572.39523 z M 575.3879 579.59461 A 4.799896 4.8001044 0 0 1 580.18663 584.39549 A 4.799896 4.8001044 0 0 1 575.3879 589.19443 A 4.799896 4.8001044 0 0 1 570.58723 584.39549 A 4.799896 4.8001044 0 0 1 575.3879 579.59461 z M 563.38817 601.19664 L 750.26692 601.19664 C 751.90209 601.19664 753.21936 601.76616 754.66526 603.29239 L 754.68675 603.31583 L 754.71019 603.33926 C 756.16139 604.79047 756.70233 606.09067 756.70233 607.63233 L 756.70233 624.25378 C 756.70234 625.88894 756.15336 627.11661 754.65745 628.45504 L 754.63206 628.47653 L 754.60862 628.49801 C 753.16659 629.85995 751.84495 630.38868 750.26692 630.38868 L 699.65669 630.38868 C 696.69977 630.38868 693.90968 631.69846 691.67054 633.93758 C 689.51221 636.09591 688.27217 638.85155 688.27217 641.77369 L 688.27217 794.51138 C 688.27217 796.30724 687.69786 797.68349 686.27808 799.10328 C 684.94704 800.43432 683.71362 800.94511 682.13559 800.94511 L 631.52145 800.94511 C 629.82743 800.94511 628.47483 800.40026 627.05866 799.07203 C 625.66113 797.66303 625.088 796.29436 625.088 794.51138 L 625.088 641.77369 C 625.088 638.7778 623.86368 635.96123 621.68963 633.78719 C 619.5156 631.61315 616.69938 630.38868 613.70348 630.38868 L 563.38817 630.38868 C 561.58276 630.38868 560.19561 629.82947 558.80428 628.53512 C 557.48501 627.11687 556.95471 625.80936 556.95471 624.25378 L 556.95471 607.63233 C 556.95471 605.93867 557.49817 604.58322 558.82576 603.16739 C 560.23521 601.76892 561.60464 601.19664 563.38817 601.19664 z M 705.07064 777.71024 A 4.799896 4.8001044 0 0 1 709.86936 782.51112 A 4.799896 4.8001044 0 0 1 705.07064 787.31005 A 4.799896 4.8001044 0 0 1 700.26996 782.51112 A 4.799896 4.8001044 0 0 1 705.07064 777.71024 z "
         transform="scale(1.0000217,0.9999783)" />
      <path
         id="text14"
         style="color:#000000;-inkscape-font-specification:'LoRes 9 Plus OT';fill:#000000;-inkscape-stroke:none"
         inkscape:label="M"
         d="M 305.85664 572.39523 L 305.85664 596.39575 C 302.78493 596.39575 299.9118 597.60452 297.72206 599.79427 L 297.69666 599.81966 L 297.67323 599.84505 C 295.62578 602.01295 294.47213 604.74497 294.47213 607.63233 L 294.47213 794.51138 C 294.47213 797.47393 295.61054 800.26503 297.67323 802.44905 L 297.7201 802.49788 L 297.77088 802.54476 C 299.97104 804.62269 302.81693 805.746 305.85664 805.746 L 322.03207 805.746 C 325.05805 805.746 327.87508 804.61406 329.98503 802.51937 C 332.1943 800.42107 333.41464 797.57247 333.41464 794.51138 L 333.41464 710.05642 C 333.41464 708.26057 333.97094 706.97177 335.35796 705.6618 L 335.38335 705.63836 L 335.40874 705.61297 C 336.84423 704.17748 338.1801 703.62074 339.85005 703.62074 L 356.17196 703.62074 C 358.00116 703.62074 359.3155 704.16676 360.61327 705.46453 L 360.63866 705.48797 L 360.66405 705.5114 C 362.03399 706.80523 362.60541 708.13673 362.60541 710.05642 L 362.60541 726.37904 C 362.60541 729.22982 363.84388 731.93579 365.95886 734.16828 L 365.98229 734.19171 L 366.00378 734.21515 C 368.16209 736.37348 370.91935 737.61366 373.8415 737.61366 L 424.45563 737.61366 C 427.36613 737.61366 430.10765 736.37711 432.2621 734.23468 C 434.51513 732.08985 435.84015 729.32582 435.84015 726.37904 L 435.84015 675.76466 C 435.84015 674.18664 436.35087 672.95303 437.68191 671.622 L 437.70535 671.5966 L 437.72878 671.57121 C 439.05488 670.16711 440.30484 669.62977 441.97478 669.62977 L 458.59552 669.62977 C 460.17355 669.62977 461.49516 670.15654 462.93722 671.51848 L 462.96066 671.54192 L 462.98409 671.5634 C 464.48 672.90185 465.03092 674.12951 465.03092 675.76466 L 465.03092 770.51086 L 441.03145 770.51086 L 441.03145 794.51138 L 465.03092 794.51138 C 465.03092 797.47393 466.16739 800.26503 468.23007 802.44905 L 468.25351 802.47249 L 468.2789 802.49788 C 470.39193 804.61091 473.22535 805.746 476.26506 805.746 L 526.57842 805.746 C 529.6059 805.746 532.42498 804.6141 534.53528 802.51741 C 536.74325 800.4193 537.96294 797.57153 537.96294 794.51138 L 537.96294 607.63233 C 537.96294 604.79215 536.71021 602.11072 534.58215 599.972 C 532.42214 597.70499 529.59592 596.39575 526.57842 596.39575 L 476.26506 596.39575 C 473.26917 596.39575 470.45294 597.62023 468.2789 599.79427 L 468.25351 599.81966 L 468.23007 599.84505 C 466.18263 602.01295 465.03092 604.74497 465.03092 607.63233 L 465.03092 624.25378 C 465.03092 625.78473 464.48691 627.07849 463.05831 628.51755 C 461.64295 629.84425 460.28866 630.38868 458.59552 630.38868 L 441.97478 630.38868 C 439.08764 630.38868 436.37519 631.73333 434.24253 633.98446 L 434.24058 633.98446 L 434.24058 633.98641 C 432.19313 636.15431 431.03947 638.88633 431.03947 641.77369 L 431.03947 658.24671 C 431.03947 659.88188 430.45129 661.28426 428.89694 662.8386 C 427.46145 664.27409 426.12558 664.83083 424.45563 664.83083 L 407.98138 664.83083 C 406.33142 664.83083 404.92186 664.2566 403.3975 662.83079 C 401.97166 661.3064 401.39754 659.89668 401.39754 658.24671 L 401.39754 641.77369 C 401.39754 638.81114 400.25912 636.02004 398.19644 633.83602 C 396.12837 631.6463 393.38438 630.38868 390.46223 630.38868 L 373.8415 630.38868 C 372.27373 630.38868 370.87354 629.84475 369.33183 628.47458 C 367.94608 627.15717 367.40609 625.91391 367.40609 624.25378 L 367.40609 607.63233 C 367.40609 604.80578 366.16011 602.13887 364.05069 600.00521 C 361.98329 597.71934 359.18054 596.39575 356.17196 596.39575 L 329.85612 596.39575 L 329.85612 572.39523 L 305.85664 572.39523 z M 317.85638 579.59461 A 4.799896 4.8001044 0 0 1 322.65511 584.39549 A 4.799896 4.8001044 0 0 1 317.85638 589.19443 A 4.799896 4.8001044 0 0 1 313.05571 584.39549 A 4.799896 4.8001044 0 0 1 317.85638 579.59461 z M 305.85664 601.19664 L 356.17196 601.19664 C 357.9345 601.19664 359.20058 601.76313 360.52343 603.24161 L 360.56639 603.29239 L 360.61327 603.33926 C 362.06447 604.79047 362.60541 606.09066 362.60541 607.63233 L 362.60541 624.25378 C 362.60541 627.17593 363.86484 629.92027 366.05456 631.98832 L 366.07799 632.00981 L 366.10143 632.03129 C 368.34122 634.03531 371.02708 635.18956 373.8415 635.18956 L 390.46223 635.18956 C 392.13218 635.18956 393.38018 635.72887 394.70628 637.13297 C 396.03775 638.54276 396.59686 639.94448 396.59686 641.77369 L 396.59686 658.24671 C 396.59686 661.16886 397.82087 663.93858 399.95031 666.18633 L 399.99523 666.23321 L 400.0421 666.27813 C 402.28984 668.40757 405.06119 669.63172 407.98333 669.63172 L 424.45563 669.63172 C 427.37778 669.63172 430.13307 668.39153 432.2914 666.23321 C 434.53053 663.99408 435.84015 661.20364 435.84015 658.24671 L 435.84015 641.77369 C 435.84015 640.07038 436.3826 638.70993 437.72683 637.28531 C 439.188 635.74298 440.46949 635.18956 441.97478 635.18956 L 458.59552 635.18956 C 461.48288 635.18956 464.21457 634.03578 466.38246 631.98832 L 466.40785 631.96489 L 466.43128 631.94145 C 468.57389 629.79883 469.82965 627.10455 469.82965 624.25378 L 469.82965 607.63233 C 469.82965 605.93921 470.37402 604.5847 471.7007 603.16934 C 473.11092 601.76929 474.48063 601.19664 476.26506 601.19664 L 526.57842 601.19664 C 528.34096 601.19664 529.69455 601.78227 531.12519 603.29239 L 531.14863 603.31583 L 531.17207 603.33926 C 532.62328 604.79047 533.16421 606.09066 533.16421 607.63233 L 533.16421 794.51138 C 533.16421 796.43108 532.59083 797.76062 531.22089 799.05445 L 531.1955 799.07789 L 531.17207 799.10328 C 529.89094 800.38441 528.53012 800.94511 526.57842 800.94511 L 476.26506 800.94511 C 474.32616 800.94511 472.97448 800.38424 471.7007 799.12086 C 470.38951 797.72113 469.82965 796.32763 469.82965 794.51138 L 469.82965 675.76662 C 469.82965 672.82124 468.48788 670.0677 466.20668 668.0145 C 464.05894 665.99581 461.39979 664.83083 458.59552 664.83083 L 441.97478 664.83083 C 439.06335 664.83083 436.33139 666.08377 434.26597 668.25864 C 432.21922 670.318 431.03947 672.96428 431.03947 675.76662 L 431.03947 726.37904 C 431.03947 728.0142 430.47005 729.32972 428.94382 730.77562 L 428.92038 730.79711 L 428.89694 730.82055 C 427.46145 732.25604 426.12558 732.81278 424.45563 732.81278 L 373.8415 732.81278 C 372.18136 732.81278 370.84954 732.25493 369.42362 730.83812 C 367.96597 729.28936 367.40609 727.91082 367.40609 726.37904 L 367.40609 710.05642 C 367.40609 706.99777 366.18633 704.15018 363.98038 702.05234 C 361.88676 699.9709 359.1234 698.82181 356.17196 698.82181 L 339.85005 698.82181 C 336.93902 698.82181 334.19625 700.05764 332.04162 702.20078 C 329.85184 704.2823 328.61592 707.07287 328.61592 710.05642 L 328.61592 794.51138 C 328.61592 796.43108 328.04255 797.76062 326.6726 799.05445 L 326.64721 799.07789 L 326.62377 799.10328 C 325.34263 800.38441 323.98376 800.94511 322.03207 800.94511 L 305.85664 800.94511 C 303.93079 800.94511 302.50097 800.37101 301.12432 799.09156 C 299.83234 797.7014 299.2728 796.31526 299.2728 794.51138 L 299.2728 607.63233 C 299.2728 605.9401 299.81674 604.58584 301.1419 603.17129 C 302.53798 601.78482 303.94812 601.19664 305.85664 601.19664 z M 453.03118 777.71024 A 4.799896 4.8001044 0 0 1 457.82991 782.51112 A 4.799896 4.8001044 0 0 1 453.03118 787.31005 A 4.799896 4.8001044 0 0 1 448.23051 782.51112 A 4.799896 4.8001044 0 0 1 453.03118 777.71024 z "
         transform="scale(1.0000217,0.9999783)" />
    </g>
    <g
       inkscape:groupmode="layer"
       id="layer5"
       inkscape:label="ETRN">
      <path
         id="text9"
         style="color:#000000;-inkscape-font-specification:'LoRes 9 Plus OT';fill:#000000;-inkscape-stroke:none"
         inkscape:label="N"
         d="M 760.07921 281.28557 L 760.07921 305.28344 C 757.0074 305.28344 754.13551 306.49175 751.94568 308.68157 L 751.92029 308.70696 L 751.89685 308.73235 C 749.84933 310.90032 748.69539 313.63131 748.69539 316.51877 L 748.69539 503.40647 C 748.69539 506.36913 749.83409 509.15917 751.89685 511.34326 L 751.94373 511.39404 L 751.99451 511.44091 C 754.19474 513.5189 757.0394 514.6418 760.07921 514.6418 L 776.25448 514.6418 C 779.28206 514.6418 782.09989 513.51033 784.21026 511.41357 C 786.41832 509.31538 787.6383 506.46672 787.6383 503.40647 L 787.6383 384.65725 C 787.6383 383.11545 788.16056 381.90227 789.58183 380.55996 L 789.60723 380.53652 L 789.63067 380.51113 C 791.06625 379.07554 792.40433 378.51912 794.07442 378.51912 L 810.39618 378.51912 C 812.22552 378.51912 813.54208 379.06485 814.83994 380.36271 L 814.86338 380.38614 L 814.88877 380.40958 C 816.29298 381.73577 816.8323 382.98521 816.8323 384.6553 L 816.8323 435.27189 C 816.8323 438.12276 818.07105 440.8277 820.18611 443.06027 L 820.2076 443.0837 L 820.23104 443.10714 C 822.38944 445.26553 825.14544 446.50527 828.06767 446.50527 L 844.69024 446.50527 C 846.23204 446.50527 847.44203 447.02718 848.78436 448.44846 L 848.8078 448.47385 L 848.83124 448.49728 C 850.25111 449.91716 850.82555 451.29657 850.82555 453.09258 L 850.82555 503.40647 C 850.82555 506.40246 852.05017 509.21993 854.22429 511.39404 L 854.24773 511.41748 L 854.27313 511.44091 C 856.45722 513.50367 859.24867 514.6418 862.21133 514.6418 L 946.81845 514.6418 C 949.63295 514.6418 952.30596 513.4732 954.4578 511.44091 L 954.45976 511.43896 C 956.74319 509.27571 958.05383 506.43579 958.05383 503.40647 L 982.05596 503.40647 L 982.05596 479.4086 L 958.05383 479.4086 L 958.05383 316.51877 C 958.05383 313.6794 956.80349 310.99971 954.67657 308.86124 C 952.53165 306.60813 949.76533 305.28344 946.81845 305.28344 L 930.49669 305.28344 C 927.50071 305.28344 924.68376 306.50746 922.50965 308.68157 L 922.48621 308.70696 L 922.46277 308.73235 C 920.41525 310.90032 919.26132 313.63131 919.26132 316.51877 L 919.26132 435.27189 C 919.26132 436.80458 918.69905 438.18262 917.23965 439.73244 C 915.81497 441.14675 914.48606 441.70687 912.82715 441.70687 L 896.20263 441.70687 C 894.67155 441.70687 893.37774 441.16309 891.93858 439.73439 C 890.61178 438.31893 890.06927 436.96517 890.06927 435.27189 L 890.06927 384.6553 C 890.06927 381.78908 888.71386 379.11273 886.46348 377.07784 C 884.31269 374.95051 881.58295 373.71877 878.6835 373.71877 L 862.21133 373.71877 C 860.56123 373.71877 859.15142 373.14485 857.62694 371.71894 C 856.20101 370.19446 855.62481 368.78547 855.62481 367.13537 L 855.62481 316.51877 C 855.62481 313.71584 854.45974 311.05731 852.44288 308.91007 C 850.38941 306.6275 847.63663 305.28344 844.69024 305.28344 L 784.08135 305.28344 L 784.08135 281.28557 L 760.07921 281.28557 z M 772.08028 288.48415 A 4.8004265 4.799574 0 0 1 776.87953 293.2845 A 4.8004265 4.799574 0 0 1 772.08028 298.08291 A 4.8004265 4.799574 0 0 1 767.27907 293.2845 A 4.8004265 4.799574 0 0 1 772.08028 288.48415 z M 760.07921 310.08379 L 844.69024 310.08379 C 846.32555 310.08379 847.55131 310.63251 848.88983 312.12853 L 848.91132 312.15392 L 848.93476 312.17736 C 850.29679 313.61952 850.82555 314.94061 850.82555 316.51877 L 850.82555 367.13537 C 850.82555 370.0576 852.0479 372.82629 854.17741 375.07412 L 854.22234 375.12099 L 854.26922 375.1659 C 856.51705 377.29542 859.28909 378.51912 862.21133 378.51912 L 878.6835 378.51912 C 880.35358 378.51912 881.68971 379.07554 883.1253 380.51113 L 883.17218 380.558 L 883.22296 380.60292 C 884.7364 381.95705 885.26806 383.14987 885.26806 384.6553 L 885.26806 435.27189 C 885.26806 438.15935 886.42199 440.89034 888.46952 443.05831 L 888.49296 443.0837 L 888.51835 443.10714 C 890.66104 445.24982 893.35177 446.50527 896.20263 446.50527 L 912.8252 446.50527 C 915.74744 446.50527 918.50344 445.26553 920.66183 443.10714 L 920.68527 443.0837 L 920.70676 443.06027 C 922.82182 440.8277 924.06057 438.12276 924.06057 435.27189 L 924.06057 316.51877 C 924.06057 314.82551 924.60505 313.47172 925.93183 312.05627 C 927.34215 310.65613 928.71211 310.08379 930.49669 310.08379 L 946.81845 310.08379 C 948.45375 310.08379 949.77127 310.65297 951.21728 312.17931 L 951.23877 312.20275 L 951.26221 312.22618 C 952.71352 313.67749 953.25457 314.97698 953.25457 316.51877 L 953.25457 503.40647 C 953.25457 505.16914 952.66891 506.52416 951.15868 507.95489 C 949.7183 509.31373 948.39494 509.84144 946.81845 509.84144 L 862.21133 509.84144 C 860.39341 509.84144 858.9967 509.28223 857.59569 507.96856 C 856.19806 506.55947 855.62481 505.18959 855.62481 503.40647 L 855.62481 453.09258 C 855.62481 450.1075 854.40295 447.30321 852.24365 445.13235 C 850.19515 442.97703 847.5286 441.70687 844.69024 441.70687 L 828.06767 441.70687 C 826.40739 441.70687 825.07728 441.14739 823.65127 439.73048 C 822.19351 438.18159 821.63351 436.80381 821.63351 435.27189 L 821.63351 384.6553 C 821.63351 381.74575 820.37964 379.0159 818.20742 376.9509 C 816.11374 374.86938 813.34771 373.71877 810.39618 373.71877 L 794.07442 373.71877 C 791.16383 373.71877 788.42161 374.95489 786.26709 377.09737 C 784.10979 379.14627 782.83905 381.81553 782.83905 384.6553 L 782.83905 503.40647 C 782.83905 505.32631 782.26556 506.65706 780.89552 507.95099 L 780.87012 507.97442 L 780.84473 507.99981 C 779.56351 509.28104 778.20632 509.84144 776.25448 509.84144 L 760.07921 509.84144 C 758.15322 509.84144 756.72507 509.26763 755.34832 507.98809 C 754.05624 506.59784 753.4966 505.21049 753.4966 503.40647 L 753.4966 316.51877 C 753.4966 314.82497 754.04015 313.47026 755.36786 312.05432 C 756.76264 310.67081 758.1725 310.08379 760.07921 310.08379 z M 970.05489 486.60718 A 4.8004265 4.799574 0 0 1 974.85415 491.40753 A 4.8004265 4.799574 0 0 1 970.05489 496.20594 A 4.8004265 4.799574 0 0 1 965.25368 491.40753 A 4.8004265 4.799574 0 0 1 970.05489 486.60718 z "
         transform="scale(0.9999112,1.0000888)" />
      <path
         id="text10"
         style="color:#000000;-inkscape-font-specification:'LoRes 9 Plus OT';fill:#000000;-inkscape-stroke:none"
         inkscape:label="R"
         d="M 631.27871 281.28557 L 631.27871 305.28344 L 502.53486 305.28344 C 499.46303 305.28344 496.59115 306.49175 494.40132 308.68157 L 494.37593 308.70696 L 494.35249 308.73235 C 492.30496 310.90032 491.15104 313.63131 491.15104 316.51877 L 491.15104 479.4086 L 467.1489 479.4086 L 467.1489 503.40647 L 491.15104 503.40647 C 491.15104 506.36913 492.28973 509.15917 494.35249 511.34326 L 494.39937 511.39404 L 494.45016 511.44091 C 496.65038 513.5189 499.49503 514.6418 502.53486 514.6418 L 552.85183 514.6418 C 555.80057 514.6418 558.56423 513.49526 560.65721 511.41748 C 562.86731 509.319 564.0872 506.46821 564.0872 503.40647 L 564.0872 453.09258 C 564.0872 451.17274 564.66068 449.84005 566.03073 448.54611 L 566.05417 448.52267 L 566.07956 448.49728 C 567.51515 447.06168 568.85129 446.50527 570.52137 446.50527 L 587.14394 446.50527 C 588.68573 446.50527 589.89768 447.02718 591.24 448.44846 L 591.26344 448.47385 L 591.28688 448.49728 C 592.70676 449.91716 593.2812 451.29657 593.2812 453.09258 L 593.2812 469.26302 C 593.2812 472.259 594.50582 475.07647 596.67994 477.25059 C 598.85405 479.42471 601.66904 480.64872 604.66502 480.64872 L 621.13914 480.64872 C 622.93515 480.64872 624.31147 481.22281 625.73135 482.64269 L 625.75479 482.66612 L 625.78018 482.68956 C 627.1673 483.99963 627.72176 485.2877 627.72176 487.0837 L 627.72176 503.40647 C 627.72176 506.36913 628.86046 509.15917 630.92321 511.34326 L 630.94665 511.36865 L 630.97009 511.39404 C 633.04992 513.47387 635.77082 514.6418 638.65828 514.6418 L 689.2741 514.6418 C 692.0886 514.6418 694.75966 513.4732 696.9115 511.44091 L 696.91345 511.43896 C 699.19689 509.27571 700.50947 506.43579 700.50947 503.40647 L 700.50947 487.0837 C 700.50947 484.11292 699.27704 481.33887 697.10487 479.26018 C 695.02541 477.08347 692.24819 475.85032 689.2741 475.85032 L 672.95038 475.85032 C 671.14582 475.85032 669.76058 475.29184 668.3699 473.99892 C 667.08952 472.62179 666.51622 471.18961 666.51622 469.26302 L 666.51622 418.94717 C 666.51622 417.11783 667.06227 415.80402 668.36013 414.50616 L 668.38357 414.48077 L 668.40701 414.45734 C 669.70094 413.08729 671.03054 412.51415 672.95038 412.51415 L 689.2741 412.51415 C 692.11347 412.51415 694.79256 411.26246 696.93103 409.13554 C 699.18415 406.99062 700.50947 404.22374 700.50947 401.27687 L 700.50947 350.66222 C 700.50947 347.7502 699.27275 345.00739 697.12831 342.85237 C 694.98366 340.60051 692.22008 339.27651 689.2741 339.27651 L 672.95038 339.27651 C 671.13343 339.27651 669.74087 338.71776 668.3406 337.40559 C 667.04582 336.10064 666.51622 334.83352 666.51622 333.14034 L 666.51622 316.51877 C 666.51622 313.67939 665.26394 310.99971 663.13701 308.86124 C 660.99209 306.60813 658.22772 305.28344 655.28085 305.28344 L 655.28085 281.28557 L 631.27871 281.28557 z M 643.27978 288.48415 A 4.8004265 4.799574 0 0 1 648.07903 293.2845 A 4.8004265 4.799574 0 0 1 643.27978 298.08291 A 4.8004265 4.799574 0 0 1 638.47857 293.2845 A 4.8004265 4.799574 0 0 1 643.27978 288.48415 z M 502.53486 310.08379 L 655.28085 310.08379 C 656.91615 310.08379 658.23172 310.65297 659.67772 312.17931 L 659.70116 312.20275 L 659.72265 312.22618 C 661.17394 313.67749 661.71696 314.97698 661.71696 316.51877 L 661.71696 333.14034 C 661.71696 336.0278 662.88548 338.74734 664.9653 340.82716 L 664.98874 340.85254 L 665.01413 340.87598 C 667.19823 342.93874 669.98774 344.07882 672.95038 344.07882 L 689.2741 344.07882 C 690.9094 344.07882 692.22497 344.648 693.67097 346.17434 L 693.69246 346.19777 L 693.7159 346.21926 C 695.15149 347.65484 695.70826 348.99213 695.70826 350.66222 L 695.70826 401.27687 C 695.70826 402.91217 695.13871 404.22892 693.61237 405.67491 L 693.58893 405.6964 L 693.56549 405.71983 C 692.11419 407.17114 690.81589 407.71184 689.2741 407.71184 L 672.95038 407.71184 C 669.89163 407.71184 667.04562 408.93325 664.94772 411.13927 C 662.86619 413.23295 661.71696 415.99565 661.71696 418.94717 L 661.71696 469.26302 C 661.71696 472.30283 662.83847 475.15191 664.91647 477.35214 L 664.9653 477.40097 L 665.01413 477.44784 C 667.19823 479.51059 669.98774 480.64872 672.95038 480.64872 L 689.2741 480.64872 C 691.0701 480.64872 692.35896 481.20478 693.66902 482.59191 L 693.7159 482.64269 L 693.76473 482.68956 C 695.15186 483.99963 695.70826 485.2877 695.70826 487.0837 L 695.70826 503.40647 C 695.70826 505.16774 695.12188 506.52151 693.61433 507.95099 C 692.17218 509.31303 690.85226 509.84144 689.2741 509.84144 L 638.65828 509.84144 C 636.96661 509.84144 635.69991 509.31356 634.39618 508.02129 C 633.08251 506.62029 632.52296 505.22439 632.52296 503.40647 L 632.52296 487.0837 C 632.52296 484.09912 631.28411 481.30876 629.09297 479.22698 C 626.92268 477.07015 624.1224 475.85032 621.13914 475.85032 L 604.66698 475.85032 C 602.87097 475.85032 601.4927 475.27624 600.07282 473.85636 C 598.65294 472.43648 598.08045 471.05903 598.08045 469.26302 L 598.08045 453.09258 C 598.08045 450.1075 596.85859 447.30321 594.69929 445.13235 C 592.6508 442.97703 589.98229 441.70687 587.14394 441.70687 L 570.52137 441.70687 C 567.61078 441.70687 564.86857 442.94298 562.71403 445.08548 C 560.50674 447.18355 559.28795 450.03288 559.28795 453.09258 L 559.28795 503.40647 C 559.28795 505.32631 558.71446 506.65706 557.34441 507.95099 L 557.31902 507.97442 L 557.29558 507.99981 C 555.99772 509.29767 554.68117 509.84144 552.85183 509.84144 L 502.53486 509.84144 C 500.60886 509.84144 499.17877 509.26763 497.80202 507.98809 C 496.50994 506.59784 495.95029 505.21049 495.95029 503.40647 L 495.95029 316.51877 C 495.95029 314.82497 496.49384 313.47026 497.82155 312.05432 C 499.21633 310.67081 500.62814 310.08379 502.53486 310.08379 z M 570.52137 339.27651 C 567.5754 339.27651 564.81179 340.60052 562.66715 342.85237 C 560.52271 345.00739 559.28795 347.7502 559.28795 350.66222 L 559.28795 401.27687 C 559.28795 404.19911 560.52632 406.95762 562.68473 409.11601 L 562.70817 409.1375 L 562.73161 409.16093 C 564.96418 411.27599 567.67051 412.51415 570.52137 412.51415 L 621.13914 412.51415 C 624.06138 412.51415 626.81542 411.27442 628.97382 409.11601 C 631.19815 406.8917 632.52296 404.16409 632.52296 401.27687 L 632.52296 350.66222 C 632.52296 347.72675 631.20318 344.97426 628.96601 342.83284 C 626.8246 340.59569 624.07459 339.27651 621.13914 339.27651 L 570.52137 339.27651 z M 570.52137 344.07882 L 621.13914 344.07882 C 622.77445 344.07882 624.09001 344.648 625.53602 346.17434 L 625.58094 346.22121 L 625.62782 346.26613 C 627.15416 347.71214 627.72176 349.02691 627.72176 350.66222 L 627.72176 401.27687 C 627.72176 402.78231 627.15027 404.1505 625.58094 405.71983 C 624.14534 407.15543 622.80923 407.7138 621.13914 407.7138 L 570.52137 407.7138 C 568.98946 407.7138 567.61086 407.1522 566.06199 405.69444 C 564.64508 404.26842 564.0872 402.93714 564.0872 401.27687 L 564.0872 350.66222 C 564.0872 348.99213 564.64397 347.65484 566.07956 346.21926 L 566.10105 346.19777 L 566.12449 346.17434 C 567.57049 344.648 568.88607 344.07882 570.52137 344.07882 z M 479.14997 486.60718 A 4.8004265 4.799574 0 0 1 483.94922 491.40753 A 4.8004265 4.799574 0 0 1 479.14997 496.20594 A 4.8004265 4.799574 0 0 1 474.34876 491.40753 A 4.8004265 4.799574 0 0 1 479.14997 486.60718 z "
         transform="scale(0.9999112,1.0000888)" />
      <path
         id="text11"
         style="color:#000000;-inkscape-font-specification:'LoRes 9 Plus OT';fill:#000000;-inkscape-stroke:none"
         inkscape:label="T"
         d="M 278.83335 305.28344 C 275.83738 305.28344 273.02238 306.50746 270.84827 308.68157 L 270.82483 308.70696 L 270.80139 308.73235 C 268.75386 310.90032 267.59993 313.63131 267.59993 316.51877 L 267.59993 333.14034 C 267.59993 335.95485 268.7691 338.62845 270.80139 340.78029 L 270.84827 340.83106 L 270.8971 340.87793 C 273.0812 342.94069 275.87071 344.07883 278.83335 344.07882 L 278.83335 368.07669 L 302.83549 368.07669 L 302.83549 344.07882 L 329.15032 344.07882 C 330.94633 344.07882 332.32265 344.65095 333.74253 346.07083 C 335.16241 347.49071 335.73489 348.86621 335.73489 350.66222 L 335.73489 503.40647 C 335.73489 506.40246 336.95952 509.21993 339.13363 511.39404 L 339.15902 511.41748 L 339.18442 511.44091 C 341.35238 513.48843 344.08281 514.6418 346.97026 514.6418 L 397.58609 514.6418 C 400.40058 514.6418 403.06068 513.45723 405.12387 511.39404 C 407.29797 509.21993 408.52065 506.40246 408.52065 503.40647 L 432.52278 503.40647 L 432.52278 479.4086 L 408.52065 479.4086 L 408.52065 350.66222 C 408.52065 348.99213 409.07743 347.65484 410.51302 346.21926 C 412.06746 344.66481 413.47188 344.07882 415.10717 344.07882 L 465.723 344.07882 C 468.52591 344.07882 471.18386 342.91237 473.33109 340.89551 C 475.61494 338.84184 476.95642 336.08764 476.95642 333.14034 L 476.95642 316.51877 C 476.95642 313.67939 475.70609 310.99971 473.57916 308.86124 C 471.43426 306.60813 468.66986 305.28344 465.723 305.28344 L 278.83335 305.28344 z M 278.83335 310.08379 L 465.723 310.08379 C 467.3583 310.08379 468.67387 310.65297 470.11987 312.17931 L 470.14331 312.20275 L 470.1648 312.22618 C 471.61611 313.67749 472.15912 314.97698 472.15912 316.51877 L 472.15912 333.14034 C 472.15912 334.77565 471.60807 336.00455 470.11206 337.34309 L 470.08862 337.36457 L 470.06518 337.38606 C 468.62303 338.74808 467.30116 339.27651 465.723 339.27651 L 415.10717 339.27651 C 412.15016 339.27651 409.35935 340.58777 407.12014 342.82698 C 404.96174 344.98538 403.7214 347.73998 403.7214 350.66222 L 403.7214 503.40647 C 403.7214 505.20248 403.14891 506.57993 401.72903 507.99981 C 400.39789 509.33095 399.16425 509.84144 397.58609 509.84144 L 346.97026 509.84144 C 345.27612 509.84144 343.92129 509.29688 342.50502 507.96856 C 341.10738 506.55947 340.5361 505.1896 340.5361 503.40647 L 340.5361 350.66222 C 340.5361 347.66623 339.31147 344.85072 337.13736 342.6766 C 334.96324 340.50249 332.14631 339.27651 329.15032 339.27651 L 278.83335 339.27651 C 277.02632 339.27651 275.63961 338.71799 274.24701 337.42121 C 272.92921 336.00374 272.39919 334.69524 272.39919 333.14034 L 272.39919 316.51877 C 272.39919 314.82551 272.94367 313.47172 274.27045 312.05627 C 275.68077 310.65613 277.04878 310.08379 278.83335 310.08379 z M 290.83442 351.2774 A 4.8004265 4.799574 0 0 1 295.63367 356.07776 A 4.8004265 4.799574 0 0 1 290.83442 360.87616 A 4.8004265 4.799574 0 0 1 286.03321 356.07776 A 4.8004265 4.799574 0 0 1 290.83442 351.2774 z M 420.52172 486.60718 A 4.8004265 4.799574 0 0 1 425.32097 491.40753 A 4.8004265 4.799574 0 0 1 420.52172 496.20594 A 4.8004265 4.799574 0 0 1 415.72051 491.40753 A 4.8004265 4.799574 0 0 1 420.52172 486.60718 z "
         transform="scale(0.9999112,1.0000888)" />
      <path
         id="text12"
         style="color:#000000;-inkscape-font-specification:'LoRes 9 Plus OT';fill:#000000;-inkscape-stroke:none"
         inkscape:label="E"
         d="M 89.42591 305.28344 C 86.354091 305.28344 83.478296 306.49175 81.288468 308.68157 L 81.263076 308.70696 L 81.239636 308.73235 C 79.19211 310.90032 78.040133 313.63131 78.040133 316.51877 L 54.038002 316.51877 L 54.038002 340.51664 L 78.040133 340.51664 L 78.040133 503.40647 C 78.040133 506.36913 79.176877 509.15917 81.239636 511.34326 L 81.288468 511.39404 L 81.337301 511.44091 C 83.537528 513.5189 86.386091 514.6418 89.42591 514.6418 L 218.16781 514.6418 L 218.16781 538.63967 L 242.16994 538.63967 L 242.16994 514.6418 C 244.98445 514.6418 247.65745 513.4732 249.80929 511.44091 L 249.80929 511.43896 L 249.81125 511.43896 C 252.09467 509.27571 253.40531 506.43579 253.40531 503.40647 L 253.40531 487.0837 C 253.40531 484.11145 252.17295 481.33531 249.99876 479.25627 C 247.91972 477.0821 245.14219 475.85032 242.16994 475.85032 L 157.41242 475.85032 C 155.88005 475.85032 154.49857 475.28969 152.94913 473.83097 C 151.54896 472.42064 150.9763 471.04761 150.9763 469.26302 L 150.9763 418.94717 C 150.9763 417.15116 151.53271 415.8631 152.91983 414.55303 L 152.94522 414.5296 L 152.96866 414.50616 C 154.40425 413.07057 155.74233 412.51415 157.41242 412.51415 L 208.02824 412.51415 C 210.94026 412.51415 213.68252 411.27803 215.83753 409.13359 C 218.08938 406.98895 219.41206 404.22285 219.41206 401.27687 L 219.41206 384.65725 C 219.41206 381.79102 218.05666 379.11273 215.80627 377.07784 C 213.65548 374.95051 210.9277 373.71877 208.02824 373.71877 L 157.41242 373.71877 C 155.88948 373.71877 154.5143 373.15958 152.97647 371.7209 C 151.54962 370.1959 150.9763 368.78596 150.9763 367.13537 L 150.9763 350.66222 C 150.9763 348.99213 151.53307 347.65484 152.96866 346.21926 L 152.9921 346.19777 L 153.01359 346.17434 C 154.45959 344.648 155.77711 344.07883 157.41242 344.07882 L 242.16994 344.07882 C 244.97144 344.07882 247.62942 342.91437 249.77609 340.89942 C 252.06122 338.84554 253.40531 336.08855 253.40531 333.14034 L 253.40531 316.51877 C 253.40531 313.6794 252.15499 310.99971 250.02806 308.86124 C 247.88314 306.60813 245.11682 305.28344 242.16994 305.28344 L 89.42591 305.28344 z M 89.42591 310.08379 L 242.16994 310.08379 C 243.80525 310.08379 245.12277 310.65297 246.56877 312.17931 L 246.59026 312.20275 L 246.6137 312.22618 C 248.065 313.67749 248.60606 314.97698 248.60606 316.51877 L 248.60606 333.14034 C 248.60606 334.77565 248.05697 336.00455 246.56096 337.34309 L 246.53556 337.36457 L 246.51212 337.38606 C 245.06997 338.74808 243.7481 339.27651 242.16994 339.27651 L 157.41242 339.27651 C 154.46644 339.27651 151.7009 340.60051 149.55625 342.85237 C 147.41181 345.00739 146.17509 347.7502 146.17509 350.66222 L 146.17509 367.13537 C 146.17509 370.0576 147.39939 372.82629 149.5289 375.07412 L 149.57383 375.12099 L 149.62071 375.1659 C 151.85328 377.28096 154.56155 378.51912 157.41242 378.51912 L 208.02824 378.51912 C 209.69833 378.51912 211.03445 379.07554 212.47004 380.51113 L 212.51692 380.558 L 212.56575 380.60292 C 214.07919 381.95705 214.61085 383.14987 214.61085 384.6553 L 214.61085 401.27687 C 214.61085 402.91217 214.0413 404.22892 212.51497 405.67491 L 212.49153 405.6964 L 212.47004 405.71983 C 211.03445 407.15543 209.69833 407.7138 208.02824 407.7138 L 157.41242 407.7138 C 154.50416 407.7138 151.76275 408.94918 149.60899 411.0885 C 147.41531 413.17068 146.17509 415.96075 146.17509 418.94717 L 146.17509 469.26302 C 146.17509 472.259 147.39971 475.07647 149.57383 477.25059 L 149.59727 477.27402 L 149.62071 477.29746 C 151.85328 479.41253 154.56155 480.64872 157.41242 480.64872 L 242.16994 480.64872 C 243.96595 480.64872 245.25481 481.20478 246.56486 482.59191 L 246.61174 482.64269 L 246.66253 482.68956 C 248.04966 483.99963 248.60606 485.2877 248.60606 487.0837 L 248.60606 503.40647 C 248.60606 505.16774 248.01966 506.52152 246.51212 507.95099 C 245.06997 509.31303 243.7481 509.84144 242.16994 509.84144 L 89.42591 509.84144 C 87.499917 509.84144 86.067863 509.26763 84.691114 507.98809 C 83.399031 506.59784 82.839387 505.21049 82.839387 503.40647 L 82.839387 316.51877 C 82.839387 314.82641 83.383452 313.47287 84.708694 312.05823 C 86.104881 310.67164 87.517226 310.08379 89.42591 310.08379 z M 66.039067 323.71735 A 4.8004265 4.799574 0 0 1 70.838322 328.5177 A 4.8004265 4.799574 0 0 1 66.039067 333.3161 A 4.8004265 4.799574 0 0 1 61.23786 328.5177 A 4.8004265 4.799574 0 0 1 66.039067 323.71735 z M 230.16888 521.84038 A 4.8004265 4.799574 0 0 1 234.96813 526.64073 A 4.8004265 4.799574 0 0 1 230.16888 531.43914 A 4.8004265 4.799574 0 0 1 225.36767 526.64073 A 4.8004265 4.799574 0 0 1 230.16888 521.84038 z "
         transform="scale(0.9999112,1.0000888)" />
    </g>
    <g
       inkscape:groupmode="layer"
       id="layer4"
       inkscape:label="BERT"
       style="display:inline">
      <path
         id="text5"
         style="color:#000000;-inkscape-font-specification:'LoRes 9 Plus OT';fill:#000000;stroke-linecap:square;-inkscape-stroke:none"
         inkscape:label="T"
         d="M 786.92644 14.143256 C 783.93047 14.143256 781.1135 15.367287 778.93939 17.541387 L 778.91595 17.566775 L 778.89251 17.59021 C 776.845 19.758167 775.69105 22.491129 775.69105 25.37857 L 775.69105 42.000118 C 775.69105 44.814603 776.86024 47.486273 778.89251 49.638101 L 778.93939 49.686924 L 778.98823 49.733795 C 781.17231 51.79654 783.9638 52.934678 786.92644 52.934678 L 837.24153 52.934678 C 839.03751 52.934678 840.41388 53.508773 841.83374 54.928639 C 843.25362 56.348507 843.8261 57.725987 843.8261 59.521975 L 843.8261 188.26817 L 819.82394 188.26817 L 819.82394 212.26601 L 843.8261 212.26601 C 843.8261 215.26198 845.05075 218.07752 847.22485 220.25162 L 847.25024 220.27505 L 847.27368 220.29849 C 849.44163 222.34601 852.176 223.49937 855.06345 223.49937 L 905.67739 223.49937 C 908.49188 223.49937 911.15201 222.31481 913.21518 220.25162 C 915.38928 218.07752 916.61392 215.26198 916.61392 212.26601 L 916.61392 86.263703 L 940.61608 86.263703 L 940.61608 62.265868 L 916.61392 62.265868 L 916.61392 59.521975 C 916.61392 57.851907 917.1707 56.514597 918.60629 55.079016 C 920.16072 53.524582 921.56125 52.934678 923.19654 52.934678 L 973.81244 52.934678 C 976.61534 52.934678 979.27527 51.77017 981.4225 49.753325 C 983.70506 47.699858 985.04978 44.946489 985.04978 42.000118 L 985.04978 25.37857 C 985.04978 22.539214 983.79748 19.859513 981.67057 17.721058 C 979.52566 15.467956 976.75929 14.143256 973.81244 14.143256 L 786.92644 14.143256 z M 786.92644 18.943604 L 973.81244 18.943604 C 975.44772 18.943604 976.76527 19.512793 978.21127 21.039118 L 978.23276 21.062553 L 978.2562 21.085989 C 979.70749 22.537282 980.24856 23.83679 980.24856 25.37857 L 980.24856 42.000118 C 980.24856 43.635407 979.69946 44.862386 978.20346 46.200911 L 978.17807 46.222393 L 978.15463 46.245829 C 976.71248 47.607853 975.39058 48.136283 973.81244 48.136283 L 923.19654 48.136283 C 920.23954 48.136283 917.45065 49.443637 915.21145 51.682838 C 913.05305 53.841226 911.81271 56.59975 911.81271 59.521975 L 911.81271 212.26601 C 911.81271 214.062 911.24021 215.43752 909.82034 216.85739 C 908.48922 218.18852 907.25553 218.69902 905.67739 218.69902 L 855.06345 218.69902 C 853.36931 218.69902 852.01445 218.15446 850.5982 216.82615 C 849.20058 215.41707 848.62732 214.04911 848.62732 212.26601 L 848.62732 59.521975 C 848.62732 56.526004 847.40268 53.708516 845.22857 51.534414 C 843.05447 49.360311 840.23749 48.136283 837.24153 48.136283 L 786.92644 48.136283 C 785.12037 48.136283 783.73194 47.578211 782.34009 46.282935 C 781.01983 44.864084 780.49031 43.556307 780.49031 42.000118 L 780.49031 25.37857 C 780.49031 23.685327 781.03481 22.331521 782.36158 20.916082 C 783.77189 19.515938 785.14188 18.943604 786.92644 18.943604 z M 928.615 69.464437 A 4.8004332 4.7995673 0 0 1 933.41426 74.264786 A 4.8004332 4.7995673 0 0 1 928.615 79.063181 A 4.8004332 4.7995673 0 0 1 923.81379 74.264786 A 4.8004332 4.7995673 0 0 1 928.615 69.464437 z M 831.82502 195.46674 A 4.8004332 4.7995673 0 0 1 836.62428 200.26709 A 4.8004332 4.7995673 0 0 1 831.82502 205.06549 A 4.8004332 4.7995673 0 0 1 827.02381 200.26709 A 4.8004332 4.7995673 0 0 1 831.82502 195.46674 z "
         transform="scale(0.99990981,1.0000902)" />
      <path
         id="text6"
         style="color:#000000;-inkscape-font-specification:'LoRes 9 Plus OT';fill:#000000;stroke-linecap:square;-inkscape-stroke:none"
         inkscape:label="R"
         d="M 563.52543 14.143256 C 560.45364 14.143256 557.5778 15.351572 555.38798 17.541387 L 555.36454 17.566775 L 555.3411 17.59021 C 553.29357 19.758166 552.1416 22.491127 552.14159 25.37857 L 528.13943 25.37857 L 528.13943 49.376406 L 552.14159 49.376406 L 552.14159 212.26601 C 552.14159 215.22865 553.27834 218.01872 555.3411 220.20279 L 555.38798 220.25162 L 555.43681 220.29849 C 557.63703 222.37648 560.48564 223.49937 563.52543 223.49937 L 613.84247 223.49937 C 616.79305 223.49937 619.55443 222.35143 621.64786 220.27115 C 623.8559 218.17298 625.07591 215.32624 625.07591 212.26601 L 625.07591 161.94828 C 625.07591 160.02846 625.6494 158.69769 627.01944 157.40377 L 627.04483 157.38034 L 627.06827 157.3569 C 628.50385 155.92132 629.84196 155.36294 631.51203 155.36294 L 648.13267 155.36294 C 649.67446 155.36294 650.88643 155.88681 652.22875 157.30808 L 652.25219 157.33151 L 652.27758 157.3569 C 653.69745 158.77678 654.26995 160.15425 654.26995 161.95024 L 654.26995 178.12261 C 654.26995 181.11857 655.49459 183.93607 657.66869 186.11017 C 659.84279 188.28427 662.65781 189.5083 665.65379 189.5083 L 682.12793 189.5083 C 683.92393 189.5083 685.29832 190.08044 686.71819 191.5003 L 686.74358 191.52374 L 686.76702 191.54718 C 688.15413 192.85722 688.71055 194.14531 688.71055 195.94131 L 688.71055 212.26601 C 688.71055 215.22865 689.84925 218.01872 691.91201 220.20279 L 691.93545 220.22623 L 691.96085 220.25162 C 694.04065 222.33145 696.75965 223.49937 699.64709 223.49937 L 750.26103 223.49937 C 753.07551 223.49937 755.74856 222.33078 757.90039 220.29849 L 757.90234 220.29849 L 757.90234 220.29654 C 760.18577 218.1333 761.49837 215.29532 761.49837 212.26601 L 761.49837 195.94131 C 761.49837 192.96869 760.26454 190.19496 758.08986 188.11584 C 756.01075 185.94117 753.23363 184.706 750.26103 184.706 L 733.93924 184.706 C 732.13374 184.706 730.74625 184.14705 729.35484 182.85265 C 728.07674 181.47657 727.50311 180.04755 727.50311 178.12261 L 727.50311 127.80683 C 727.50311 125.97751 728.04917 124.66173 729.34703 123.36387 L 729.37047 123.34044 L 729.39391 123.31505 C 730.68783 121.94502 732.01942 121.37186 733.93924 121.37186 L 750.26103 121.37186 C 753.10038 121.37186 755.78147 120.11822 757.91992 117.99131 C 760.17302 115.8464 761.49837 113.08341 761.49837 110.13655 L 785.50053 110.13655 L 785.50053 86.138715 L 761.49837 86.138715 L 761.49837 59.521975 C 761.49837 56.611405 760.26163 53.866655 758.11916 51.712132 C 755.97425 49.459031 753.20788 48.136283 750.26103 48.136283 L 733.93924 48.136283 C 732.12231 48.136283 730.72776 47.577514 729.3275 46.265358 C 728.03279 44.96042 727.50311 43.693275 727.50311 42.000118 L 727.50311 25.37857 C 727.50311 22.539211 726.25276 19.859514 724.12586 17.721058 C 721.98095 15.467958 719.21655 14.143256 716.26968 14.143256 L 563.52543 14.143256 z M 563.52543 18.943604 L 716.26968 18.943604 C 717.90497 18.943604 719.22057 19.512796 720.66656 21.039118 L 720.69 21.062553 L 720.71344 21.085989 C 722.16473 22.537282 722.70581 23.83679 722.70581 25.37857 L 722.70581 42.000118 C 722.70581 44.887561 723.87237 47.60711 725.95219 49.686924 L 725.97563 49.71036 L 726.00102 49.733795 C 728.18511 51.796543 730.97661 52.934678 733.93924 52.934678 L 750.26103 52.934678 C 751.89631 52.934678 753.21387 53.505823 754.65986 55.032145 L 754.68135 55.055581 L 754.70479 55.079016 C 756.14036 56.514596 756.69715 57.851904 756.69715 59.521975 L 756.69715 110.13655 C 756.69715 111.77184 756.12758 113.08665 754.60126 114.53264 L 754.57782 114.55607 L 754.55438 114.57756 C 753.10308 116.02884 751.8028 116.57152 750.26103 116.57152 L 733.93924 116.57152 C 730.87753 116.57152 728.02721 117.79277 725.92875 120.00285 C 723.85096 122.09582 722.70581 124.8581 722.70581 127.80683 L 722.70581 178.12261 C 722.70581 181.1624 723.82733 184.00955 725.90531 186.20977 L 725.95219 186.26054 L 726.00102 186.30741 C 728.18511 188.37016 730.97661 189.5083 733.93924 189.5083 L 750.26103 189.5083 C 752.05701 189.5083 753.34786 190.06437 754.65791 191.45148 L 754.70479 191.5003 L 754.75362 191.54718 C 756.14073 192.85722 756.69715 194.14531 756.69715 195.94131 L 756.69715 212.26601 C 756.69715 214.02726 756.11074 215.37911 754.60321 216.80857 C 753.16107 218.1706 751.83916 218.69902 750.26103 218.69902 L 699.64709 218.69902 C 697.95544 218.69902 696.68869 218.17112 695.38498 216.87888 C 694.07131 215.47787 693.51177 214.08391 693.51177 212.26601 L 693.51177 195.94131 C 693.51177 192.9562 692.27559 190.1665 690.08372 188.0846 C 687.91328 185.92705 685.10975 184.70795 682.12597 184.70795 L 665.65379 184.70795 C 663.85779 184.70795 662.48144 184.13386 661.06157 182.71399 C 659.64171 181.29412 659.06921 179.91858 659.06921 178.12261 L 659.06921 161.94828 C 659.06921 158.96323 657.84733 156.16086 655.68804 153.99002 C 653.63955 151.83472 650.97101 150.56454 648.13267 150.56454 L 631.51203 150.56454 C 628.60236 150.56454 625.85891 151.79993 623.70469 153.94119 C 621.49664 156.03937 620.27469 158.88806 620.27469 161.94828 L 620.27469 212.26601 C 620.27469 214.18583 619.7012 215.51465 618.33116 216.80857 L 618.30772 216.83396 L 618.28233 216.85739 C 616.98447 218.15525 615.67178 218.69902 613.84247 218.69902 L 563.52543 218.69902 C 561.59787 218.69902 560.16647 218.12552 558.78868 216.84372 C 557.49809 215.45422 556.9389 214.06905 556.9389 212.26601 L 556.9389 25.37857 C 556.9389 23.686224 557.48298 22.332663 558.80821 20.918035 C 560.20439 19.531454 561.61678 18.943604 563.52543 18.943604 z M 540.14051 32.57714 A 4.8004332 4.7995673 0 0 1 544.93977 37.377488 A 4.8004332 4.7995673 0 0 1 540.14051 42.175883 A 4.8004332 4.7995673 0 0 1 535.3393 37.377488 A 4.8004332 4.7995673 0 0 1 540.14051 32.57714 z M 631.51203 48.136283 C 628.56517 48.136283 625.7988 49.459031 623.6539 51.712132 C 621.51142 53.866655 620.27469 56.611405 620.27469 59.521975 L 620.27469 110.13655 C 620.27469 113.05878 621.51505 115.81339 623.67344 117.97178 L 623.69688 117.99522 L 623.72032 118.0167 C 625.95287 120.13175 628.66119 121.37186 631.51203 121.37186 L 682.12597 121.37186 C 685.0482 121.37186 687.80423 120.13017 689.96262 117.97178 C 692.18694 115.74746 693.51177 113.02376 693.51177 110.13655 L 693.51177 59.521975 C 693.51177 56.586529 692.19195 53.832051 689.95481 51.69065 C 687.81341 49.453513 685.06141 48.136283 682.12597 48.136283 L 631.51203 48.136283 z M 631.51203 52.934678 L 682.12597 52.934678 C 683.76127 52.934678 685.07687 53.505823 686.52285 55.032145 L 686.56778 55.079016 L 686.61466 55.123934 C 688.14099 56.569924 688.71055 57.886687 688.71055 59.521975 L 688.71055 110.13655 C 688.71055 111.64197 688.1371 113.00823 686.56778 114.57756 C 685.1322 116.01312 683.79801 116.57152 682.12793 116.57152 L 631.51203 116.57152 C 629.98013 116.57152 628.59956 116.00992 627.05069 114.55217 C 625.63381 113.12616 625.07591 111.79681 625.07591 110.13655 L 625.07591 59.521975 C 625.07591 57.851904 625.6327 56.514596 627.06827 55.079016 L 627.09171 55.055581 L 627.1132 55.032145 C 628.55919 53.505823 629.87675 52.934678 631.51203 52.934678 z M 773.49945 93.337284 A 4.8004332 4.7995673 0 0 1 778.29871 98.137632 A 4.8004332 4.7995673 0 0 1 773.49945 102.93603 A 4.8004332 4.7995673 0 0 1 768.69824 98.137632 A 4.8004332 4.7995673 0 0 1 773.49945 93.337284 z "
         transform="scale(0.99990981,1.0000902)" />
      <path
         id="text7"
         style="color:#000000;-inkscape-font-specification:'LoRes 9 Plus OT';fill:#000000;stroke-linecap:square;-inkscape-stroke:none"
         inkscape:label="E"
         d="M 339.97402 14.143256 C 336.90221 14.143256 334.02834 15.35157 331.83852 17.541387 L 331.81508 17.566775 L 331.79164 17.59021 C 329.74413 19.758167 328.59018 22.491129 328.59018 25.37857 L 304.58802 25.37857 L 304.58802 49.376406 L 328.59018 49.376406 L 328.59018 212.26601 C 328.59018 215.22865 329.7289 218.01872 331.79164 220.20279 L 331.83852 220.25162 L 331.88931 220.29849 C 334.08953 222.37648 336.93421 223.49937 339.97402 223.49937 L 468.7161 223.49937 L 468.7161 247.49721 L 492.71827 247.49721 L 492.71827 223.49937 C 495.53275 223.49937 498.2058 222.33078 500.35763 220.29849 L 500.35958 220.29654 C 502.64301 218.1333 503.95366 215.29532 503.95365 212.26601 L 503.95365 195.94131 C 503.95365 192.96722 502.7199 190.19138 500.54319 188.11194 C 498.46449 185.93979 495.68902 184.70795 492.71827 184.70795 L 407.96062 184.70795 C 406.4275 184.70795 405.04769 184.14698 403.49733 182.68665 C 402.09717 181.27633 401.52645 179.90716 401.52645 178.12261 L 401.52645 127.80683 C 401.52645 126.01085 402.08091 124.72275 403.46803 123.4127 L 403.49342 123.38926 L 403.51686 123.36387 C 404.95244 121.92829 406.29054 121.37186 407.96062 121.37186 L 458.57652 121.37186 C 461.48851 121.37186 464.23276 120.13379 466.38777 117.98936 C 468.6396 115.84473 469.96035 113.08251 469.96035 110.13655 L 469.96035 93.513049 C 469.96035 90.648237 468.60686 87.974023 466.35847 85.939514 C 464.20738 83.810958 461.47685 82.578489 458.57652 82.578489 L 407.96062 82.578489 C 406.4377 82.578489 405.06444 82.019266 403.52663 80.580622 C 402.09978 79.055628 401.52645 77.645672 401.52645 75.995098 L 401.52645 59.521975 C 401.52645 57.851907 402.08127 56.514597 403.51686 55.079016 L 403.5403 55.055581 L 403.56374 55.032145 C 405.00973 53.505823 406.32533 52.934678 407.96062 52.934678 L 492.71827 52.934678 C 495.52118 52.934678 498.1811 51.770171 500.32833 49.753325 C 502.61089 47.699858 503.95365 44.946489 503.95365 42.000118 L 503.95365 25.37857 C 503.95365 22.537799 502.70134 19.856127 500.57249 17.717152 C 498.42813 15.466555 495.66333 14.143256 492.71827 14.143256 L 339.97402 14.143256 z M 339.97402 18.943604 L 492.71827 18.943604 C 494.35355 18.943604 495.67111 19.512796 497.1171 21.039118 L 497.13859 21.062553 L 497.16203 21.085989 C 498.61333 22.537283 499.15439 23.836792 499.15439 25.37857 L 499.15439 42.000118 C 499.15439 43.635407 498.60529 44.862386 497.10929 46.200911 L 497.08389 46.222393 L 497.06045 46.245829 C 495.61831 47.607852 494.29641 48.136283 492.71827 48.136283 L 407.96062 48.136283 C 405.01556 48.136283 402.25271 49.457634 400.10835 51.708227 C 397.96391 53.863227 396.72719 56.609969 396.72719 59.521975 L 396.72719 75.995098 C 396.72719 78.917323 397.94954 81.686024 400.07905 83.933835 L 400.12398 83.980706 L 400.17086 84.025624 C 402.4034 86.140673 405.10976 87.378837 407.96062 87.378837 L 458.57652 87.378837 C 460.24658 87.378837 461.58469 87.935261 463.02028 89.370845 L 463.06715 89.417716 L 463.11599 89.462634 C 464.62942 90.81675 465.16109 92.007632 465.16109 93.513049 L 465.16109 110.13655 C 465.16109 111.77184 464.59153 113.08665 463.0652 114.53264 L 463.04176 114.55607 L 463.02028 114.57756 C 461.58469 116.01313 460.24658 116.57152 458.57652 116.57152 L 407.96062 116.57152 C 405.05096 116.57152 402.3114 117.80691 400.15718 119.94817 C 397.96479 122.03014 396.72719 124.82134 396.72719 127.80683 L 396.72719 178.12261 C 396.72719 181.11857 397.95182 183.93607 400.12593 186.11017 L 400.14742 186.13165 L 400.17086 186.15508 C 402.4034 188.27013 405.10977 189.5083 407.96062 189.5083 L 492.71827 189.5083 C 494.51425 189.5083 495.80315 190.06437 497.11319 191.45148 L 497.16007 191.5003 L 497.21086 191.54718 C 498.59797 192.85722 499.15439 194.14531 499.15439 195.94131 L 499.15439 212.26601 C 499.15439 214.02726 498.56798 215.37911 497.06045 216.80857 C 495.61831 218.1706 494.2964 218.69902 492.71827 218.69902 L 339.97402 218.69902 C 338.04845 218.69902 336.61958 218.12657 335.24313 216.84763 C 333.95017 215.45694 333.3914 214.07058 333.3914 212.26601 L 333.3914 25.37857 C 333.3914 23.684789 333.93497 22.330058 335.26266 20.914129 C 336.65743 19.530634 338.06731 18.943604 339.97402 18.943604 z M 316.5891 32.57714 A 4.8004332 4.7995673 0 0 1 321.38836 37.377488 A 4.8004332 4.7995673 0 0 1 316.5891 42.175883 A 4.8004332 4.7995673 0 0 1 311.78789 37.377488 A 4.8004332 4.7995673 0 0 1 316.5891 32.57714 z M 480.71718 230.69794 A 4.8004332 4.7995673 0 0 1 485.51644 235.49829 A 4.8004332 4.7995673 0 0 1 480.71718 240.29668 A 4.8004332 4.7995673 0 0 1 475.91597 235.49829 A 4.8004332 4.7995673 0 0 1 480.71718 230.69794 z "
         transform="scale(0.99990981,1.0000902)" />
      <path
         id="text8"
         style="color:#000000;-inkscape-font-specification:'LoRes 9 Plus OT';display:inline;fill:#000000;stroke-linecap:square;-inkscape-stroke:none"
         inkscape:label="B"
         d="M 82.431263 14.143256 C 79.35946 14.143256 76.485579 15.351572 74.295763 17.541387 L 74.272324 17.566775 L 74.248884 17.59021 C 72.201369 19.758167 71.047423 22.491129 71.047423 25.37857 L 71.047423 188.26817 L 47.045259 188.26817 L 47.045259 212.26601 L 71.047423 212.26601 C 71.047423 215.22865 72.186136 218.01872 74.248884 220.20279 L 74.295763 220.25162 L 74.344596 220.29849 C 76.544811 222.37648 79.391458 223.49937 82.431263 223.49937 L 235.17551 223.49937 C 237.98999 223.49937 240.66109 222.33078 242.81291 220.29849 L 242.81487 220.29849 L 242.81682 220.29654 C 245.10024 218.13331 246.4109 215.29532 246.4109 212.26601 L 246.4109 195.94131 C 246.4109 193.98949 246.97359 192.63115 248.25481 191.34993 C 249.53602 190.06872 250.89325 189.5083 252.84507 189.5083 L 269.16881 189.5083 C 272.00816 189.5083 274.6873 188.2566 276.82575 186.1297 C 279.09483 183.96923 280.4042 181.14161 280.4042 178.12261 L 280.4042 151.80467 L 304.40636 151.80467 L 304.40636 127.80683 L 280.4042 127.80683 C 280.4042 124.82135 279.16659 122.03014 276.9742 119.94817 C 274.81998 117.80691 272.07847 116.57152 269.16881 116.57152 L 252.84507 116.57152 C 251.0605 116.57152 249.69247 115.99722 248.28216 114.59709 C 246.95539 113.18165 246.4109 111.8298 246.4109 110.13655 L 246.4109 93.513049 C 246.4109 91.934905 246.92368 90.701971 248.25481 89.370845 C 249.67467 87.950978 251.04908 87.378837 252.84507 87.378837 L 269.16881 87.378837 C 272.01965 87.378837 274.71237 86.123382 276.85505 83.980706 C 279.09425 81.741505 280.4042 78.952103 280.4042 75.995098 L 280.4042 59.521975 C 280.4042 56.611405 279.16746 53.866655 277.02498 51.712132 C 274.88008 49.459031 272.11566 48.136283 269.16881 48.136283 L 252.84507 48.136283 C 251.02813 48.136283 249.63554 47.577513 248.23528 46.265358 C 246.94051 44.960421 246.4109 43.693277 246.4109 42.000118 L 246.4109 25.37857 C 246.4109 22.539209 245.1586 19.859513 243.03168 17.721058 C 240.88678 15.467958 238.12237 14.143256 235.17551 14.143256 L 82.431263 14.143256 z M 82.431263 18.943604 L 235.17551 18.943604 C 236.8108 18.943604 238.1264 19.512796 239.57239 21.039118 L 239.59583 21.062553 L 239.61927 21.085989 C 241.07057 22.537283 241.61163 23.836792 241.61163 25.37857 L 241.61163 42.000118 C 241.61163 44.887559 242.78017 47.607109 244.85997 49.686924 L 244.88341 49.71036 L 244.90881 49.733795 C 247.09289 51.796544 249.88243 52.934678 252.84507 52.934678 L 269.16881 52.934678 C 270.8041 52.934678 272.1197 53.505823 273.56569 55.032145 L 273.58717 55.055581 L 273.61061 55.079016 C 275.04619 56.514596 275.60298 57.851904 275.60298 59.521975 L 275.60298 75.995098 C 275.60298 77.630387 275.01464 79.032047 273.46021 80.586481 C 272.00891 82.037775 270.71059 82.578489 269.16881 82.578489 L 252.84507 82.578489 C 249.8491 82.578489 247.03408 83.802517 244.85997 85.97662 C 242.79681 88.039799 241.61163 90.698563 241.61163 93.513049 L 241.61163 110.13655 C 241.61163 113.02399 242.76558 115.755 244.8131 117.92296 L 244.83653 117.94835 L 244.85997 117.97178 C 247.03408 120.14588 249.8491 121.37186 252.84507 121.37186 L 269.16881 121.37186 C 270.83888 121.37186 272.17504 121.92829 273.61061 123.36387 L 273.63405 123.38926 L 273.65945 123.4127 C 275.04656 124.72275 275.60298 126.01084 275.60298 127.80683 L 275.60298 178.12261 C 275.60298 179.88525 275.01731 181.23834 273.50709 182.66907 L 273.48365 182.69055 L 273.46021 182.71399 C 272.00891 184.16529 270.71059 184.706 269.16881 184.706 L 252.84507 184.706 C 249.80527 184.706 246.97307 185.84261 244.85997 187.9557 C 242.7469 190.06879 241.61163 192.9015 241.61163 195.94131 L 241.61163 212.26601 C 241.61163 214.02726 241.02523 215.37911 239.5177 216.80857 C 238.07556 218.1706 236.75366 218.69902 235.17551 218.69902 L 82.431263 218.69902 C 80.503686 218.69902 79.072296 218.12552 77.694507 216.84372 C 76.403924 215.45422 75.844731 214.06905 75.844731 212.26601 L 75.844731 25.37857 C 75.844731 23.686222 76.388809 22.332662 77.71404 20.918035 C 79.110215 19.531454 80.522595 18.943604 82.431263 18.943604 z M 150.41786 48.136283 C 147.471 48.136283 144.70464 49.459033 142.55973 51.712132 C 140.41724 53.866655 139.18247 56.611405 139.18247 59.521975 L 139.18247 75.995098 C 139.18247 78.91732 140.40483 81.686023 142.53434 83.933835 L 142.57927 83.980706 L 142.62614 84.025624 C 144.8587 86.140671 147.56702 87.378837 150.41786 87.378837 L 201.03376 87.378837 C 203.95598 87.378837 206.71006 86.139092 208.86845 83.980706 C 211.10764 81.741505 212.4176 78.952103 212.4176 75.995098 L 212.4176 59.521975 C 212.4176 56.586529 211.09778 53.832051 208.86063 51.69065 C 206.71924 49.453516 203.96919 48.136283 201.03376 48.136283 L 150.41786 48.136283 z M 150.41786 52.934678 L 201.03376 52.934678 C 202.66904 52.934678 203.98464 53.50582 205.43064 55.032145 L 205.47556 55.079016 L 205.52244 55.123934 C 207.04877 56.569924 207.61638 57.886687 207.61638 59.521975 L 207.61638 75.995098 C 207.61638 77.630387 207.02999 79.032047 205.47556 80.586481 C 204.03997 82.022065 202.70382 82.578489 201.03376 82.578489 L 150.41786 82.578489 C 148.89494 82.578489 147.51973 82.019268 145.98192 80.580622 C 144.55507 79.055629 143.98174 77.645674 143.98174 75.995098 L 143.98174 59.521975 C 143.98174 57.851904 144.53852 56.514596 145.9741 55.079016 L 145.99754 55.055581 L 146.01903 55.032145 C 147.46503 53.505821 148.78257 52.934678 150.41786 52.934678 z M 150.41786 116.57152 C 147.50962 116.57152 144.76818 117.80691 142.61442 119.94621 C 140.42077 122.0284 139.18247 124.82042 139.18247 127.80683 L 139.18247 178.12261 C 139.18247 181.11857 140.40517 183.93607 142.57927 186.11017 L 142.60271 186.13165 L 142.62614 186.15508 C 144.8587 188.27012 147.56702 189.5083 150.41786 189.5083 L 201.03376 189.5083 C 204.02972 189.5083 206.84475 188.28427 209.01885 186.11017 C 211.19296 183.93607 212.4176 181.11857 212.4176 178.12261 L 212.4176 127.80683 C 212.4176 124.82173 211.18142 122.03005 208.98955 119.94817 C 206.8191 117.79061 204.01753 116.57152 201.03376 116.57152 L 150.41786 116.57152 z M 150.41786 121.37186 L 201.03376 121.37186 C 202.82974 121.37186 204.2061 121.944 205.62597 123.36387 L 205.64745 123.38926 L 205.67285 123.4127 C 207.05997 124.72275 207.61638 126.01085 207.61638 127.80683 L 207.61638 178.12261 C 207.61638 179.91858 207.04389 181.29412 205.62401 182.71399 C 204.20415 184.13386 202.82974 184.70795 201.03376 184.70795 L 150.41786 184.70795 C 148.88627 184.70795 147.50501 184.14762 145.95652 182.69055 C 144.55384 181.279 143.98174 179.90863 143.98174 178.12261 L 143.98174 127.80683 C 143.98174 126.01084 144.53816 124.72275 145.92527 123.4127 L 145.95066 123.38926 L 145.9741 123.36387 C 147.40969 121.92829 148.74778 121.37186 150.41786 121.37186 z M 292.40528 135.0054 A 4.8004332 4.7995673 0 0 1 297.20454 139.80575 A 4.8004332 4.7995673 0 0 1 292.40528 144.60414 A 4.8004332 4.7995673 0 0 1 287.60406 139.80575 A 4.8004332 4.7995673 0 0 1 292.40528 135.0054 z M 59.046341 195.46674 A 4.8004332 4.7995673 0 0 1 63.845602 200.26709 A 4.8004332 4.7995673 0 0 1 59.046341 205.06549 A 4.8004332 4.7995673 0 0 1 54.245127 200.26709 A 4.8004332 4.7995673 0 0 1 59.046341 195.46674 z "
         transform="scale(0.99990981,1.0000902)" />
    </g>
  </g>
  <g
     inkscape:groupmode="layer"
     id="layer2"
     inkscape:label="Letters_anchors"
     style="display:inline;opacity:1" />
</svg>
