<?xml version="1.0" encoding="UTF-8" standalone="no"?>
<!-- Created with Inkscape (http://www.inkscape.org/) -->

<svg
   width="11in"
   height="8.5in"
   viewBox="0 0 1056 816"
   version="1.1"
   id="svg1"
   inkscape:version="1.3.2 (091e20e, 2023-11-25, custom)"
   sodipodi:docname="Drawing.svg"
   xmlns:inkscape="http://www.inkscape.org/namespaces/inkscape"
   xmlns:sodipodi="http://sodipodi.sourceforge.net/DTD/sodipodi-0.dtd"
   xmlns="http://www.w3.org/2000/svg"
   xmlns:svg="http://www.w3.org/2000/svg">
  <sodipodi:namedview
     id="namedview1"
     pagecolor="#ffffff"
     bordercolor="#000000"
     borderopacity="0.25"
     inkscape:showpageshadow="2"
     inkscape:pageopacity="0.0"
     inkscape:pagecheckerboard="0"
     inkscape:deskcolor="#d1d1d1"
     inkscape:document-units="in"
     inkscape:zoom="0.70710678"
     inkscape:cx="538.10826"
     inkscape:cy="366.98842"
     inkscape:window-width="1536"
     inkscape:window-height="793"
     inkscape:window-x="1912"
     inkscape:window-y="-8"
     inkscape:window-maximized="1"
     inkscape:current-layer="layer5" />
  <defs
     id="defs1" />
  <g
     inkscape:label="Letters_fill"
     inkscape:groupmode="layer"
     id="g4"
     style="display:none"
     sodipodi:insensitive="true">
    <g
       inkscape:groupmode="layer"
       id="layer9"
       inkscape:label="MT">
      <path
         id="text23"
         style="font-size:306.667px;font-family:'LoRes 9 Plus OT';-inkscape-font-specification:'LoRes 9 Plus OT';letter-spacing:-15px;fill:#4d4d4d;stroke-width:4.8"
         inkscape:label="T"
         d="m 563.40039,601.18359 c -1.78357,0 -3.15302,0.57227 -4.5625,1.97071 -1.32763,1.41581 -1.87109,2.77122 -1.87109,4.46484 v 16.62109 c 0,1.55555 0.53031,2.86303 1.84961,4.28125 1.39135,1.29432 2.77853,1.85352 4.58398,1.85352 h 50.31641 c 2.99595,0 5.81224,1.22444 7.98632,3.39844 2.1741,2.17399 3.39844,4.9905 3.39844,7.98633 v 152.73437 c 0,1.78294 0.57315,3.15158 1.97071,4.56055 1.41619,1.3282 2.76884,1.87304 4.46289,1.87304 h 50.61523 c 1.57807,0 2.81151,-0.51078 4.14258,-1.84179 1.41981,-1.41976 1.99414,-2.79598 1.99414,-4.5918 V 641.75977 c 0,-2.92208 1.24006,-5.67765 3.39844,-7.83594 2.23918,-2.23908 5.02934,-3.54883 7.98633,-3.54883 h 50.61132 c 1.57807,0 2.89972,-0.52872 4.3418,-1.89062 l 0.0234,-0.0215 0.0254,-0.0215 c 1.49594,-1.33841 2.04493,-2.56605 2.04492,-4.20118 v -16.62109 c 0,-1.54162 -0.54095,-2.84179 -1.99219,-4.29297 l -0.0234,-0.0234 -0.0215,-0.0234 c -1.44595,-1.5262 -2.76323,-2.09571 -4.39844,-2.09571 z" />
      <path
         id="text24"
         style="font-size:306.667px;font-family:'LoRes 9 Plus OT';-inkscape-font-specification:'LoRes 9 Plus OT';letter-spacing:-15px;fill:#4d4d4d;stroke-width:4.8"
         inkscape:label="M"
         d="m 305.86328,601.18359 c -1.90857,0 -3.31872,0.58817 -4.71484,1.97461 -1.32518,1.41452 -1.86914,2.76875 -1.86914,4.46094 v 186.875 c 0,1.80384 0.55955,3.18995 1.85156,4.58008 1.37668,1.27942 2.80652,1.85351 4.73242,1.85351 h 16.17578 c 1.95173,0 3.31063,-0.56069 4.5918,-1.84179 l 0.0234,-0.0254 0.0254,-0.0234 c 1.36998,-1.2938 1.94336,-2.62331 1.94336,-4.54297 v -84.45312 c 0,-2.98349 1.23594,-5.774 3.42578,-7.85547 2.15467,-2.1431 4.8975,-3.37891 7.80859,-3.37891 h 16.32227 c 2.95149,0 5.71492,1.14906 7.80859,3.23047 2.206,2.09779 3.42578,4.94532 3.42578,8.00391 v 16.32226 c 0,1.53174 0.55988,2.91025 2.01758,4.45899 1.42595,1.41677 2.7578,1.97461 4.41797,1.97461 h 50.61523 c 1.66999,-10e-6 3.00589,-0.55672 4.44141,-1.99219 l 0.0234,-0.0234 0.0234,-0.0215 c 1.52626,-1.44587 2.09571,-2.76137 2.09571,-4.39649 V 675.752 c 0,-2.80227 1.17977,-5.4485 3.22656,-7.50781 2.06548,-2.17482 4.79749,-3.42773 7.70899,-3.42773 h 16.62109 c 2.80434,0 5.46354,1.16495 7.61133,3.18359 2.28124,2.05317 3.62304,4.80664 3.62304,7.75195 v 118.74219 c 0,1.81621 0.55988,3.20968 1.8711,4.60938 1.2738,1.26334 2.62551,1.82421 4.56445,1.82421 h 50.31445 c 1.95174,0 3.3126,-0.56069 4.59375,-1.84179 l 0.0234,-0.0254 0.0254,-0.0234 c 1.36997,-1.2938 1.94336,-2.62331 1.94336,-4.54297 v -186.875 c 0,-1.54163 -0.54095,-2.84179 -1.99219,-4.29297 l -0.0234,-0.0234 -0.0234,-0.0234 c -1.43068,-1.51009 -2.78431,-2.09571 -4.54688,-2.09571 h -50.31445 c -1.78446,0 -3.1542,0.57264 -4.56445,1.97266 -1.32671,1.41533 -1.8711,2.76981 -1.8711,4.46289 v 16.62109 c 0,2.85071 -1.25578,5.54493 -3.39843,7.6875 l -0.0234,0.0234 -0.0254,0.0234 c -2.16794,2.04741 -4.89968,3.20117 -7.78711,3.20117 h -16.62109 c -1.50533,0 -2.78685,0.5534 -4.24805,2.0957 -1.34426,1.42459 -1.88672,2.78502 -1.88672,4.48829 v 16.47265 c 0,2.95687 -1.30965,5.74725 -3.54883,7.98633 -2.15838,2.15828 -4.91373,3.39844 -7.83594,3.39844 h -16.47265 c -2.92221,0 -5.69362,-1.22412 -7.94141,-3.35352 l -0.0469,-0.0449 -0.0449,-0.0469 c -2.12948,-2.2477 -3.35351,-5.01737 -3.35351,-7.93946 v -16.47265 c 0,-1.82917 -0.55914,-3.23087 -1.89063,-4.64063 -1.32612,-1.40407 -2.57415,-1.94336 -4.24414,-1.94336 h -16.62109 c -2.81448,0 -5.5004,-1.15422 -7.74023,-3.1582 l -0.0234,-0.0215 -0.0234,-0.0215 c -2.18976,-2.06802 -3.44922,-4.81229 -3.44922,-7.73438 v -16.62109 c 0,-1.54163 -0.54096,-2.84179 -1.99219,-4.29297 l -0.0469,-0.0469 -0.043,-0.0508 c -1.32288,-1.47845 -2.58898,-2.04493 -4.35156,-2.04493 z" />
    </g>
    <g
       inkscape:groupmode="layer"
       id="layer8"
       inkscape:label="ETRN">
      <path
         id="text19"
         style="font-size:306.692px;font-family:'LoRes 9 Plus OT';-inkscape-font-specification:'LoRes 9 Plus OT';letter-spacing:-15px;fill:#4d4d4d;stroke-width:4.8"
         inkscape:label="N"
         d="m 760.06774,310.08847 c -1.90669,0 -3.31653,0.58704 -4.71129,1.97056 -1.32769,1.41597 -1.87123,2.77069 -1.87123,4.46452 v 186.89052 c 0,1.80405 0.55962,3.19142 1.8517,4.58169 1.37672,1.27956 2.80486,1.85338 4.73082,1.85338 h 16.17502 c 1.95181,0 3.30897,-0.56041 4.59018,-1.84166 l 0.0254,-0.0254 0.0254,-0.0234 c 1.37002,-1.29396 1.94351,-2.62472 1.94351,-4.54459 V 384.6611 c 0,-2.8398 1.27072,-5.50911 3.42798,-7.55803 2.1545,-2.14252 4.89667,-3.37866 7.80722,-3.37866 h 16.32151 c 2.95148,0 5.71748,1.15064 7.81113,3.23218 2.17218,2.06504 3.42603,4.79492 3.42603,7.70451 v 50.61737 c 0,1.53194 0.55999,2.90974 2.01773,4.45865 1.42599,1.41693 2.75608,1.97642 4.41634,1.97642 h 16.62232 c 2.83831,0 5.50482,1.27018 7.55329,3.42553 2.15927,2.17089 3.38111,4.97523 3.38111,7.96035 v 50.31465 c 0,1.78315 0.57323,3.15304 1.97085,4.56216 1.40099,1.31369 2.79768,1.87291 4.61557,1.87291 h 84.60584 c 1.57647,0 2.89981,-0.52772 4.34017,-1.88658 1.5102,-1.43076 2.09586,-2.78579 2.09586,-4.54849 V 316.52355 c 0,-1.54182 -0.54105,-2.84133 -1.99234,-4.29266 l -0.0234,-0.0234 -0.0215,-0.0234 c -1.44599,-1.52635 -2.76349,-2.09555 -4.39877,-2.09555 h -16.32151 c -1.78455,0 -3.1545,0.57235 -4.56479,1.97252 -1.32676,1.41547 -1.87123,2.76927 -1.87123,4.46256 v 118.75492 c 0,2.85091 -1.23874,5.55589 -3.35376,7.78849 l -0.0215,0.0234 -0.0234,0.0234 c -2.15837,2.15843 -4.91237,3.39818 -7.83456,3.39818 H 896.1891 c -2.85082,0 -5.54151,-1.25546 -7.68416,-3.39818 l -0.0254,-0.0234 -0.0234,-0.0254 c -2.04748,-2.168 -3.2014,-4.89903 -3.2014,-7.78653 v -50.6174 c 0,-1.50545 -0.53166,-2.69828 -2.04508,-4.05243 l -0.0508,-0.0449 -0.0469,-0.0469 c -1.43556,-1.43561 -2.77167,-1.99204 -4.44173,-1.99204 h -16.47192 c -2.92219,0 -5.6942,-1.22372 -7.94199,-3.35327 l -0.0469,-0.0449 -0.0449,-0.0469 c -2.12948,-2.24786 -3.35181,-5.01659 -3.35181,-7.93887 v -50.61736 c 0,-1.57818 -0.52875,-2.8993 -1.89076,-4.34148 l -0.0234,-0.0234 -0.0215,-0.0254 c -1.33851,-1.49605 -2.56424,-2.04478 -4.19953,-2.04478 z"
         transform="scale(0.9999263,1.0000737)" />
      <path
         id="text20"
         style="font-size:306.692px;font-family:'LoRes 9 Plus OT';-inkscape-font-specification:'LoRes 9 Plus OT';letter-spacing:-15px;fill:#4d4d4d;stroke-width:4.8"
         inkscape:label="R"
         d="m 502.52727,310.08847 c -1.90669,0 -3.31848,0.58704 -4.71324,1.97056 -1.32768,1.41597 -1.87123,2.77069 -1.87123,4.46452 v 186.89052 c 0,1.80405 0.55964,3.19142 1.8517,4.58169 1.37672,1.27956 2.80681,1.85338 4.73277,1.85338 h 50.31621 c 1.8293,0 3.14585,-0.54378 4.44369,-1.84166 l 0.0234,-0.0254 0.0254,-0.0234 c 1.37003,-1.29396 1.9435,-2.62472 1.9435,-4.54459 v -50.31465 c 0,-3.05974 1.21878,-5.90911 3.42603,-8.00722 2.15451,-2.14253 4.89668,-3.37866 7.80722,-3.37866 h 16.62232 c 2.83832,0 5.50677,1.27018 7.55524,3.42553 2.15927,2.17089 3.38111,4.97523 3.38111,7.96035 v 16.17068 c 0,1.79604 0.57248,3.17351 1.99234,4.59341 1.41986,1.4199 2.7981,1.994 4.59408,1.994 h 16.47192 c 2.98322,0 5.78345,1.21983 7.95371,3.3767 2.1911,2.08182 3.42994,4.87223 3.42994,7.85684 v 16.32302 c 0,1.81794 0.55953,3.21387 1.87319,4.61489 1.3037,1.2923 2.57039,1.82018 4.26203,1.82018 h 50.61506 c 1.57813,0 2.89804,-0.52842 4.34016,-1.89048 1.50752,-1.42951 2.09391,-2.78329 2.09391,-4.54459 v -16.32302 c 0,-1.79602 -0.55639,-3.08411 -1.94351,-4.3942 l -0.0488,-0.0469 -0.0469,-0.0508 c -1.31003,-1.38715 -2.59888,-1.94322 -4.39485,-1.94322 H 672.9402 c -2.96259,0 -5.75207,-1.13815 -7.93613,-3.20093 l -0.0488,-0.0469 -0.0488,-0.0488 c -2.07798,-2.20027 -3.19946,-5.04938 -3.19946,-8.08925 v -50.3166 c 0,-2.95157 1.14922,-5.71431 3.23071,-7.80802 2.09787,-2.20606 4.94383,-3.42748 8.00254,-3.42748 h 16.32347 c 1.54177,0 2.84005,-0.54071 4.29133,-1.99204 l 0.0234,-0.0234 0.0234,-0.0215 c 1.52631,-1.44601 2.09586,-2.76278 2.09586,-4.39811 v -50.61541 c 0,-1.67012 -0.55677,-3.00742 -1.99234,-4.44304 l -0.0234,-0.0215 -0.0215,-0.0234 c -1.44598,-1.52636 -2.76153,-2.09554 -4.39681,-2.09554 H 672.9402 c -2.96259,0 -5.75207,-1.14011 -7.93613,-3.20289 l -0.0254,-0.0234 -0.0234,-0.0254 c -2.07978,-2.07985 -3.24829,-4.79943 -3.24829,-7.68693 v -16.62182 c 0,-1.54182 -0.54301,-2.84133 -1.99429,-4.29266 l -0.0215,-0.0234 -0.0234,-0.0234 c -1.44598,-1.52635 -2.76152,-2.09555 -4.39681,-2.09555 z m 67.98548,29.19317 h 50.61701 c 2.93541,0 5.68537,1.31919 7.82675,3.55637 2.23713,2.14145 3.5569,4.89399 3.5569,7.82951 v 50.61541 c 0,2.88727 -1.32479,5.61491 -3.54909,7.83926 -2.15836,2.15844 -4.91237,3.39819 -7.83456,3.39819 h -50.61701 c -2.85082,0 -5.5571,-1.23818 -7.78964,-3.35327 l -0.0234,-0.0234 -0.0234,-0.0215 c -2.15836,-2.15843 -3.39673,-4.91697 -3.39673,-7.83926 v -50.61541 c 0,-2.91207 1.23475,-5.65493 3.37916,-7.80998 2.14459,-2.25188 4.90817,-3.5759 7.85409,-3.5759 z"
         transform="scale(0.9999263,1.0000737)" />
      <path
         id="text21"
         style="font-size:306.692px;font-family:'LoRes 9 Plus OT';-inkscape-font-specification:'LoRes 9 Plus OT';letter-spacing:-15px;fill:#4d4d4d;stroke-width:4.8"
         inkscape:label="T"
         d="m 278.82914,310.08847 c -1.78455,0 -3.15253,0.57235 -4.56283,1.97252 -1.32676,1.41547 -1.87123,2.76927 -1.87123,4.46256 v 16.62182 c 0,1.55492 0.53,2.86345 1.84779,4.28093 1.39257,1.29681 2.77926,1.85534 4.58627,1.85534 h 50.31621 c 2.99595,0 5.81284,1.226 7.98692,3.40014 2.17408,2.17414 3.39869,4.9897 3.39869,7.98574 v 152.74655 c 0,1.78316 0.57126,3.15304 1.96889,4.56216 1.41624,1.32834 2.77105,1.87291 4.46517,1.87291 h 50.61506 c 1.57814,0 2.81176,-0.5105 4.14289,-1.84166 1.41985,-1.4199 1.99233,-2.79737 1.99233,-4.59341 V 350.66752 c 0,-2.92229 1.24032,-5.67694 3.39869,-7.83536 2.23918,-2.23925 5.02994,-3.55052 7.98692,-3.55052 h 50.61505 c 1.57814,0 2.9,-0.52844 4.34212,-1.89049 l 0.0234,-0.0215 0.0234,-0.0215 c 1.49599,-1.33856 2.04703,-2.56747 2.04703,-4.20281 v -16.62182 c 0,-1.54182 -0.54301,-2.84133 -1.99429,-4.29266 l -0.0215,-0.0234 -0.0234,-0.0234 c -1.44597,-1.52635 -2.76153,-2.09555 -4.39681,-2.09555 z"
         transform="scale(0.9999263,1.0000737)" />
      <path
         id="text22"
         style="font-size:306.692px;font-family:'LoRes 9 Plus OT';-inkscape-font-specification:'LoRes 9 Plus OT';letter-spacing:-15px;fill:#4d4d4d;stroke-width:4.8"
         inkscape:label="E"
         d="m 89.424559,310.08847 c -1.908655,0 -3.320979,0.58786 -4.717144,1.97447 -1.325222,1.41466 -1.869279,2.76822 -1.869279,4.46061 v 186.89052 c 0,1.80405 0.559635,3.19142 1.851699,4.58169 1.376728,1.27956 2.80876,1.85338 4.734724,1.85338 H 242.16629 c 1.57813,0 2.89998,-0.52842 4.34211,-1.89048 1.50752,-1.4295 2.09391,-2.78329 2.09391,-4.54459 v -16.32302 c 0,-1.79602 -0.55641,-3.08411 -1.94351,-4.3942 l -0.0508,-0.0469 -0.0469,-0.0508 c -1.31004,-1.38715 -2.59887,-1.94322 -4.39485,-1.94322 H 157.41 c -2.85083,0 -5.55905,-1.23621 -7.79159,-3.35131 l -0.0234,-0.0234 -0.0234,-0.0234 c -2.17409,-2.17414 -3.39869,-4.99165 -3.39869,-7.98769 v -50.3166 c 0,-2.98647 1.24021,-5.77657 3.43385,-7.8588 2.15373,-2.13935 4.8951,-3.3767 7.80331,-3.3767 h 50.61506 c 1.67006,0 3.00617,-0.55642 4.44173,-1.99204 l 0.0215,-0.0234 0.0234,-0.0215 c 1.52631,-1.44601 2.09585,-2.76278 2.09585,-4.39811 V 384.6611 c 0,-1.50545 -0.53165,-2.69828 -2.04507,-4.05243 l -0.0488,-0.0449 -0.0469,-0.0469 c -1.43556,-1.43561 -2.77167,-1.99204 -4.44173,-1.99204 h -50.61506 c -2.85083,0 -5.55905,-1.23818 -7.79159,-3.35327 l -0.0469,-0.0449 -0.0449,-0.0469 c -2.12949,-2.24786 -3.35377,-5.01659 -3.35377,-7.93887 V 350.6675 c 0,-2.91207 1.2367,-5.65493 3.38111,-7.80998 2.14462,-2.25189 4.91011,-3.5759 7.85605,-3.5759 h 84.75625 c 1.57813,0 2.89998,-0.52844 4.34211,-1.89049 l 0.0234,-0.0215 0.0254,-0.0215 c 1.49598,-1.33856 2.04508,-2.56747 2.04508,-4.20281 V 316.5235 c 0,-1.54182 -0.54105,-2.84133 -1.99234,-4.29266 l -0.0234,-0.0234 -0.0215,-0.0234 c -1.44598,-1.52635 -2.76349,-2.09555 -4.39876,-2.09555 z"
         transform="scale(0.9999263,1.0000737)" />
    </g>
    <g
       inkscape:groupmode="layer"
       id="layer7"
       inkscape:label="BERT ">
      <path
         id="text15"
         style="font-size:306.691px;font-family:'LoRes 9 Plus OT';-inkscape-font-specification:'LoRes 9 Plus OT';letter-spacing:-15px;fill:#4d4d4d;stroke-width:4.8;stroke-linecap:square"
         inkscape:label="T"
         d="m 786.91558,18.943865 c -1.78453,0 -3.15451,0.572341 -4.5648,1.972506 -1.32675,1.415457 -1.87124,2.769282 -1.87124,4.462549 v 16.621777 c 0,1.556212 0.52951,2.864006 1.84975,4.282876 1.39184,1.295295 2.78025,1.853374 4.58629,1.853374 h 50.31439 c 2.99593,0 5.81286,1.224045 7.98694,3.398178 2.17407,2.174133 3.3987,4.991659 3.3987,7.987671 V 212.26894 c 0,1.78312 0.57326,3.1511 1.97085,4.5602 1.41624,1.32833 2.77107,1.8729 4.46519,1.8729 h 50.61324 c 1.57812,0 2.81179,-0.51051 4.14289,-1.84166 1.41986,-1.41989 1.99234,-2.79543 1.99234,-4.59144 V 59.522796 c 0,-2.922266 1.24033,-5.680827 3.3987,-7.839245 2.23917,-2.239231 5.02801,-3.546604 7.98498,-3.546604 h 50.6152 c 1.57812,0 2.9,-0.528437 4.34213,-1.89048 l 0.0234,-0.02344 0.0254,-0.02148 c 1.49597,-1.338542 2.04508,-2.565538 2.04508,-4.200851 V 25.37892 c 0,-1.541801 -0.54107,-2.841327 -1.99234,-4.29264 l -0.0234,-0.02344 -0.0215,-0.02344 c -1.44598,-1.526346 -2.76352,-2.095543 -4.39877,-2.095543 z"
         transform="scale(0.99992361,1.0000764)" />
      <path
         id="text16"
         style="font-size:306.691px;font-family:'LoRes 9 Plus OT';-inkscape-font-specification:'LoRes 9 Plus OT';letter-spacing:-15px;fill:#4d4d4d;stroke-width:4.8;stroke-linecap:square"
         inkscape:label="R"
         d="m 563.51766,18.943865 c -1.90864,0 -3.321,0.587859 -4.71716,1.974459 -1.32521,1.414646 -1.86928,2.768227 -1.86928,4.460596 v 186.89002 c 0,1.80306 0.55918,3.18825 1.84975,4.57777 1.37777,1.28181 2.80914,1.85533 4.73669,1.85533 H 613.834 c 1.82928,0 3.14194,-0.54378 4.43979,-1.84166 l 0.0254,-0.0234 0.0234,-0.0254 c 1.37003,-1.29394 1.94351,-2.62278 1.94351,-4.54262 v -50.31842 c 0,-3.06028 1.22194,-5.90901 3.42995,-8.0072 2.15418,-2.1413 4.89761,-3.3767 7.80724,-3.3767 h 16.62041 c 2.8383,0 5.50681,1.2702 7.55526,3.42552 2.15927,2.17088 3.38112,4.97328 3.38112,7.95838 v 16.17454 c 0,1.796 0.57249,3.17156 1.99234,4.59145 1.41985,1.41989 2.79618,1.99399 4.59215,1.99399 h 16.47196 c 2.98373,0 5.78723,1.21911 7.95764,3.37669 2.19183,2.08192 3.428,4.87168 3.428,7.85682 v 16.32493 c 0,1.81792 0.55954,3.21191 1.87319,4.61293 1.30369,1.29227 2.57041,1.82017 4.26204,1.82017 h 50.61324 c 1.57812,0 2.9,-0.52843 4.34213,-1.89048 1.50751,-1.42948 2.09391,-2.78135 2.09391,-4.54262 v -16.32493 c 0,-1.79602 -0.55642,-3.08412 -1.94351,-4.39419 l -0.0488,-0.0469 -0.0469,-0.0488 c -1.31003,-1.38713 -2.60085,-1.94321 -4.39682,-1.94321 h -16.32156 c -2.96259,0 -5.75405,-1.13814 -7.9381,-3.20093 l -0.0488,-0.0469 -0.0469,-0.0508 c -2.07795,-2.20025 -3.19946,-5.04744 -3.19946,-8.08728 v -50.31647 c 0,-2.94877 1.14515,-5.71109 3.2229,-7.80409 2.09843,-2.21011 4.94871,-3.43137 8.01038,-3.43137 h 16.32156 c 1.54176,0 2.84202,-0.54268 4.2933,-1.99399 l 0.0234,-0.0215 0.0234,-0.0234 c 1.52629,-1.44601 2.09586,-2.76084 2.09586,-4.39615 V 59.522796 c 0,-1.670095 -0.55678,-3.00742 -1.99234,-4.44302 l -0.0234,-0.02343 -0.0215,-0.02344 c -1.44596,-1.526344 -2.7635,-2.097496 -4.39877,-2.097496 h -16.32156 c -2.96259,0 -5.75405,-1.138151 -7.9381,-3.200927 l -0.0254,-0.02344 -0.0234,-0.02344 c -2.07979,-2.079844 -3.24634,-4.799429 -3.24634,-7.686913 V 25.37892 c 0,-1.541801 -0.54107,-2.841327 -1.99234,-4.29264 l -0.0234,-0.02344 -0.0234,-0.02344 c -1.44597,-1.526343 -2.76155,-2.095543 -4.39682,-2.095543 z m 67.98566,29.193082 h 50.61324 c 2.93539,0 5.68736,1.317248 7.82872,3.554416 2.23712,2.141431 3.55692,4.895946 3.55692,7.831433 v 50.615274 c 0,2.88725 -1.32482,5.61099 -3.5491,7.83534 -2.15836,2.15842 -4.91435,3.40013 -7.83654,3.40013 h -50.61324 c -2.85081,0 -5.55908,-1.24014 -7.79161,-3.35521 l -0.0234,-0.0215 -0.0234,-0.0234 c -2.15835,-2.15841 -3.3987,-4.91307 -3.3987,-7.83534 V 59.522796 c 0,-2.910611 1.23671,-5.655398 3.37917,-7.80995 2.14487,-2.253134 4.9112,-3.575899 7.85802,-3.575899 z"
         transform="scale(0.99992361,1.0000764)" />
      <path
         id="text17"
         style="font-size:306.691px;font-family:'LoRes 9 Plus OT';-inkscape-font-specification:'LoRes 9 Plus OT';letter-spacing:-15px;fill:#4d4d4d;stroke-width:4.8;stroke-linecap:square"
         inkscape:label="E"
         d="m 339.96933,18.943865 c -1.90668,0 -3.31654,0.587039 -4.7113,1.970553 -1.32767,1.415948 -1.87123,2.770698 -1.87123,4.464502 v 186.89002 c 0,1.80459 0.55876,3.19097 1.8517,4.58168 1.37644,1.27896 2.80528,1.85142 4.73083,1.85142 h 152.74214 c 1.57812,0 2.9,-0.52843 4.34212,-1.89048 1.50751,-1.42948 2.09391,-2.78135 2.09391,-4.54262 v -16.32493 c 0,-1.79602 -0.55642,-3.08412 -1.9435,-4.39419 l -0.0508,-0.0469 -0.0469,-0.0488 c -1.31004,-1.38713 -2.5989,-1.94321 -4.39486,-1.94321 h -84.75648 c -2.85081,0 -5.55714,-1.23818 -7.78966,-3.35326 l -0.0234,-0.0234 -0.0215,-0.0215 c -2.17407,-2.17413 -3.3987,-4.99166 -3.3987,-7.98767 v -50.31647 c 0,-2.98552 1.23759,-5.77676 3.42995,-7.85877 2.15419,-2.14128 4.8937,-3.37669 7.80333,-3.37669 h 50.6152 c 1.67004,0 3.00813,-0.55839 4.4437,-1.99399 l 0.0215,-0.0215 0.0234,-0.0234 c 1.52631,-1.44601 2.09586,-2.76084 2.09586,-4.39615 V 93.51434 c 0,-1.505439 -0.53166,-2.696337 -2.04507,-4.050472 l -0.0488,-0.04492 -0.0469,-0.04687 c -1.43557,-1.435603 -2.77366,-1.992035 -4.4437,-1.992035 h -50.6152 c -2.85082,0 -5.55714,-1.238181 -7.78966,-3.35326 l -0.0469,-0.04492 -0.0449,-0.04687 c -2.12948,-2.247843 -3.35182,-5.016582 -3.35182,-7.938847 v -16.47335 c 0,-2.912046 1.23672,-5.658825 3.38112,-7.813856 2.14433,-2.250624 4.90713,-3.571993 7.85216,-3.571993 h 84.75648 c 1.57813,0 2.9,-0.528438 4.34212,-1.89048 l 0.0234,-0.02344 0.0254,-0.02148 c 1.49597,-1.338542 2.04507,-2.565538 2.04507,-4.200851 V 25.37892 c 0,-1.541799 -0.54106,-2.841326 -1.99233,-4.29264 l -0.0234,-0.02344 -0.0215,-0.02344 c -1.44597,-1.526343 -2.76351,-2.095543 -4.39877,-2.095543 z"
         transform="scale(0.99992361,1.0000764)" />
      <path
         id="text18"
         style="font-size:306.691px;font-family:'LoRes 9 Plus OT';-inkscape-font-specification:'LoRes 9 Plus OT';letter-spacing:-15px;display:inline;fill:#4d4d4d;stroke-width:4.8;stroke-linecap:square"
         inkscape:label="B"
         d="m 82.430125,18.943865 c -1.908641,0 -3.321002,0.587859 -4.717157,1.974459 -1.325214,1.414645 -1.869284,2.768225 -1.869284,4.460596 v 186.89002 c 0,1.80306 0.559185,3.18825 1.849751,4.57777 1.377769,1.28181 2.80914,1.85533 4.73669,1.85533 H 235.17226 c 1.57813,0 2.90001,-0.52843 4.34213,-1.89048 1.50751,-1.42948 2.09391,-2.78135 2.09391,-4.54262 v -16.32493 c 0,-3.03984 1.13525,-5.8726 3.2483,-7.98571 2.11306,-2.11312 4.94522,-3.24976 7.98498,-3.24976 h 16.32351 c 1.54176,0 2.84007,-0.54071 4.29135,-1.99203 l 0.0234,-0.0234 0.0234,-0.0215 c 1.51021,-1.43075 2.09587,-2.78385 2.09587,-4.54653 v -50.31647 c 0,-1.79601 -0.55643,-3.08411 -1.94351,-4.39419 l -0.0254,-0.0234 -0.0234,-0.0254 c -1.43556,-1.43559 -2.7717,-1.99203 -4.44175,-1.99203 h -16.32351 c -2.99593,0 -5.81091,-1.226 -7.98498,-3.40013 l -0.0234,-0.0234 -0.0234,-0.0254 c -2.04749,-2.16799 -3.20142,-4.89903 -3.20142,-7.78651 V 93.51434 c 0,-2.814525 1.18515,-5.473326 3.2483,-7.536534 2.17407,-2.174132 4.98905,-3.398178 7.98498,-3.398178 h 16.32351 c 1.54176,0 2.84007,-0.540721 4.29135,-1.992035 1.5544,-1.554456 2.14274,-2.956136 2.14274,-4.591446 V 59.522796 c 0,-1.670095 -0.55678,-3.00742 -1.99234,-4.44302 l -0.0234,-0.02343 -0.0215,-0.02344 c -1.44597,-1.526344 -2.76154,-2.097496 -4.39682,-2.097496 h -16.32351 c -2.9626,0 -5.7521,-1.13815 -7.93615,-3.200927 l -0.0254,-0.02344 -0.0234,-0.02344 c -2.07979,-2.079845 -3.2483,-4.799431 -3.2483,-7.686913 V 25.37892 c 0,-1.541799 -0.54106,-2.841326 -1.99234,-4.29264 l -0.0234,-0.02344 -0.0234,-0.02344 c -1.44597,-1.526343 -2.76156,-2.095543 -4.39682,-2.095543 z m 67.985665,29.193082 h 50.61519 c 2.93539,0 5.68541,1.317251 7.82677,3.554416 2.23712,2.141431 3.55691,4.895946 3.55691,7.831433 v 16.473351 c 0,2.957045 -1.30993,5.746486 -3.5491,7.985718 -2.15835,2.158416 -4.91239,3.398178 -7.83458,3.398178 h -50.61519 c -2.85081,0 -5.55909,-1.238183 -7.79161,-3.35326 l -0.0469,-0.04492 -0.0449,-0.04687 c -2.12947,-2.247844 -3.35182,-5.016585 -3.35182,-7.938847 v -16.47335 c 0,-2.910611 1.23476,-5.655398 3.37721,-7.80995 2.14489,-2.253132 4.9112,-3.575899 7.85803,-3.575899 z m 0,68.436183 h 50.61519 c 2.98374,0 5.78527,1.2191 7.95569,3.37669 2.19183,2.08192 3.42799,4.87364 3.42799,7.85877 v 50.31647 c 0,2.99601 -1.22462,5.81354 -3.39869,7.98767 -2.17408,2.17414 -4.98906,3.39818 -7.98499,3.39818 h -50.61519 c -2.85081,0 -5.55909,-1.23819 -7.79161,-3.35326 l -0.0234,-0.0234 -0.0234,-0.0215 c -2.17407,-2.17413 -3.39675,-4.99166 -3.39675,-7.98767 v -50.31647 c 0,-2.98644 1.23828,-5.7785 3.43191,-7.86072 2.15372,-2.13933 4.89513,-3.37474 7.80333,-3.37474 z"
         transform="scale(0.99992361,1.0000764)"
         inkscape:export-filename="Letters\BFill.svg"
         inkscape:export-xdpi="96"
         inkscape:export-ydpi="96" />
    </g>
  </g>
  <g
     inkscape:label="Letters_stroke"
     inkscape:groupmode="layer"
     id="layer1"
     style="display:inline;opacity:0.75">
    <g
       inkscape:groupmode="layer"
       id="layer6"
       inkscape:label="MT">
      <path
         id="text13"
         style="color:#000000;-inkscape-font-specification:'LoRes 9 Plus OT';fill:#000000;-inkscape-stroke:none"
         inkscape:label="T"
         d="m 563.38817,572.39523 v 24.00052 c -2.99589,0 -5.81211,1.22448 -7.98616,3.39852 l -0.0234,0.0254 -0.0234,0.0254 c -2.04745,2.1679 -3.20111,4.89992 -3.20111,7.78728 v 16.62145 c 0,2.81441 1.16889,5.48513 3.20111,7.63689 l 0.0469,0.0508 0.0508,0.0469 c 2.18403,2.0627 4.97282,3.20124 7.93538,3.20124 h 50.31531 c 1.79587,0 3.17192,0.57246 4.5917,1.99224 1.41978,1.41976 1.99214,2.79601 1.99214,4.59189 v 152.73769 c 0,2.99589 1.22433,5.81246 3.39836,7.9865 l 0.0254,0.0234 0.0234,0.0234 c 2.1679,2.04746 4.89959,3.20124 7.78694,3.20124 h 50.61414 c 2.81442,0 5.47384,-1.185 7.53694,-3.24812 2.17405,-2.17404 3.39837,-4.99061 3.39837,-7.9865 h 23.99948 V 770.51086 H 693.0709 V 641.77369 c 0,-1.66995 0.55665,-3.006 1.99214,-4.4415 1.55434,-1.55434 2.95848,-2.14263 4.59365,-2.14263 h 50.61023 c 2.80285,0 5.46205,-1.16491 7.60921,-3.1817 2.28378,-2.0536 3.62883,-4.80688 3.62883,-7.75408 v -16.62145 c 0,-2.83929 -1.25394,-5.51999 -3.38079,-7.65837 -2.14484,-2.25304 -4.91046,-3.57821 -7.85725,-3.57821 H 587.38764 v -24.00052 z m 11.99973,7.19938 a 4.799896,4.8001044 0 0 1 4.79873,4.80088 4.799896,4.8001044 0 0 1 -4.79873,4.79894 4.799896,4.8001044 0 0 1 -4.80067,-4.79894 4.799896,4.8001044 0 0 1 4.80067,-4.80088 z m -11.99973,21.60203 h 186.87875 c 1.63517,0 2.95244,0.56952 4.39834,2.09575 l 0.0215,0.0234 0.0234,0.0234 c 1.4512,1.45121 1.99214,2.75141 1.99214,4.29307 v 16.62145 c 10e-6,1.63516 -0.54897,2.86283 -2.04488,4.20126 l -0.0254,0.0215 -0.0234,0.0215 c -1.44203,1.36194 -2.76367,1.89067 -4.3417,1.89067 h -50.61023 c -2.95692,0 -5.74701,1.30978 -7.98615,3.5489 -2.15833,2.15833 -3.39837,4.91397 -3.39837,7.83611 v 152.73769 c 0,1.79586 -0.57431,3.17211 -1.99409,4.5919 -1.33104,1.33104 -2.56446,1.84183 -4.14249,1.84183 h -50.61414 c -1.69402,0 -3.04662,-0.54485 -4.46279,-1.87308 -1.39753,-1.409 -1.97066,-2.77767 -1.97066,-4.56065 V 641.77369 c 0,-2.99589 -1.22432,-5.81246 -3.39837,-7.9865 -2.17403,-2.17404 -4.99025,-3.39851 -7.98615,-3.39851 h -50.31531 c -1.80541,0 -3.19256,-0.55921 -4.58389,-1.85356 -1.31927,-1.41825 -1.84957,-2.72576 -1.84957,-4.28134 v -16.62145 c 0,-1.69366 0.54346,-3.04911 1.87105,-4.46494 1.40945,-1.39847 2.77888,-1.97075 4.56241,-1.97075 z m 141.68247,176.5136 a 4.799896,4.8001044 0 0 1 4.79872,4.80088 4.799896,4.8001044 0 0 1 -4.79872,4.79893 4.799896,4.8001044 0 0 1 -4.80068,-4.79893 4.799896,4.8001044 0 0 1 4.80068,-4.80088 z"
         transform="scale(1.0000217,0.9999783)" />
      <path
         id="text14"
         style="color:#000000;-inkscape-font-specification:'LoRes 9 Plus OT';fill:#000000;-inkscape-stroke:none"
         inkscape:label="M"
         d="m 305.85664,572.39523 v 24.00052 c -3.07171,0 -5.94484,1.20877 -8.13458,3.39852 l -0.0254,0.0254 -0.0234,0.0254 c -2.04745,2.1679 -3.2011,4.89992 -3.2011,7.78728 V 794.5114 c 0,2.96255 1.13841,5.75365 3.2011,7.93767 l 0.0469,0.0488 0.0508,0.0469 c 2.20016,2.07793 5.04605,3.20124 8.08576,3.20124 h 16.17543 c 3.02598,0 5.84301,-1.13194 7.95296,-3.22663 2.20927,-2.0983 3.42961,-4.9469 3.42961,-8.00799 v -84.45496 c 0,-1.79585 0.5563,-3.08465 1.94332,-4.39462 l 0.0254,-0.0234 0.0254,-0.0254 c 1.43549,-1.43549 2.77136,-1.99223 4.44131,-1.99223 h 16.32191 c 1.8292,0 3.14354,0.54602 4.44131,1.84379 l 0.0254,0.0234 0.0254,0.0234 c 1.36994,1.29383 1.94136,2.62533 1.94136,4.54502 v 16.32262 c 0,2.85078 1.23847,5.55675 3.35345,7.78924 l 0.0234,0.0234 0.0215,0.0234 c 2.15831,2.15833 4.91557,3.39851 7.83772,3.39851 h 50.61413 c 2.9105,0 5.65202,-1.23655 7.80647,-3.37898 2.25303,-2.14483 3.57805,-4.90886 3.57805,-7.85564 v -50.61438 c 0,-1.57802 0.51072,-2.81163 1.84176,-4.14266 l 0.0234,-0.0254 0.0234,-0.0254 c 1.3261,-1.4041 2.57606,-1.94144 4.246,-1.94144 h 16.62074 c 1.57803,0 2.89964,0.52677 4.3417,1.88871 l 0.0234,0.0234 0.0234,0.0215 c 1.49591,1.33845 2.04683,2.56611 2.04683,4.20126 v 94.7462 h -23.99947 v 24.00052 h 23.99947 c 0,2.96255 1.13647,5.75365 3.19915,7.93767 l 0.0234,0.0234 0.0254,0.0254 c 2.11303,2.11303 4.94645,3.24812 7.98616,3.24812 h 50.31336 c 3.02748,0 5.84656,-1.1319 7.95686,-3.22859 2.20797,-2.09811 3.42766,-4.94588 3.42766,-8.00603 V 607.63233 c 0,-2.84018 -1.25273,-5.52161 -3.38079,-7.66033 -2.16001,-2.26701 -4.98623,-3.57625 -8.00373,-3.57625 h -50.31336 c -2.99589,0 -5.81212,1.22448 -7.98616,3.39852 l -0.0254,0.0254 -0.0234,0.0254 c -2.04744,2.1679 -3.19915,4.89992 -3.19915,7.78728 v 16.62145 c 0,1.53095 -0.54401,2.82471 -1.97261,4.26377 -1.41536,1.3267 -2.76965,1.87113 -4.46279,1.87113 h -16.62074 c -2.88714,0 -5.59959,1.34465 -7.73225,3.59578 h -0.002 v 0.002 c -2.04745,2.1679 -3.20111,4.89992 -3.20111,7.78728 v 16.47302 c 0,1.63517 -0.58818,3.03755 -2.14253,4.59189 -1.43549,1.43549 -2.77136,1.99223 -4.44131,1.99223 h -16.47425 c -1.64996,0 -3.05952,-0.57423 -4.58388,-2.00004 -1.42584,-1.52439 -1.99996,-2.93411 -1.99996,-4.58408 v -16.47302 c 0,-2.96255 -1.13842,-5.75365 -3.2011,-7.93767 -2.06807,-2.18972 -4.81206,-3.44734 -7.73421,-3.44734 H 373.8415 c -1.56777,0 -2.96796,-0.54393 -4.50967,-1.9141 -1.38575,-1.31741 -1.92574,-2.56067 -1.92574,-4.2208 V 607.6324 c 0,-2.82655 -1.24598,-5.49346 -3.3554,-7.62712 -2.0674,-2.28587 -4.87015,-3.60946 -7.87873,-3.60946 H 329.85612 V 572.3953 Z m 11.99974,7.19938 a 4.799896,4.8001044 0 0 1 4.79873,4.80088 4.799896,4.8001044 0 0 1 -4.79873,4.79894 4.799896,4.8001044 0 0 1 -4.80067,-4.79894 4.799896,4.8001044 0 0 1 4.80067,-4.80088 z m -11.99974,21.60203 h 50.31532 c 1.76254,0 3.02862,0.56649 4.35147,2.04497 l 0.043,0.0508 0.0469,0.0469 c 1.4512,1.45121 1.99214,2.7514 1.99214,4.29307 v 16.62145 c 0,2.92215 1.25943,5.66649 3.44915,7.73454 l 0.0234,0.0215 0.0234,0.0215 c 2.23979,2.00402 4.92565,3.15827 7.74007,3.15827 h 16.62073 c 1.66995,0 2.91795,0.53931 4.24405,1.94341 1.33147,1.40979 1.89058,2.81151 1.89058,4.64072 v 16.47302 c 0,2.92215 1.22401,5.69187 3.35345,7.93962 l 0.0449,0.0469 0.0469,0.0449 c 2.24774,2.12944 5.01909,3.35359 7.94123,3.35359 h 16.4723 c 2.92215,0 5.67744,-1.24019 7.83577,-3.39851 2.23913,-2.23913 3.54875,-5.02957 3.54875,-7.9865 v -16.47302 c 0,-1.70331 0.54245,-3.06376 1.88668,-4.48838 1.46117,-1.54233 2.74266,-2.09575 4.24795,-2.09575 h 16.62074 c 2.88736,0 5.61905,-1.15378 7.78694,-3.20124 l 0.0254,-0.0234 0.0234,-0.0234 c 2.14261,-2.14262 3.39837,-4.8369 3.39837,-7.68767 v -16.62145 c 0,-1.69312 0.54437,-3.04763 1.87105,-4.46299 1.41022,-1.40005 2.77993,-1.9727 4.56436,-1.9727 h 50.31336 c 1.76254,0 3.11613,0.58563 4.54677,2.09575 l 0.0234,0.0234 0.0234,0.0234 c 1.45121,1.45121 1.99214,2.7514 1.99214,4.29307 v 186.87905 c 0,1.9197 -0.57338,3.24924 -1.94332,4.54307 l -0.0254,0.0234 -0.0234,0.0254 c -1.28113,1.28113 -2.64195,1.84183 -4.59365,1.84183 h -50.31336 c -1.9389,0 -3.29058,-0.56087 -4.56436,-1.82425 -1.31119,-1.39973 -1.87105,-2.79323 -1.87105,-4.60948 V 675.76662 c 0,-2.94538 -1.34177,-5.69892 -3.62297,-7.75212 -2.14774,-2.01869 -4.80689,-3.18367 -7.61116,-3.18367 H 441.9747 c -2.91143,0 -5.64339,1.25294 -7.70881,3.42781 -2.04675,2.05936 -3.2265,4.70564 -3.2265,7.50798 v 50.61242 c 0,1.63516 -0.56942,2.95068 -2.09565,4.39658 l -0.0234,0.0215 -0.0234,0.0234 c -1.43549,1.43549 -2.77136,1.99223 -4.44131,1.99223 H 373.8415 c -1.66014,0 -2.99196,-0.55785 -4.41788,-1.97466 -1.45765,-1.54876 -2.01753,-2.9273 -2.01753,-4.45908 v -16.32262 c 0,-3.05865 -1.21976,-5.90624 -3.42571,-8.00408 -2.09362,-2.08144 -4.85698,-3.23053 -7.80842,-3.23053 h -16.32191 c -2.91103,0 -5.6538,1.23583 -7.80843,3.37897 -2.18978,2.08152 -3.4257,4.87209 -3.4257,7.85564 v 84.45496 c 0,1.9197 -0.57337,3.24924 -1.94332,4.54307 l -0.0254,0.0234 -0.0234,0.0254 c -1.28114,1.28113 -2.64001,1.84183 -4.5917,1.84183 h -16.17543 c -1.92585,0 -3.35567,-0.5741 -4.73232,-1.85355 -1.29198,-1.39016 -1.85152,-2.7763 -1.85152,-4.58018 V 607.63233 c 0,-1.69223 0.54394,-3.04649 1.8691,-4.46104 1.39608,-1.38647 2.80622,-1.97465 4.71474,-1.97465 z m 147.17454,176.5136 a 4.799896,4.8001044 0 0 1 4.79873,4.80088 4.799896,4.8001044 0 0 1 -4.79873,4.79893 4.799896,4.8001044 0 0 1 -4.80067,-4.79893 4.799896,4.8001044 0 0 1 4.80067,-4.80088 z"
         transform="scale(1.0000217,0.9999783)"
         inkscape:export-filename="Letters\M.svg"
         inkscape:export-xdpi="96"
         inkscape:export-ydpi="96" />
    </g>
    <g
       inkscape:groupmode="layer"
       id="layer5"
       inkscape:label="ETRN">
      <path
         id="text9"
         style="color:#000000;-inkscape-font-specification:'LoRes 9 Plus OT';fill:#000000;-inkscape-stroke:none"
         inkscape:label="N"
         d="m 760.07921,281.28557 v 23.99787 c -3.07181,0 -5.9437,1.20831 -8.13353,3.39813 l -0.0254,0.0254 -0.0234,0.0254 c -2.04752,2.16797 -3.20146,4.89896 -3.20146,7.78642 v 186.8877 c 0,2.96266 1.1387,5.7527 3.20146,7.93679 l 0.0469,0.0508 0.0508,0.0469 c 2.20023,2.07799 5.04489,3.20089 8.0847,3.20089 h 16.17527 c 3.02758,0 5.84541,-1.13147 7.95578,-3.22823 2.20806,-2.09819 3.42804,-4.94685 3.42804,-8.0071 V 384.65725 c 0,-1.5418 0.52226,-2.75498 1.94353,-4.09729 l 0.0254,-0.0234 0.0234,-0.0254 c 1.43558,-1.43559 2.77366,-1.99201 4.44375,-1.99201 h 16.32176 c 1.82934,0 3.1459,0.54573 4.44376,1.84359 l 0.0234,0.0234 0.0254,0.0234 c 1.40421,1.32619 1.94353,2.57563 1.94353,4.24572 v 50.61659 c 0,2.85087 1.23875,5.55581 3.35381,7.78838 l 0.0215,0.0234 0.0234,0.0234 c 2.1584,2.15839 4.9144,3.39813 7.83663,3.39813 h 16.62257 c 1.5418,0 2.75179,0.52191 4.09412,1.94319 l 0.0234,0.0254 0.0234,0.0234 c 1.41987,1.41988 1.99431,2.79929 1.99431,4.5953 v 50.31389 c 0,2.99599 1.22462,5.81346 3.39874,7.98757 l 0.0234,0.0234 0.0254,0.0234 c 2.18409,2.06276 4.97554,3.20089 7.9382,3.20089 h 84.60712 c 2.8145,0 5.48751,-1.1686 7.63935,-3.20089 l 0.002,-0.002 c 2.28343,-2.16325 3.59407,-5.00317 3.59407,-8.03249 h 24.00213 V 479.4086 H 958.05383 V 316.51877 c 0,-2.83937 -1.25034,-5.51906 -3.37726,-7.65753 -2.14492,-2.25311 -4.91124,-3.5778 -7.85812,-3.5778 h -16.32176 c -2.99598,0 -5.81293,1.22402 -7.98704,3.39813 l -0.0234,0.0254 -0.0234,0.0254 c -2.04752,2.16797 -3.20145,4.89896 -3.20145,7.78642 v 118.75312 c 0,1.53269 -0.56227,2.91073 -2.02167,4.46055 -1.42468,1.41431 -2.75359,1.97443 -4.4125,1.97443 h -16.62452 c -1.53108,0 -2.82489,-0.54378 -4.26405,-1.97248 -1.3268,-1.41546 -1.86931,-2.76922 -1.86931,-4.4625 V 384.6553 c 0,-2.86622 -1.35541,-5.54257 -3.60579,-7.57746 -2.15079,-2.12733 -4.88053,-3.35907 -7.77998,-3.35907 h -16.47217 c -1.6501,0 -3.05991,-0.57392 -4.58439,-1.99983 -1.42593,-1.52448 -2.00213,-2.93347 -2.00213,-4.58357 v -50.6166 c 0,-2.80293 -1.16507,-5.46146 -3.18193,-7.6087 -2.05347,-2.28257 -4.80625,-3.62663 -7.75264,-3.62663 h -60.60889 v -23.99787 z m 12.00107,7.19858 a 4.8004265,4.799574 0 0 1 4.79925,4.80035 4.8004265,4.799574 0 0 1 -4.79925,4.79841 4.8004265,4.799574 0 0 1 -4.80121,-4.79841 4.8004265,4.799574 0 0 1 4.80121,-4.80035 z m -12.00107,21.59964 h 84.61103 c 1.63531,0 2.86107,0.54872 4.19959,2.04474 l 0.0215,0.0254 0.0234,0.0234 c 1.36203,1.44216 1.89079,2.76325 1.89079,4.34141 v 50.6166 c 0,2.92223 1.22235,5.69092 3.35186,7.93875 l 0.0449,0.0469 0.0469,0.0449 c 2.24783,2.12952 5.01987,3.35322 7.94211,3.35322 h 16.47217 c 1.67008,0 3.00621,0.55642 4.4418,1.99201 l 0.0469,0.0469 0.0508,0.0449 c 1.51344,1.35413 2.0451,2.54695 2.0451,4.05238 v 50.61659 c 0,2.88746 1.15393,5.61845 3.20146,7.78642 l 0.0234,0.0254 0.0254,0.0234 c 2.14269,2.14268 4.83342,3.39813 7.68428,3.39813 h 16.62257 c 2.92224,0 5.67824,-1.23974 7.83663,-3.39813 l 0.0234,-0.0234 0.0215,-0.0234 c 2.11506,-2.23257 3.35381,-4.93751 3.35381,-7.78838 V 316.51877 c 0,-1.69326 0.54448,-3.04705 1.87126,-4.4625 1.41032,-1.40014 2.78028,-1.97248 4.56486,-1.97248 h 16.32176 c 1.6353,0 2.95282,0.56918 4.39883,2.09552 l 0.0215,0.0234 0.0234,0.0234 c 1.45131,1.45131 1.99236,2.7508 1.99236,4.29259 v 186.8877 c 0,1.76267 -0.58566,3.11769 -2.09589,4.54842 -1.44038,1.35884 -2.76374,1.88655 -4.34023,1.88655 h -84.60712 c -1.81792,0 -3.21463,-0.55921 -4.61564,-1.87288 -1.39763,-1.40909 -1.97088,-2.77897 -1.97088,-4.56209 v -50.31389 c 0,-2.98508 -1.22186,-5.78937 -3.38116,-7.96023 -2.0485,-2.15532 -4.71505,-3.42548 -7.55341,-3.42548 h -16.62257 c -1.66028,0 -2.99039,-0.55948 -4.4164,-1.97639 -1.45776,-1.54889 -2.01776,-2.92667 -2.01776,-4.45859 V 384.6553 c 0,-2.90955 -1.25387,-5.6394 -3.42609,-7.7044 -2.09368,-2.08152 -4.85971,-3.23213 -7.81124,-3.23213 h -16.32176 c -2.91059,0 -5.65281,1.23612 -7.80733,3.3786 -2.1573,2.0489 -3.42804,4.71816 -3.42804,7.55793 v 118.75117 c 0,1.91984 -0.57349,3.25059 -1.94353,4.54452 l -0.0254,0.0234 -0.0254,0.0254 c -1.28122,1.28123 -2.63841,1.84163 -4.59025,1.84163 h -16.17527 c -1.92599,0 -3.35414,-0.57381 -4.73089,-1.85335 -1.29208,-1.39025 -1.85172,-2.7776 -1.85172,-4.58162 v -186.8877 c 0,-1.6938 0.54355,-3.04851 1.87126,-4.46445 1.39478,-1.38351 2.80464,-1.97053 4.71135,-1.97053 z m 209.97568,176.52339 a 4.8004265,4.799574 0 0 1 4.79926,4.80035 4.8004265,4.799574 0 0 1 -4.79926,4.79841 4.8004265,4.799574 0 0 1 -4.80121,-4.79841 4.8004265,4.799574 0 0 1 4.80121,-4.80035 z"
         transform="scale(0.9999112,1.0000888)"
         inkscape:export-filename="Letters\N.svg"
         inkscape:export-xdpi="96"
         inkscape:export-ydpi="96" />
      <path
         id="text10"
         style="color:#000000;-inkscape-font-specification:'LoRes 9 Plus OT';fill:#000000;-inkscape-stroke:none"
         inkscape:label="R"
         d="m 631.27871,281.28557 v 23.99787 H 502.53486 c -3.07183,0 -5.94371,1.20831 -8.13354,3.39813 l -0.0254,0.0254 -0.0234,0.0254 c -2.04753,2.16797 -3.20145,4.89896 -3.20145,7.78642 V 479.4086 H 467.1489 v 23.99787 h 24.00214 c 0,2.96266 1.13869,5.7527 3.20145,7.93679 l 0.0469,0.0508 0.0508,0.0469 c 2.20022,2.07799 5.04487,3.20089 8.0847,3.20089 h 50.31697 c 2.94874,0 5.7124,-1.14654 7.80538,-3.22432 2.2101,-2.09848 3.42999,-4.94927 3.42999,-8.01101 v -50.31389 c 0,-1.91984 0.57348,-3.25253 1.94353,-4.54647 l 0.0234,-0.0234 0.0254,-0.0254 c 1.43559,-1.4356 2.77173,-1.99201 4.44181,-1.99201 h 16.62257 c 1.54179,0 2.75374,0.52191 4.09606,1.94319 l 0.0234,0.0254 0.0234,0.0234 c 1.41988,1.41988 1.99432,2.79929 1.99432,4.5953 v 16.17044 c 0,2.99598 1.22462,5.81345 3.39874,7.98757 2.17411,2.17412 4.9891,3.39813 7.98508,3.39813 h 16.47412 c 1.79601,0 3.17233,0.57409 4.59221,1.99397 l 0.0234,0.0234 0.0254,0.0234 c 1.38712,1.31007 1.94158,2.59814 1.94158,4.39414 v 16.32277 c 0,2.96266 1.1387,5.7527 3.20145,7.93679 l 0.0234,0.0254 0.0234,0.0254 c 2.07983,2.07983 4.80073,3.24776 7.68819,3.24776 h 50.61582 c 2.8145,0 5.48556,-1.1686 7.6374,-3.20089 l 0.002,-0.002 c 2.28344,-2.16325 3.59602,-5.00317 3.59602,-8.03249 V 487.0837 c 0,-2.97078 -1.23243,-5.74483 -3.4046,-7.82352 -2.07946,-2.17671 -4.85668,-3.40986 -7.83077,-3.40986 h -16.32372 c -1.80456,0 -3.1898,-0.55848 -4.58048,-1.8514 -1.28038,-1.37713 -1.85368,-2.80931 -1.85368,-4.7359 v -50.31585 c 0,-1.82934 0.54605,-3.14315 1.84391,-4.44101 l 0.0234,-0.0254 0.0234,-0.0234 c 1.29393,-1.37005 2.62353,-1.94319 4.54337,-1.94319 h 16.32372 c 2.83937,0 5.51846,-1.25169 7.65693,-3.37861 2.25312,-2.14492 3.57844,-4.9118 3.57844,-7.85867 v -50.61465 c 0,-2.91202 -1.23672,-5.65483 -3.38116,-7.80985 -2.14465,-2.25186 -4.90823,-3.57586 -7.85421,-3.57586 h -16.32372 c -1.81695,0 -3.20951,-0.55875 -4.60978,-1.87092 -1.29478,-1.30495 -1.82438,-2.57207 -1.82438,-4.26525 v -16.62157 c 0,-2.83938 -1.25228,-5.51906 -3.37921,-7.65753 -2.14492,-2.25311 -4.90929,-3.5778 -7.85616,-3.5778 v -23.99787 z m 12.00107,7.19858 a 4.8004265,4.799574 0 0 1 4.79925,4.80035 4.8004265,4.799574 0 0 1 -4.79925,4.79841 4.8004265,4.799574 0 0 1 -4.80121,-4.79841 4.8004265,4.799574 0 0 1 4.80121,-4.80035 z m -140.74492,21.59964 h 152.74599 c 1.6353,0 2.95087,0.56918 4.39687,2.09552 l 0.0234,0.0234 0.0215,0.0234 c 1.45129,1.45131 1.99431,2.7508 1.99431,4.29259 v 16.62157 c 0,2.88746 1.16852,5.607 3.24834,7.68682 l 0.0234,0.0254 0.0254,0.0234 c 2.1841,2.06276 4.97361,3.20284 7.93625,3.20284 h 16.32372 c 1.6353,0 2.95087,0.56918 4.39687,2.09552 l 0.0215,0.0234 0.0234,0.0215 c 1.43559,1.43558 1.99236,2.77287 1.99236,4.44296 v 50.61465 c 0,1.6353 -0.56955,2.95205 -2.09589,4.39804 l -0.0234,0.0215 -0.0234,0.0234 c -1.4513,1.45131 -2.7496,1.99201 -4.29139,1.99201 h -16.32372 c -3.05875,0 -5.90476,1.22141 -8.00266,3.42743 -2.08153,2.09368 -3.23076,4.85638 -3.23076,7.8079 v 50.31585 c 0,3.03981 1.12151,5.88889 3.19951,8.08912 l 0.0488,0.0488 0.0488,0.0469 c 2.1841,2.06275 4.97361,3.20088 7.93625,3.20088 h 16.32372 c 1.796,0 3.08486,0.55606 4.39492,1.94319 l 0.0469,0.0508 0.0488,0.0469 c 1.38713,1.31007 1.94353,2.59814 1.94353,4.39414 v 16.32277 c 0,1.76127 -0.58638,3.11504 -2.09393,4.54452 -1.44215,1.36204 -2.76207,1.89045 -4.34023,1.89045 H 638.6582 c -1.69167,0 -2.95837,-0.52788 -4.2621,-1.82015 -1.31367,-1.401 -1.87322,-2.7969 -1.87322,-4.61482 V 487.0837 c 0,-2.98458 -1.23885,-5.77494 -3.42999,-7.85672 -2.17029,-2.15683 -4.97057,-3.37666 -7.95383,-3.37666 H 604.6669 c -1.79601,0 -3.17428,-0.57408 -4.59416,-1.99396 -1.41988,-1.41988 -1.99237,-2.79733 -1.99237,-4.59334 v -16.17044 c 0,-2.98508 -1.22186,-5.78937 -3.38116,-7.96023 -2.04849,-2.15532 -4.717,-3.42548 -7.55535,-3.42548 h -16.62257 c -2.91059,0 -5.6528,1.23611 -7.80734,3.37861 -2.20729,2.09807 -3.42608,4.9474 -3.42608,8.0071 v 50.31389 c 0,1.91984 -0.57349,3.25059 -1.94354,4.54452 l -0.0254,0.0234 -0.0234,0.0254 c -1.29786,1.29786 -2.61441,1.84163 -4.44375,1.84163 h -50.31697 c -1.926,0 -3.35609,-0.57381 -4.73284,-1.85335 -1.29208,-1.39025 -1.85173,-2.7776 -1.85173,-4.58162 v -186.8877 c 0,-1.6938 0.54355,-3.04851 1.87126,-4.46445 1.39478,-1.38351 2.80659,-1.97053 4.71331,-1.97053 z m 67.98651,29.19272 c -2.94597,0 -5.70958,1.32401 -7.85422,3.57586 -2.14444,2.15502 -3.3792,4.89783 -3.3792,7.80985 v 50.61465 c 0,2.92224 1.23837,5.68075 3.39678,7.83914 l 0.0234,0.0215 0.0234,0.0234 c 2.23257,2.11506 4.9389,3.35322 7.78976,3.35322 h 50.61777 c 2.92224,0 5.67628,-1.23973 7.83468,-3.39814 2.22433,-2.22431 3.54914,-4.95192 3.54914,-7.83914 V 350.6622 c 0,-2.93547 -1.31978,-5.68796 -3.55695,-7.82938 -2.14141,-2.23715 -4.89142,-3.55633 -7.82687,-3.55633 z m 0,4.80231 h 50.61777 c 1.63531,0 2.95087,0.56918 4.39688,2.09552 l 0.0449,0.0469 0.0469,0.0449 c 1.52634,1.44601 2.09394,2.76078 2.09394,4.39609 v 50.61465 c 0,1.50544 -0.57149,2.87363 -2.14082,4.44296 -1.4356,1.4356 -2.77171,1.99397 -4.4418,1.99397 h -50.61777 c -1.53191,0 -2.91051,-0.5616 -4.45938,-2.01936 -1.41691,-1.42602 -1.97479,-2.7573 -1.97479,-4.41757 v -50.61465 c 0,-1.67009 0.55677,-3.00738 1.99236,-4.44296 l 0.0215,-0.0215 0.0234,-0.0234 c 1.446,-1.52634 2.76158,-2.09552 4.39688,-2.09552 z m -91.3714,142.52836 a 4.8004265,4.799574 0 0 1 4.79925,4.80035 4.8004265,4.799574 0 0 1 -4.79925,4.79841 4.8004265,4.799574 0 0 1 -4.80121,-4.79841 4.8004265,4.799574 0 0 1 4.80121,-4.80035 z"
         transform="scale(0.9999112,1.0000888)"
         inkscape:export-filename="Letters\SpecialR.svg"
         inkscape:export-xdpi="96"
         inkscape:export-ydpi="96" />
      <path
         id="text11"
         style="color:#000000;-inkscape-font-specification:'LoRes 9 Plus OT';fill:#000000;-inkscape-stroke:none"
         inkscape:label="T"
         d="m 278.83335,305.28344 c -2.99597,0 -5.81097,1.22402 -7.98508,3.39813 l -0.0234,0.0254 -0.0234,0.0254 c -2.04753,2.16797 -3.20146,4.89896 -3.20146,7.78642 v 16.62157 c 0,2.81451 1.16917,5.48811 3.20146,7.63995 l 0.0469,0.0508 0.0488,0.0469 c 2.1841,2.06276 4.97361,3.2009 7.93625,3.20089 v 23.99787 h 24.00214 V 344.0789 h 26.31483 c 1.79601,0 3.17233,0.57213 4.59221,1.99201 1.41988,1.41988 1.99236,2.79538 1.99236,4.59139 v 152.74425 c 0,2.99599 1.22463,5.81346 3.39874,7.98757 l 0.0254,0.0234 0.0254,0.0234 c 2.16796,2.04752 4.89839,3.20089 7.78584,3.20089 h 50.61583 c 2.81449,0 5.47459,-1.18457 7.53778,-3.24776 2.1741,-2.17411 3.39678,-4.99158 3.39678,-7.98757 h 24.00213 V 479.4086 H 408.52065 V 350.66222 c 0,-1.67009 0.55678,-3.00738 1.99237,-4.44296 1.55444,-1.55445 2.95886,-2.14044 4.59415,-2.14044 H 465.723 c 2.80291,0 5.46086,-1.16645 7.60809,-3.18331 2.28385,-2.05367 3.62533,-4.80787 3.62533,-7.75517 v -16.62157 c 0,-2.83938 -1.25033,-5.51906 -3.37726,-7.65753 -2.1449,-2.25311 -4.9093,-3.5778 -7.85616,-3.5778 z m 0,4.80035 H 465.723 c 1.6353,0 2.95087,0.56918 4.39687,2.09552 l 0.0234,0.0234 0.0215,0.0234 c 1.45131,1.45131 1.99432,2.7508 1.99432,4.29259 v 16.62157 c 0,1.63531 -0.55105,2.86421 -2.04706,4.20275 l -0.0234,0.0215 -0.0234,0.0215 c -1.44215,1.36202 -2.76402,1.89045 -4.34218,1.89045 h -50.61583 c -2.95701,0 -5.74782,1.31126 -7.98703,3.55047 -2.1584,2.1584 -3.39874,4.913 -3.39874,7.83524 v 152.74425 c 0,1.79601 -0.57249,3.17346 -1.99237,4.59334 -1.33114,1.33114 -2.56478,1.84163 -4.14294,1.84163 h -50.61583 c -1.69414,0 -3.04897,-0.54456 -4.46524,-1.87288 -1.39764,-1.40909 -1.96892,-2.77896 -1.96892,-4.56209 V 350.66222 c 0,-2.99599 -1.22463,-5.8115 -3.39874,-7.98562 -2.17412,-2.17411 -4.99105,-3.40009 -7.98704,-3.40009 H 278.8334 c -1.80703,0 -3.19374,-0.55852 -4.58634,-1.8553 -1.3178,-1.41747 -1.84782,-2.72597 -1.84782,-4.28087 v -16.62157 c 0,-1.69326 0.54448,-3.04705 1.87126,-4.4625 1.41032,-1.40014 2.77833,-1.97248 4.5629,-1.97248 z m 12.00107,41.19361 a 4.8004265,4.799574 0 0 1 4.79925,4.80036 4.8004265,4.799574 0 0 1 -4.79925,4.7984 4.8004265,4.799574 0 0 1 -4.80121,-4.7984 4.8004265,4.799574 0 0 1 4.80121,-4.80036 z m 129.6873,135.32978 a 4.8004265,4.799574 0 0 1 4.79925,4.80035 4.8004265,4.799574 0 0 1 -4.79925,4.79841 4.8004265,4.799574 0 0 1 -4.80121,-4.79841 4.8004265,4.799574 0 0 1 4.80121,-4.80035 z"
         transform="scale(0.9999112,1.0000888)" />
      <path
         id="text12"
         style="color:#000000;-inkscape-font-specification:'LoRes 9 Plus OT';fill:#000000;-inkscape-stroke:none"
         inkscape:label="E"
         d="m 89.42591,305.28344 c -3.071819,0 -5.947614,1.20831 -8.137442,3.39813 l -0.02539,0.0254 -0.02344,0.0254 c -2.047526,2.16797 -3.199503,4.89896 -3.199503,7.78642 H 54.038002 v 23.99787 h 24.002131 v 162.88983 c 0,2.96266 1.136744,5.7527 3.199503,7.93679 l 0.04883,0.0508 0.04883,0.0469 c 2.200227,2.07799 5.04879,3.20089 8.088609,3.20089 H 218.1678 v 23.99787 h 24.00213 V 514.6418 c 2.81451,0 5.48751,-1.1686 7.63935,-3.20089 v -0.002 h 0.002 c 2.28342,-2.16325 3.59406,-5.00317 3.59406,-8.03249 V 487.0837 c 0,-2.97225 -1.23236,-5.74839 -3.40655,-7.82743 -2.07904,-2.17417 -4.85657,-3.40595 -7.82882,-3.40595 h -84.75752 c -1.53237,0 -2.91385,-0.56063 -4.46329,-2.01935 -1.40017,-1.41033 -1.97283,-2.78336 -1.97283,-4.56795 v -50.31585 c 0,-1.79601 0.55641,-3.08407 1.94354,-4.39414 l 0.0254,-0.0234 0.0234,-0.0234 c 1.43558,-1.43559 2.77367,-1.99201 4.44376,-1.99201 h 50.61582 c 2.91202,0 5.65428,-1.23612 7.80929,-3.38056 2.25185,-2.14464 3.57453,-4.91074 3.57453,-7.85672 v -16.61962 c 0,-2.86623 -1.3554,-5.54452 -3.60579,-7.57941 -2.15079,-2.12733 -4.87857,-3.35907 -7.77803,-3.35907 h -50.61582 c -1.52294,0 -2.89812,-0.55919 -4.43595,-1.99787 -1.42685,-1.525 -2.00017,-2.93494 -2.00017,-4.58553 v -16.47315 c 0,-1.67009 0.55677,-3.00738 1.99236,-4.44296 l 0.0234,-0.0215 0.0215,-0.0234 c 1.446,-1.52634 2.76352,-2.09551 4.39883,-2.09552 h 84.75752 c 2.8015,0 5.45948,-1.16445 7.60615,-3.1794 2.28513,-2.05388 3.62922,-4.81087 3.62922,-7.75908 v -16.62157 c 0,-2.83937 -1.25032,-5.51906 -3.37725,-7.65753 -2.14492,-2.25311 -4.91124,-3.5778 -7.85812,-3.5778 z m 0,4.80035 h 152.74403 c 1.63531,0 2.95283,0.56918 4.39883,2.09552 l 0.0215,0.0234 0.0234,0.0234 c 1.4513,1.45131 1.99236,2.7508 1.99236,4.29259 v 16.62157 c 0,1.63531 -0.54909,2.86421 -2.0451,4.20275 l -0.0254,0.0215 -0.0234,0.0215 c -1.44215,1.36202 -2.76402,1.89045 -4.34218,1.89045 h -84.75752 c -2.94598,0 -5.71152,1.324 -7.85617,3.57586 -2.14444,2.15502 -3.38116,4.89783 -3.38116,7.80985 v 16.47315 c 0,2.92223 1.2243,5.69092 3.35381,7.93875 l 0.0449,0.0469 0.0469,0.0449 c 2.23257,2.11506 4.94084,3.35322 7.79171,3.35322 h 50.61582 c 1.67009,0 3.00621,0.55642 4.4418,1.99201 l 0.0469,0.0469 0.0488,0.0449 c 1.51344,1.35413 2.0451,2.54695 2.0451,4.05238 v 16.62157 c 0,1.6353 -0.56955,2.95205 -2.09588,4.39804 l -0.0234,0.0215 -0.0215,0.0234 c -1.43559,1.4356 -2.77171,1.99397 -4.4418,1.99397 h -50.61582 c -2.90826,0 -5.64967,1.23538 -7.80343,3.3747 -2.19368,2.08218 -3.4339,4.87225 -3.4339,7.85867 v 50.31585 c 0,2.99598 1.22462,5.81345 3.39874,7.98757 l 0.0234,0.0234 0.0234,0.0234 c 2.23257,2.11507 4.94084,3.35126 7.79171,3.35126 h 84.75752 c 1.79601,0 3.08487,0.55606 4.39492,1.94319 l 0.0469,0.0508 0.0508,0.0469 c 1.38713,1.31007 1.94353,2.59814 1.94353,4.39414 v 16.32277 c 0,1.76127 -0.5864,3.11505 -2.09394,4.54452 -1.44215,1.36204 -2.76402,1.89045 -4.34218,1.89045 h -152.744 c -1.925993,0 -3.358047,-0.57381 -4.734796,-1.85335 -1.292083,-1.39025 -1.851727,-2.7776 -1.851727,-4.58162 v -186.8877 c 0,-1.69236 0.544065,-3.0459 1.869307,-4.46054 1.396187,-1.38659 2.808532,-1.97444 4.717216,-1.97444 z m -23.386843,13.63356 a 4.8004265,4.799574 0 0 1 4.799255,4.80035 4.8004265,4.799574 0 0 1 -4.799255,4.7984 4.8004265,4.799574 0 0 1 -4.801207,-4.7984 4.8004265,4.799574 0 0 1 4.801207,-4.80035 z M 230.16888,521.84038 a 4.8004265,4.799574 0 0 1 4.79925,4.80035 4.8004265,4.799574 0 0 1 -4.79925,4.79841 4.8004265,4.799574 0 0 1 -4.80121,-4.79841 4.8004265,4.799574 0 0 1 4.80121,-4.80035 z"
         transform="scale(0.9999112,1.0000888)" />
    </g>
    <g
       inkscape:groupmode="layer"
       id="layer4"
       inkscape:label="BERT"
       style="display:inline">
      <path
         id="text5"
         style="color:#000000;-inkscape-font-specification:'LoRes 9 Plus OT';fill:#000000;stroke-linecap:square;-inkscape-stroke:none"
         inkscape:label="T"
         d="m 786.92644,14.143256 c -2.99597,0 -5.81294,1.224031 -7.98705,3.398131 l -0.0234,0.02539 -0.0234,0.02343 c -2.04751,2.167957 -3.20146,4.900919 -3.20146,7.78836 v 16.621548 c 0,2.814485 1.16919,5.486155 3.20146,7.637983 l 0.0469,0.04882 0.0488,0.04687 c 2.18408,2.062745 4.97557,3.200883 7.93821,3.200883 h 50.31509 c 1.79598,0 3.17235,0.574095 4.59221,1.993961 1.41988,1.419868 1.99236,2.797348 1.99236,4.593336 V 188.26817 H 819.824 v 23.99784 h 24.00216 c 0,2.99597 1.22465,5.81151 3.39875,7.98561 l 0.0254,0.0234 0.0234,0.0234 c 2.16795,2.04752 4.90232,3.20088 7.78977,3.20088 h 50.61394 c 2.81449,0 5.47462,-1.18456 7.53779,-3.24775 2.1741,-2.1741 3.39874,-4.98964 3.39874,-7.98561 V 86.263703 h 24.00216 V 62.265868 h -24.00216 v -2.743893 c 0,-1.670068 0.55678,-3.007378 1.99237,-4.442959 1.55443,-1.554434 2.95496,-2.144338 4.59025,-2.144338 h 50.6159 c 2.8029,0 5.46283,-1.164508 7.61006,-3.181353 2.28256,-2.053467 3.62728,-4.806836 3.62728,-7.753207 V 25.37857 c 0,-2.839356 -1.2523,-5.519057 -3.37921,-7.657512 -2.14491,-2.253102 -4.91128,-3.577802 -7.85813,-3.577802 z m 0,4.800348 h 186.886 c 1.63528,0 2.95283,0.569189 4.39883,2.095514 l 0.0215,0.02344 0.0234,0.02344 c 1.45129,1.451293 1.99236,2.750801 1.99236,4.292581 v 16.621548 c 0,1.635289 -0.5491,2.862268 -2.0451,4.200793 l -0.0254,0.02148 -0.0234,0.02344 c -1.44215,1.362024 -2.76405,1.890454 -4.34219,1.890454 h -50.6159 c -2.957,0 -5.74589,1.307354 -7.98509,3.546555 -2.1584,2.158388 -3.39874,4.916912 -3.39874,7.839137 V 212.26601 c 0,1.79599 -0.5725,3.17151 -1.99237,4.59138 -1.33112,1.33113 -2.56481,1.84163 -4.14295,1.84163 h -50.61394 c -1.69414,0 -3.049,-0.54456 -4.46525,-1.87287 -1.39762,-1.40908 -1.97088,-2.77704 -1.97088,-4.56014 V 59.521975 c 0,-2.995971 -1.22464,-5.813459 -3.39875,-7.987561 -2.1741,-2.174103 -4.99108,-3.398131 -7.98704,-3.398131 h -50.31509 c -1.80607,0 -3.1945,-0.558072 -4.58635,-1.853348 -1.32026,-1.418851 -1.84978,-2.726628 -1.84978,-4.282817 V 25.37857 c 0,-1.693243 0.5445,-3.047049 1.87127,-4.462488 1.41031,-1.400144 2.7803,-1.972478 4.56486,-1.972478 z M 928.615,69.464437 a 4.8004332,4.7995673 0 0 1 4.79926,4.800349 4.8004332,4.7995673 0 0 1 -4.79926,4.798395 4.8004332,4.7995673 0 0 1 -4.80121,-4.798395 4.8004332,4.7995673 0 0 1 4.80121,-4.800349 z M 831.82502,195.46674 a 4.8004332,4.7995673 0 0 1 4.79926,4.80035 4.8004332,4.7995673 0 0 1 -4.79926,4.7984 4.8004332,4.7995673 0 0 1 -4.80121,-4.7984 4.8004332,4.7995673 0 0 1 4.80121,-4.80035 z"
         transform="scale(0.99990981,1.0000902)"
         inkscape:export-filename="Letters\T.svg"
         inkscape:export-xdpi="96"
         inkscape:export-ydpi="96" />
      <path
         id="text6"
         style="color:#000000;-inkscape-font-specification:'LoRes 9 Plus OT';fill:#000000;stroke-linecap:square;-inkscape-stroke:none"
         inkscape:label="R"
         d="m 563.52543,14.143256 c -3.07179,0 -5.94763,1.208316 -8.13745,3.398131 l -0.0234,0.02539 -0.0234,0.02343 c -2.04753,2.167956 -3.1995,4.900917 -3.19951,7.78836 h -24.00216 v 23.997836 h 24.00216 V 212.26601 c 0,2.96264 1.13675,5.75271 3.19951,7.93678 l 0.0469,0.0488 0.0488,0.0469 c 2.20022,2.07799 5.04883,3.20088 8.08862,3.20088 h 50.31704 c 2.95058,0 5.71196,-1.14794 7.80539,-3.22822 2.20804,-2.09817 3.42805,-4.94491 3.42805,-8.00514 v -50.31773 c 0,-1.91982 0.57349,-3.25059 1.94353,-4.54451 l 0.0254,-0.0234 0.0234,-0.0234 c 1.43558,-1.43558 2.77369,-1.99396 4.44376,-1.99396 h 16.62064 c 1.54179,0 2.75376,0.52387 4.09608,1.94514 l 0.0234,0.0234 0.0254,0.0254 c 1.41987,1.41988 1.99237,2.79735 1.99237,4.59334 v 16.17237 c 0,2.99596 1.22464,5.81346 3.39874,7.98756 2.1741,2.1741 4.98912,3.39813 7.9851,3.39813 h 16.47414 c 1.796,0 3.17039,0.57214 4.59026,1.992 l 0.0254,0.0234 0.0234,0.0234 c 1.38711,1.31004 1.94353,2.59813 1.94353,4.39413 v 16.3247 c 0,2.96264 1.1387,5.75271 3.20146,7.93678 l 0.0234,0.0234 0.0254,0.0254 c 2.0798,2.07983 4.7988,3.24775 7.68624,3.24775 h 50.61394 c 2.81448,0 5.48753,-1.16859 7.63936,-3.20088 h 0.002 v -0.002 c 2.28343,-2.16324 3.59603,-5.00122 3.59603,-8.03053 v -16.3247 c 0,-2.97262 -1.23383,-5.74635 -3.40851,-7.82547 -2.07911,-2.17467 -4.85623,-3.40984 -7.82883,-3.40984 h -16.32179 c -1.8055,0 -3.19299,-0.55895 -4.5844,-1.85335 -1.2781,-1.37608 -1.85173,-2.8051 -1.85173,-4.73004 v -50.31578 c 0,-1.82932 0.54606,-3.1451 1.84392,-4.44296 l 0.0234,-0.0234 0.0234,-0.0254 c 1.29392,-1.37003 2.62551,-1.94319 4.54533,-1.94319 h 16.32179 c 2.83935,0 5.52044,-1.25364 7.65889,-3.38055 2.2531,-2.14491 3.57845,-4.9079 3.57845,-7.85476 h 24.00216 V 86.138715 h -24.00216 v -26.61674 c 0,-2.91057 -1.23674,-5.65532 -3.37921,-7.809843 -2.14491,-2.253101 -4.91128,-3.575849 -7.85813,-3.575849 h -16.32179 c -1.81693,0 -3.21148,-0.558769 -4.61174,-1.870925 -1.29471,-1.304938 -1.82439,-2.572083 -1.82439,-4.26524 V 25.37857 c 0,-2.839359 -1.25035,-5.519056 -3.37725,-7.657512 -2.14491,-2.2531 -4.90931,-3.577802 -7.85618,-3.577802 z m 0,4.800348 h 152.74425 c 1.63529,0 2.95089,0.569192 4.39688,2.095514 l 0.0234,0.02344 0.0234,0.02344 c 1.45129,1.451293 1.99237,2.750801 1.99237,4.292581 v 16.621548 c 0,2.887443 1.16656,5.606992 3.24638,7.686806 l 0.0234,0.02344 0.0254,0.02343 c 2.18409,2.062748 4.97559,3.200883 7.93822,3.200883 h 16.32179 c 1.63528,0 2.95284,0.571145 4.39883,2.097467 l 0.0215,0.02344 0.0234,0.02344 c 1.43557,1.43558 1.99236,2.772888 1.99236,4.442959 v 50.614578 c 0,1.63529 -0.56957,2.9501 -2.09589,4.39609 l -0.0234,0.0234 -0.0234,0.0215 c -1.4513,1.45128 -2.75158,1.99396 -4.29335,1.99396 h -16.32179 c -3.06171,0 -5.91203,1.22125 -8.01049,3.43133 -2.07779,2.09297 -3.22294,4.85525 -3.22294,7.80398 v 50.31578 c 0,3.03979 1.12152,5.88694 3.1995,8.08716 l 0.0469,0.0508 0.0488,0.0469 c 2.18409,2.06275 4.97559,3.20089 7.93822,3.20089 h 16.32179 c 1.79598,0 3.08683,0.55607 4.39688,1.94318 l 0.0469,0.0488 0.0488,0.0469 c 1.38711,1.31004 1.94353,2.59813 1.94353,4.39413 v 16.3247 c 0,1.76125 -0.58641,3.1131 -2.09394,4.54256 -1.44214,1.36203 -2.76405,1.89045 -4.34218,1.89045 h -50.61394 c -1.69165,0 -2.9584,-0.5279 -4.26211,-1.82014 -1.31367,-1.40101 -1.87321,-2.79497 -1.87321,-4.61287 v -16.3247 c 0,-2.98511 -1.23618,-5.77481 -3.42805,-7.85671 -2.17044,-2.15755 -4.97397,-3.37665 -7.95775,-3.37665 h -16.47218 c -1.796,0 -3.17235,-0.57409 -4.59222,-1.99396 -1.41986,-1.41987 -1.99236,-2.79541 -1.99236,-4.59138 v -16.17433 c 0,-2.98505 -1.22188,-5.78742 -3.38117,-7.95826 -2.04849,-2.1553 -4.71703,-3.42548 -7.55537,-3.42548 h -16.62064 c -2.90967,0 -5.65312,1.23539 -7.80734,3.37665 -2.20805,2.09818 -3.43,4.94687 -3.43,8.00709 v 50.31773 c 0,1.91982 -0.57349,3.24864 -1.94353,4.54256 l -0.0234,0.0254 -0.0254,0.0234 c -1.29786,1.29786 -2.61055,1.84163 -4.43986,1.84163 h -50.31704 c -1.92756,0 -3.35896,-0.5735 -4.73675,-1.8553 -1.29059,-1.3895 -1.84978,-2.77467 -1.84978,-4.57771 V 25.37857 c 0,-1.692346 0.54408,-3.045907 1.86931,-4.460535 1.39618,-1.386581 2.80857,-1.974431 4.71722,-1.974431 z M 540.14051,32.57714 a 4.8004332,4.7995673 0 0 1 4.79926,4.800348 4.8004332,4.7995673 0 0 1 -4.79926,4.798395 4.8004332,4.7995673 0 0 1 -4.80121,-4.798395 4.8004332,4.7995673 0 0 1 4.80121,-4.800348 z m 91.37152,15.559143 c -2.94686,0 -5.71323,1.322748 -7.85813,3.575849 -2.14248,2.154523 -3.37921,4.899273 -3.37921,7.809843 v 50.614575 c 0,2.92223 1.24036,5.67684 3.39875,7.83523 l 0.0234,0.0234 0.0234,0.0215 c 2.23255,2.11505 4.94087,3.35516 7.79171,3.35516 h 50.61394 c 2.92223,0 5.67826,-1.24169 7.83665,-3.40008 2.22432,-2.22432 3.54915,-4.94802 3.54915,-7.83523 V 59.521975 c 0,-2.935446 -1.31982,-5.689924 -3.55696,-7.831325 -2.1414,-2.237137 -4.8934,-3.554367 -7.82884,-3.554367 z m 0,4.798395 h 50.61394 c 1.6353,0 2.9509,0.571145 4.39688,2.097467 l 0.0449,0.04687 0.0469,0.04492 c 1.52633,1.44599 2.09589,2.762753 2.09589,4.398041 v 50.614574 c 0,1.50542 -0.57345,2.87168 -2.14277,4.44101 -1.43558,1.43556 -2.76977,1.99396 -4.43985,1.99396 h -50.6159 c -1.5319,0 -2.91247,-0.5616 -4.46134,-2.01935 -1.41688,-1.42601 -1.97478,-2.75536 -1.97478,-4.41562 V 59.521975 c 0,-1.670071 0.55679,-3.007379 1.99236,-4.442959 l 0.0234,-0.02344 0.0215,-0.02344 c 1.44599,-1.526322 2.76355,-2.097467 4.39883,-2.097467 z m 141.98742,40.402606 a 4.8004332,4.7995673 0 0 1 4.79926,4.800348 4.8004332,4.7995673 0 0 1 -4.79926,4.798398 4.8004332,4.7995673 0 0 1 -4.80121,-4.798398 4.8004332,4.7995673 0 0 1 4.80121,-4.800348 z"
         transform="scale(0.99990981,1.0000902)"
         inkscape:export-filename="Letters\R.svg"
         inkscape:export-xdpi="96"
         inkscape:export-ydpi="96" />
      <path
         id="text7"
         style="color:#000000;-inkscape-font-specification:'LoRes 9 Plus OT';fill:#000000;stroke-linecap:square;-inkscape-stroke:none"
         inkscape:label="E"
         d="m 339.97402,14.143256 c -3.07181,0 -5.94568,1.208314 -8.1355,3.398131 l -0.0234,0.02539 -0.0234,0.02343 c -2.04751,2.167957 -3.20146,4.900919 -3.20146,7.78836 H 304.5881 v 23.997836 h 24.00216 V 212.26601 c 0,2.96264 1.13872,5.75271 3.20146,7.93678 l 0.0469,0.0488 0.0508,0.0469 c 2.20022,2.07799 5.0449,3.20088 8.08471,3.20088 H 468.7161 v 23.99784 h 24.00217 v -23.99784 c 2.81448,0 5.48753,-1.16859 7.63936,-3.20088 l 0.002,-0.002 c 2.28343,-2.16324 3.59408,-5.00122 3.59407,-8.03053 v -16.3247 c 0,-2.97409 -1.23375,-5.74993 -3.41046,-7.82937 -2.0787,-2.17215 -4.85417,-3.40399 -7.82492,-3.40399 h -84.75765 c -1.53312,0 -2.91293,-0.56097 -4.46329,-2.0213 -1.40016,-1.41032 -1.97088,-2.77949 -1.97088,-4.56404 v -50.31578 c 0,-1.79598 0.55446,-3.08408 1.94158,-4.39413 l 0.0254,-0.0234 0.0234,-0.0254 c 1.43558,-1.43558 2.77368,-1.99201 4.44376,-1.99201 h 50.6159 c 2.91199,0 5.65624,-1.23807 7.81125,-3.3825 2.25183,-2.14463 3.57258,-4.90685 3.57258,-7.85281 V 93.513049 c 0,-2.864812 -1.35349,-5.539026 -3.60188,-7.573535 -2.15109,-2.128556 -4.88162,-3.361025 -7.78195,-3.361025 h -50.6159 c -1.52292,0 -2.89618,-0.559223 -4.43399,-1.997867 -1.42685,-1.524994 -2.00018,-2.93495 -2.00018,-4.585524 V 59.521975 c 0,-1.670068 0.55482,-3.007378 1.99041,-4.442959 l 0.0234,-0.02344 0.0234,-0.02344 c 1.44599,-1.526322 2.76159,-2.097467 4.39688,-2.097467 h 84.75765 c 2.80291,0 5.46283,-1.164507 7.61006,-3.181353 2.28256,-2.053467 3.62532,-4.806836 3.62532,-7.753207 V 25.37857 c 0,-2.840771 -1.25231,-5.522443 -3.38116,-7.661418 -2.14436,-2.250597 -4.90916,-3.573896 -7.85422,-3.573896 z m 0,4.800348 h 152.74425 c 1.63528,0 2.95284,0.569192 4.39883,2.095514 l 0.0215,0.02344 0.0234,0.02344 c 1.4513,1.451294 1.99236,2.750803 1.99236,4.292581 v 16.621548 c 0,1.635289 -0.5491,2.862268 -2.0451,4.200793 l -0.0254,0.02148 -0.0234,0.02344 c -1.44214,1.362023 -2.76404,1.890454 -4.34218,1.890454 h -84.75765 c -2.94506,0 -5.70791,1.321351 -7.85227,3.571944 -2.14444,2.155 -3.38116,4.901742 -3.38116,7.813748 v 16.473123 c 0,2.922225 1.22235,5.690926 3.35186,7.938737 l 0.0449,0.04687 0.0469,0.04492 c 2.23254,2.115049 4.9389,3.353213 7.78976,3.353213 h 50.6159 c 1.67006,0 3.00817,0.556424 4.44376,1.992008 l 0.0469,0.04687 0.0488,0.04492 c 1.51343,1.354116 2.0451,2.544998 2.0451,4.050415 v 16.623498 c 0,1.63529 -0.56956,2.9501 -2.09589,4.39609 l -0.0234,0.0234 -0.0215,0.0215 c -1.43559,1.43557 -2.7737,1.99396 -4.44376,1.99396 h -50.6159 c -2.90966,0 -5.64922,1.23539 -7.80344,3.37665 -2.19239,2.08197 -3.42999,4.87317 -3.42999,7.85866 v 50.31578 c 0,2.99596 1.22463,5.81346 3.39874,7.98756 l 0.0215,0.0215 0.0234,0.0234 c 2.23254,2.11505 4.93891,3.35322 7.78976,3.35322 h 84.75765 c 1.79598,0 3.08488,0.55607 4.39492,1.94318 l 0.0469,0.0488 0.0508,0.0469 c 1.38711,1.31004 1.94353,2.59813 1.94353,4.39413 v 16.3247 c 0,1.76125 -0.58641,3.1131 -2.09394,4.54256 -1.44214,1.36203 -2.76405,1.89045 -4.34218,1.89045 H 339.97402 c -1.92557,0 -3.35444,-0.57245 -4.73089,-1.85139 -1.29296,-1.39069 -1.85173,-2.77705 -1.85173,-4.58162 V 25.37857 c 0,-1.693781 0.54357,-3.048512 1.87126,-4.464441 1.39477,-1.383495 2.80465,-1.970525 4.71136,-1.970525 z M 316.5891,32.57714 a 4.8004332,4.7995673 0 0 1 4.79926,4.800348 4.8004332,4.7995673 0 0 1 -4.79926,4.798395 4.8004332,4.7995673 0 0 1 -4.80121,-4.798395 4.8004332,4.7995673 0 0 1 4.80121,-4.800348 z m 164.12808,198.1208 a 4.8004332,4.7995673 0 0 1 4.79926,4.80035 4.8004332,4.7995673 0 0 1 -4.79926,4.79839 4.8004332,4.7995673 0 0 1 -4.80121,-4.79839 4.8004332,4.7995673 0 0 1 4.80121,-4.80035 z"
         transform="scale(0.99990981,1.0000902)"
         inkscape:export-filename="Letters\E.svg"
         inkscape:export-xdpi="96"
         inkscape:export-ydpi="96" />
      <path
         id="text8"
         style="color:#000000;-inkscape-font-specification:'LoRes 9 Plus OT';display:inline;fill:#000000;stroke-linecap:square;-inkscape-stroke:none"
         inkscape:label="B"
         d="m 82.431263,14.143256 c -3.071803,0 -5.945684,1.208316 -8.1355,3.398131 l -0.02344,0.02539 -0.02344,0.02343 c -2.047515,2.167957 -3.201461,4.900919 -3.201461,7.78836 V 188.26817 H 47.045259 v 23.99784 h 24.002164 c 0,2.96264 1.138713,5.75271 3.201461,7.93678 l 0.04688,0.0488 0.04883,0.0469 c 2.200215,2.07799 5.046862,3.20088 8.086667,3.20088 H 235.17551 c 2.81448,0 5.48558,-1.16859 7.6374,-3.20088 h 0.002 l 0.002,-0.002 c 2.28342,-2.16323 3.59408,-5.00122 3.59408,-8.03053 v -16.3247 c 0,-1.95182 0.56269,-3.31016 1.84391,-4.59138 1.28121,-1.28121 2.63844,-1.84163 4.59026,-1.84163 h 16.32374 c 2.83935,0 5.51849,-1.2517 7.65694,-3.3786 2.26908,-2.16047 3.57845,-4.98809 3.57845,-8.00709 v -26.31794 h 24.00216 V 127.80683 H 280.4042 c 0,-2.98548 -1.23761,-5.77669 -3.43,-7.85866 -2.15422,-2.14126 -4.89573,-3.37665 -7.80539,-3.37665 h -16.32374 c -1.78457,0 -3.1526,-0.5743 -4.56291,-1.97443 -1.32677,-1.41544 -1.87126,-2.76729 -1.87126,-4.46054 V 93.513049 c 0,-1.578144 0.51278,-2.811078 1.84391,-4.142204 1.41986,-1.419867 2.79427,-1.992008 4.59026,-1.992008 h 16.32374 c 2.85084,0 5.54356,-1.255455 7.68624,-3.398131 2.2392,-2.239201 3.54915,-5.028603 3.54915,-7.985608 V 59.521975 c 0,-2.91057 -1.23674,-5.65532 -3.37922,-7.809843 -2.1449,-2.253101 -4.90932,-3.575849 -7.85617,-3.575849 h -16.32374 c -1.81694,0 -3.20953,-0.55877 -4.60979,-1.870925 -1.29477,-1.304937 -1.82438,-2.572081 -1.82438,-4.26524 V 25.37857 c 0,-2.839361 -1.2523,-5.519057 -3.37922,-7.657512 -2.1449,-2.2531 -4.90931,-3.577802 -7.85617,-3.577802 z m 0,4.800348 H 235.17551 c 1.63529,0 2.95089,0.569192 4.39688,2.095514 l 0.0234,0.02344 0.0234,0.02344 c 1.4513,1.451294 1.99236,2.750803 1.99236,4.292581 v 16.621548 c 0,2.887441 1.16854,5.606991 3.24834,7.686806 l 0.0234,0.02344 0.0254,0.02343 c 2.18408,2.062749 4.97362,3.200883 7.93626,3.200883 h 16.32374 c 1.63529,0 2.95089,0.571145 4.39688,2.097467 l 0.0215,0.02344 0.0234,0.02344 c 1.43558,1.43558 1.99237,2.772888 1.99237,4.442959 v 16.473123 c 0,1.635289 -0.58834,3.036949 -2.14277,4.591383 -1.4513,1.451294 -2.74962,1.992008 -4.2914,1.992008 h -16.32374 c -2.99597,0 -5.81099,1.224028 -7.9851,3.398131 -2.06316,2.063179 -3.24834,4.721943 -3.24834,7.536429 v 16.623504 c 0,2.88744 1.15395,5.61845 3.20147,7.78641 l 0.0234,0.0254 0.0234,0.0234 c 2.17411,2.1741 4.98913,3.40008 7.9851,3.40008 h 16.32374 c 1.67007,0 3.00623,0.55643 4.4418,1.99201 l 0.0234,0.0254 0.0254,0.0234 c 1.38711,1.31005 1.94353,2.59814 1.94353,4.39413 v 50.31578 c 0,1.76264 -0.58567,3.11573 -2.09589,4.54646 l -0.0234,0.0215 -0.0234,0.0234 c -1.4513,1.4513 -2.74962,1.99201 -4.2914,1.99201 H 252.8449 c -3.0398,0 -5.872,1.13661 -7.9851,3.2497 -2.11307,2.11309 -3.24834,4.9458 -3.24834,7.98561 v 16.3247 c 0,1.76125 -0.5864,3.1131 -2.09393,4.54256 -1.44214,1.36203 -2.76404,1.89045 -4.34219,1.89045 H 82.431263 c -1.927577,0 -3.358967,-0.5735 -4.736756,-1.8553 -1.290583,-1.3895 -1.849776,-2.77467 -1.849776,-4.57771 V 25.37857 c 0,-1.692348 0.544078,-3.045908 1.869309,-4.460535 1.396175,-1.386581 2.808555,-1.974431 4.717223,-1.974431 z m 67.986597,29.192679 c -2.94686,0 -5.71322,1.32275 -7.85813,3.575849 -2.14249,2.154523 -3.37726,4.899273 -3.37726,7.809843 v 16.473123 c 0,2.922222 1.22236,5.690925 3.35187,7.938737 l 0.0449,0.04687 0.0469,0.04492 c 2.23256,2.115047 4.94088,3.353213 7.79172,3.353213 h 50.6159 c 2.92222,0 5.6763,-1.239745 7.83469,-3.398131 2.23919,-2.239201 3.54915,-5.028603 3.54915,-7.985608 V 59.521975 c 0,-2.935446 -1.31982,-5.689924 -3.55697,-7.831325 -2.14139,-2.237134 -4.89144,-3.554367 -7.82687,-3.554367 z m 0,4.798395 h 50.6159 c 1.63528,0 2.95088,0.571142 4.39688,2.097467 l 0.0449,0.04687 0.0469,0.04492 c 1.52633,1.44599 2.09394,2.762753 2.09394,4.398041 v 16.473123 c 0,1.635289 -0.58639,3.036949 -2.14082,4.591383 -1.43559,1.435584 -2.77174,1.992008 -4.4418,1.992008 h -50.6159 c -1.52292,0 -2.89813,-0.559221 -4.43594,-1.997867 -1.42685,-1.524993 -2.00018,-2.934948 -2.00018,-4.585524 V 59.521975 c 0,-1.670071 0.55678,-3.007379 1.99236,-4.442959 l 0.0234,-0.02344 0.0215,-0.02344 c 1.446,-1.526324 2.76354,-2.097467 4.39883,-2.097467 z m 0,63.636842 c -2.90824,0 -5.64968,1.23539 -7.80344,3.37469 -2.19365,2.08219 -3.43195,4.87421 -3.43195,7.86062 v 50.31578 c 0,2.99596 1.2227,5.81346 3.3968,7.98756 l 0.0234,0.0215 0.0234,0.0234 c 2.23256,2.11504 4.94088,3.35322 7.79172,3.35322 h 50.6159 c 2.99596,0 5.81099,-1.22403 7.98509,-3.39813 2.17411,-2.1741 3.39875,-4.9916 3.39875,-7.98756 v -50.31578 c 0,-2.9851 -1.23618,-5.77678 -3.42805,-7.85866 -2.17045,-2.15756 -4.97202,-3.37665 -7.95579,-3.37665 z m 0,4.80034 h 50.6159 c 1.79598,0 3.17234,0.57214 4.59221,1.99201 l 0.0215,0.0254 0.0254,0.0234 c 1.38712,1.31005 1.94353,2.59815 1.94353,4.39413 v 50.31578 c 0,1.79597 -0.57249,3.17151 -1.99237,4.59138 -1.41986,1.41987 -2.79427,1.99396 -4.59025,1.99396 h -50.6159 c -1.53159,0 -2.91285,-0.56033 -4.46134,-2.0174 -1.40268,-1.41155 -1.97478,-2.78192 -1.97478,-4.56794 V 127.8068 c 0,-1.79599 0.55642,-3.08408 1.94353,-4.39413 l 0.0254,-0.0234 0.0234,-0.0254 c 1.43559,-1.43558 2.77368,-1.99201 4.44376,-1.99201 z m 141.98742,13.63354 a 4.8004332,4.7995673 0 0 1 4.79926,4.80035 4.8004332,4.7995673 0 0 1 -4.79926,4.79839 4.8004332,4.7995673 0 0 1 -4.80122,-4.79839 4.8004332,4.7995673 0 0 1 4.80122,-4.80035 z M 59.046341,195.46674 a 4.8004332,4.7995673 0 0 1 4.799261,4.80035 4.8004332,4.7995673 0 0 1 -4.799261,4.7984 4.8004332,4.7995673 0 0 1 -4.801214,-4.7984 4.8004332,4.7995673 0 0 1 4.801214,-4.80035 z"
         transform="scale(0.99990981,1.0000902)"
         inkscape:export-filename="Letters\B.svg"
         inkscape:export-xdpi="96"
         inkscape:export-ydpi="96" />
    </g>
  </g>
</svg>
